<svg width="281" height="16" viewBox="0 0 281 16" fill="none" xmlns="http://www.w3.org/2000/svg">
<path d="M0.292893 7.29289C-0.0976311 7.68342 -0.0976311 8.31658 0.292893 8.70711L6.65685 15.0711C7.04738 15.4616 7.68054 15.4616 8.07107 15.0711C8.46159 14.6805 8.46159 14.0474 8.07107 13.6569L2.41421 8L8.07107 2.34315C8.46159 1.95262 8.46159 1.31946 8.07107 0.928932C7.68054 0.538408 7.04738 0.538408 6.65685 0.928932L0.292893 7.29289ZM280.707 8.70711C281.098 8.31658 281.098 7.68342 280.707 7.29289L274.343 0.928932C273.953 0.538408 273.319 0.538408 272.929 0.928932C272.538 1.31946 272.538 1.95262 272.929 2.34315L278.586 8L272.929 13.6569C272.538 14.0474 272.538 14.6805 272.929 15.0711C273.319 15.4616 273.953 15.4616 274.343 15.0711L280.707 8.70711ZM1 9H280V7H1V9Z" fill="black"/>
</svg>
