<svg width="1217" height="725" viewBox="0 0 1217 725" fill="none" xmlns="http://www.w3.org/2000/svg">
<path opacity="0.35" d="M530.161 58.8564L526.145 51.7875L538.744 44.6299L542.686 51.5683C543.308 52.6639 543.501 53.6926 543.266 54.6545C543.04 55.6338 542.44 56.4001 541.467 56.9534C540.754 57.3584 540.023 57.5092 539.274 57.4056C538.552 57.3095 537.941 57.024 537.441 56.5489C537.65 57.2812 537.583 58.0327 537.239 58.8034C536.904 59.5914 536.38 60.1879 535.668 60.593C534.642 61.1759 533.628 61.3147 532.626 61.0096C531.635 60.7218 530.813 60.0041 530.161 58.8564ZM531.66 57.4871C532.016 58.1131 532.471 58.5099 533.027 58.6775C533.582 58.8451 534.155 58.7609 534.746 58.425C535.285 58.1188 535.643 57.6744 535.818 57.0918C535.993 56.5093 535.902 55.905 535.547 55.279L532.865 50.5578L528.978 52.7658L531.66 57.4871ZM537.224 54.2227C537.56 54.8139 537.978 55.1858 538.479 55.3384C538.997 55.4811 539.517 55.4043 540.039 55.1079C540.595 54.7917 540.936 54.3796 541.061 53.8713C541.204 53.3532 541.107 52.7985 540.771 52.2073L538.134 47.5643L534.586 49.5797L537.224 54.2227ZM539.937 76.0645L538.826 74.1082L540.261 73.2931C538.493 72.8943 537.12 71.8341 536.142 70.1125C535.48 68.9474 535.271 67.709 535.515 66.3974C535.759 65.0857 536.524 64.0643 537.811 63.3332C539.132 62.5824 540.397 62.4392 541.604 62.9036C542.838 63.3755 543.791 64.2027 544.463 65.3852C545.48 67.1763 545.697 68.8935 545.112 70.5368L547.382 69.2475C548.216 68.7733 548.7 68.1072 548.834 67.2492C548.968 66.3912 548.768 65.4927 548.234 64.5537C547.394 63.0756 546.081 62.1197 544.293 61.6861L545.131 60.0025C547.283 60.5512 548.932 61.8341 550.078 63.8513C550.898 65.2946 551.217 66.666 551.035 67.9654C550.853 69.2648 550.041 70.3246 548.597 71.1446L539.937 76.0645ZM537.95 70.0166C538.84 71.5816 540.018 72.4417 541.486 72.5966L543.86 71.2481C544.479 69.9076 544.343 68.4548 543.454 66.8897C542.941 65.9855 542.255 65.3859 541.397 65.0911C540.567 64.8037 539.743 64.8922 538.926 65.3565C538.126 65.811 537.628 66.4733 537.432 67.3436C537.264 68.2213 537.437 69.1123 537.95 70.0166ZM545.379 86.372C544.372 84.5983 544.305 82.7612 545.181 80.8607L538.477 84.6692L537.366 82.7129L554.764 72.8285L555.875 74.7848L553.997 75.8518C554.925 75.9459 555.801 76.2532 556.626 76.7737C557.451 77.2942 558.11 77.9892 558.604 78.8587C559.552 80.5281 559.718 82.2166 559.101 83.9243C558.511 85.6395 557.208 87.0701 555.191 88.2161C553.174 89.3621 551.269 89.7543 549.476 89.3926C547.693 89.0483 546.328 88.0414 545.379 86.372ZM546.845 84.8835C547.547 86.1182 548.557 86.8439 549.876 87.0605C551.213 87.2672 552.594 86.9656 554.02 86.1554C555.446 85.3453 556.404 84.3182 556.893 83.0741C557.382 81.83 557.276 80.5907 556.575 79.356C556.15 78.6082 555.535 77.9915 554.73 77.5058C553.952 77.0275 553.186 76.7726 552.432 76.7409L546.746 79.9715C546.37 80.6453 546.179 81.4436 546.174 82.3664C546.197 83.2968 546.421 84.1358 546.845 84.8835ZM551.713 96.7914L550.646 94.9133L563.245 87.7556L564.356 89.712L554.731 95.1802L568.105 96.3113L569.202 98.2415L556.603 105.399L555.492 103.443L565.299 97.8709L551.713 96.7914ZM564.409 119.139L563.298 117.183L564.732 116.368C562.965 115.969 561.592 114.909 560.614 113.187C559.952 112.022 559.743 110.784 559.987 109.472C560.231 108.16 560.996 107.139 562.283 106.408C563.604 105.657 564.869 105.514 566.076 105.978C567.31 106.45 568.263 107.278 568.935 108.46C569.952 110.251 570.169 111.968 569.584 113.612L571.853 112.322C572.688 111.848 573.172 111.182 573.306 110.324C573.44 109.466 573.24 108.568 572.706 107.628C571.866 106.15 570.553 105.194 568.765 104.761L569.603 103.077C571.755 103.626 573.404 104.909 574.55 106.926C575.37 108.369 575.689 109.741 575.507 111.04C575.325 112.34 574.513 113.399 573.069 114.219L564.409 119.139ZM562.422 113.091C563.312 114.656 564.49 115.516 565.958 115.671L568.332 114.323C568.951 112.982 568.815 111.53 567.926 109.965C567.412 109.06 566.727 108.461 565.869 108.166C565.039 107.879 564.215 107.967 563.398 108.431C562.598 108.886 562.1 109.548 561.904 110.418C561.736 111.296 561.909 112.187 562.422 113.091ZM569.053 127.313L567.941 125.356L578.818 119.177L576.744 115.525L578.465 114.547L583.741 123.833L582.019 124.811L579.93 121.133L569.053 127.313ZM573.667 135.434L572.6 133.556L585.198 126.398L586.31 128.354L576.685 133.823L590.059 134.954L591.156 136.884L578.557 144.042L577.445 142.085L587.253 136.513L573.667 135.434ZM584.792 155.017L580.776 147.948L593.375 140.79L597.317 147.729C597.939 148.824 598.133 149.853 597.897 150.815C597.671 151.794 597.072 152.561 596.098 153.114C595.385 153.519 594.654 153.67 593.905 153.566C593.183 153.47 592.572 153.184 592.073 152.709C592.282 153.442 592.214 154.193 591.87 154.964C591.535 155.752 591.012 156.348 590.299 156.753C589.273 157.336 588.259 157.475 587.258 157.17C586.266 156.882 585.444 156.165 584.792 155.017ZM586.291 153.648C586.647 154.274 587.103 154.67 587.658 154.838C588.213 155.006 588.786 154.921 589.378 154.586C589.917 154.279 590.274 153.835 590.449 153.252C590.624 152.67 590.534 152.066 590.178 151.44L587.496 146.718L583.609 148.926L586.291 153.648ZM591.855 150.383C592.191 150.974 592.609 151.346 593.11 151.499C593.628 151.642 594.148 151.565 594.67 151.268C595.226 150.952 595.567 150.54 595.692 150.032C595.835 149.514 595.738 148.959 595.403 148.368L592.765 143.725L589.217 145.74L591.855 150.383ZM590.093 164.348L588.982 162.391L601.58 155.234L602.692 157.19L597.449 160.169L601.183 166.742L606.426 163.763L607.538 165.719L594.939 172.877L593.828 170.921L599.462 167.72L595.727 161.147L590.093 164.348ZM609.757 169.626L610.868 171.582L605.991 174.353L608.673 179.075C609.384 180.327 609.564 181.513 609.211 182.633C608.876 183.744 608.161 184.61 607.065 185.233C605.969 185.855 604.845 186.022 603.692 185.734C602.567 185.453 601.653 184.696 600.952 183.461L597.158 176.783L609.757 169.626ZM606.833 179.844L604.269 175.331L599.991 177.762L602.555 182.274C602.95 182.97 603.443 183.392 604.033 183.539C604.65 183.695 605.281 183.59 605.924 183.224C606.567 182.859 606.972 182.376 607.137 181.776C607.329 181.184 607.228 180.54 606.833 179.844ZM605.487 191.443L604.375 189.487L616.974 182.329L618.085 184.285L605.487 191.443ZM608.775 197.231L607.708 195.353L620.307 188.196L621.418 190.152L611.793 195.62L625.168 196.751L626.264 198.682L613.666 205.839L612.554 203.883L622.362 198.311L608.775 197.231ZM629.609 195.884C627.437 195.623 625.807 194.536 624.72 192.623C623.643 190.728 623.539 188.763 624.408 186.729L625.791 187.219C625.052 188.835 625.113 190.399 625.972 191.912C626.842 193.442 628.149 194.287 629.895 194.445L629.609 195.884Z" fill="black"/>
<path opacity="0.35" d="M90.1925 408.853L92.0254 409.602L89.0414 416.906L100.622 421.637L99.7712 423.72L86.3575 418.24L90.1925 408.853ZM107.52 405.706C106.703 407.705 105.385 409.079 103.567 409.827C101.731 410.568 99.7667 410.511 97.6745 409.656C95.712 408.854 94.3121 407.548 93.475 405.736C92.6192 403.918 92.5772 402.064 93.3487 400.176C94.1581 398.195 95.4823 396.91 97.3213 396.322C99.1494 395.708 101.1 395.824 103.174 396.671L103.702 396.887L99.2652 407.745C100.618 408.19 101.916 408.159 103.16 407.652C104.404 407.144 105.31 406.197 105.877 404.808C106.558 403.142 106.557 401.532 105.874 399.978L107.643 399.534C108.453 401.464 108.412 403.521 107.52 405.706ZM101.334 398.318C100.179 397.867 98.9926 397.836 97.7753 398.225C96.5394 398.606 95.6341 399.5 95.0592 400.907C94.5146 402.24 94.537 403.48 95.1265 404.629C95.7236 405.758 96.594 406.589 97.7377 407.121L101.334 398.318ZM113.769 384.619C114.629 386.374 114.651 388.252 113.834 390.252C113.017 392.251 111.683 393.586 109.832 394.256C107.989 394.907 106.067 394.824 104.068 394.007C102.068 393.19 100.648 391.908 99.8065 390.16C98.9541 388.386 98.9364 386.499 99.7534 384.499C100.57 382.5 101.9 381.174 103.744 380.523C105.576 379.846 107.492 379.915 109.491 380.732C111.491 381.549 112.917 382.845 113.769 384.619ZM109.134 392.156C110.467 391.75 111.413 390.862 111.973 389.491C112.533 388.121 112.475 386.834 111.801 385.629C111.108 384.417 110.039 383.516 108.595 382.926C107.151 382.336 105.766 382.235 104.441 382.623C103.116 383.01 102.174 383.889 101.614 385.259C101.054 386.629 101.117 387.93 101.803 389.16C102.477 390.365 103.527 391.258 104.953 391.841C106.397 392.431 107.791 392.536 109.134 392.156ZM123.193 366.391L122.342 368.474L111.817 364.174L120.561 372.834L120.243 373.612L107.925 373.699L118.45 378L117.599 380.083L104.186 374.602L105.309 371.853L116.93 371.805L108.645 363.688L109.779 360.911L123.193 366.391ZM127.697 356.319C126.88 358.319 125.563 359.692 123.745 360.44C121.908 361.181 119.944 361.124 117.852 360.269C115.889 359.467 114.489 358.161 113.652 356.349C112.796 354.531 112.754 352.677 113.526 350.789C114.335 348.808 115.659 347.523 117.499 346.935C119.327 346.321 121.277 346.437 123.351 347.284L123.879 347.5L119.442 358.359C120.795 358.803 122.093 358.772 123.337 358.265C124.581 357.758 125.487 356.81 126.054 355.421C126.735 353.755 126.734 352.145 126.051 350.591L127.82 350.147C128.631 352.077 128.589 354.134 127.697 356.319ZM121.512 348.931C120.356 348.481 119.17 348.45 117.952 348.838C116.717 349.219 115.811 350.113 115.236 351.52C114.692 352.853 114.714 354.094 115.304 355.242C115.901 356.372 116.771 357.202 117.915 357.735L121.512 348.931ZM133.133 342.062L132.282 344.145L120.701 339.413L119.113 343.301L117.28 342.552L121.319 332.666L123.152 333.414L121.552 337.33L133.133 342.062ZM138.882 328.941C138.111 330.83 136.707 332.017 134.672 332.504L141.809 335.42L140.959 337.502L122.435 329.934L123.286 327.852L125.285 328.669C124.786 327.881 124.486 327.002 124.386 326.032C124.285 325.062 124.424 324.114 124.802 323.189C125.528 321.411 126.753 320.237 128.477 319.667C130.19 319.07 132.12 319.211 134.268 320.088C136.415 320.966 137.901 322.221 138.725 323.854C139.556 325.468 139.608 327.164 138.882 328.941ZM136.806 328.709C137.343 327.394 137.289 326.151 136.644 324.98C135.98 323.802 134.889 322.903 133.371 322.282C131.853 321.662 130.454 321.544 129.173 321.928C127.893 322.313 126.984 323.162 126.447 324.477C126.122 325.273 126.017 326.137 126.133 327.07C126.238 327.977 126.51 328.737 126.952 329.349L133.006 331.823C133.768 331.702 134.513 331.358 135.242 330.792C135.959 330.199 136.481 329.505 136.806 328.709ZM143.159 317.522L142.342 319.522L128.928 314.042L129.779 311.959L140.027 316.146L132.649 304.933L133.489 302.878L146.903 308.358L146.052 310.441L135.61 306.174L143.159 317.522ZM135.075 298.996L135.926 296.913L139.703 298.456C140.906 298.948 141.853 299.011 142.543 298.644C143.232 298.278 143.815 297.512 144.292 296.345C144.882 294.901 145.125 293.618 145.022 292.496L138.774 289.943L139.625 287.86L153.038 293.34L152.187 295.423L146.716 293.188C146.825 294.615 146.565 296.097 145.937 297.633C145.226 299.374 144.356 300.498 143.327 301.007C142.306 301.497 141.027 301.428 139.49 300.8L135.075 298.996ZM157.547 283.256C156.73 285.255 155.413 286.629 153.595 287.377C151.758 288.118 149.794 288.06 147.702 287.206C145.739 286.404 144.34 285.097 143.502 283.286C142.647 281.467 142.605 279.614 143.376 277.725C144.186 275.744 145.51 274.46 147.349 273.872C149.177 273.257 151.128 273.374 153.201 274.221L153.729 274.437L149.293 285.295C150.645 285.74 151.943 285.709 153.187 285.201C154.432 284.694 155.337 283.746 155.905 282.358C156.586 280.692 156.584 279.082 155.901 277.528L157.671 277.084C158.481 279.014 158.44 281.071 157.547 283.256ZM151.362 275.868C150.206 275.417 149.02 275.386 147.803 275.775C146.567 276.156 145.662 277.05 145.087 278.457C144.542 279.79 144.564 281.03 145.154 282.179C145.751 283.308 146.621 284.139 147.765 284.671L151.362 275.868ZM163.884 267.746C163.074 269.727 161.75 271.065 159.91 271.761C158.052 272.45 156.113 272.381 154.095 271.557C152.077 270.733 150.655 269.428 149.829 267.643C149.003 265.858 148.994 263.974 149.804 261.993C150.651 259.92 152.098 258.599 154.145 258.031L154.855 259.941C153.34 260.317 152.292 261.217 151.71 262.643C151.135 264.05 151.155 265.376 151.77 266.621C152.392 267.847 153.462 268.771 154.98 269.391C156.499 270.011 157.918 270.105 159.24 269.673C160.551 269.214 161.494 268.282 162.068 266.875C162.643 265.468 162.525 264.091 161.714 262.744L163.559 261.877C164.623 263.716 164.731 265.672 163.884 267.746ZM171.574 247.972L170.484 250.638L162.484 253.008L163.77 256.126L167.602 257.692L166.751 259.775L153.338 254.295L154.189 252.212L161.326 255.128L157.071 245.158L158.149 242.52L161.802 250.948L171.574 247.972ZM173.397 243.51L172.58 245.509L159.166 240.029L160.017 237.946L170.265 242.133L162.888 230.92L163.727 228.865L177.141 234.345L176.29 236.428L165.848 232.162L173.397 243.51ZM179.657 228.187L178.84 230.186L165.426 224.706L166.277 222.623L176.525 226.81L169.148 215.597L169.988 213.542L183.401 219.022L182.55 221.105L172.108 216.839L179.657 228.187ZM165.721 212.641C166.859 214.51 167.012 216.463 166.179 218.5C165.355 220.518 163.875 221.814 161.739 222.389L161.27 220.999C162.996 220.58 164.188 219.566 164.846 217.955C165.512 216.326 165.367 214.776 164.413 213.306L165.721 212.641Z" fill="black"/>
<path opacity="0.35" d="M1176.08 500.788L1174.19 501.365L1171.89 493.817L1159.92 497.461L1159.26 495.309L1173.13 491.088L1176.08 500.788ZM1164.81 514.744C1164.21 512.792 1164.55 510.985 1165.82 509.323L1158.45 511.569L1157.79 509.416L1176.93 503.588L1177.59 505.74L1175.52 506.369C1176.41 506.664 1177.19 507.156 1177.88 507.845C1178.57 508.534 1179.06 509.356 1179.36 510.313C1179.92 512.15 1179.71 513.834 1178.73 515.364C1177.78 516.909 1176.19 518.018 1173.97 518.694C1171.75 519.37 1169.81 519.335 1168.14 518.589C1166.48 517.862 1165.37 516.58 1164.81 514.744ZM1166.56 513.613C1166.98 514.971 1167.8 515.901 1169.04 516.401C1170.3 516.896 1171.72 516.905 1173.28 516.427C1174.85 515.949 1176.01 515.157 1176.76 514.051C1177.51 512.944 1177.68 511.712 1177.27 510.353C1177.02 509.531 1176.55 508.794 1175.87 508.144C1175.22 507.506 1174.53 507.09 1173.8 506.894L1167.54 508.799C1167.03 509.374 1166.67 510.111 1166.46 511.01C1166.28 511.923 1166.31 512.79 1166.56 513.613ZM1173.18 534.719C1171.4 533.901 1170.2 532.459 1169.57 530.392C1168.94 528.326 1169.13 526.449 1170.15 524.761C1171.16 523.092 1172.71 521.943 1174.77 521.314C1176.84 520.684 1178.75 520.782 1180.51 521.606C1182.29 522.443 1183.49 523.895 1184.12 525.962C1184.75 528.028 1184.56 529.896 1183.54 531.565C1182.55 533.247 1181.02 534.402 1178.95 535.032C1176.88 535.661 1174.96 535.557 1173.18 534.719ZM1172.01 525.948C1171.24 527.105 1171.06 528.391 1171.49 529.807C1171.92 531.223 1172.78 532.185 1174.07 532.693C1175.37 533.195 1176.77 533.219 1178.26 532.764C1179.75 532.31 1180.89 531.514 1181.67 530.377C1182.45 529.24 1182.63 527.963 1182.2 526.547C1181.77 525.131 1180.9 524.163 1179.59 523.641C1178.31 523.133 1176.93 523.103 1175.45 523.552C1173.96 524.006 1172.81 524.805 1172.01 525.948ZM1174.5 545.333L1173.84 543.181L1185.81 539.537L1184.59 535.519L1186.48 534.942L1189.59 545.159L1187.7 545.736L1186.46 541.689L1174.5 545.333ZM1178.15 558.563C1177.52 556.497 1177.67 554.6 1178.61 552.872C1179.57 551.138 1181.13 549.942 1183.29 549.284C1185.32 548.666 1187.23 548.795 1189.02 549.671C1190.83 550.541 1192.04 551.952 1192.63 553.903C1193.25 555.95 1193.04 557.783 1191.98 559.4C1190.95 561.031 1189.37 562.172 1187.22 562.825L1186.68 562.991L1183.26 551.77C1181.93 552.279 1180.95 553.123 1180.3 554.302C1179.66 555.481 1179.55 556.788 1179.99 558.223C1180.51 559.944 1181.53 561.192 1183.04 561.966L1181.95 563.427C1180.1 562.442 1178.84 560.821 1178.15 558.563ZM1187.61 560.386C1188.79 560.006 1189.73 559.281 1190.43 558.211C1191.15 557.135 1191.28 555.87 1190.84 554.416C1190.42 553.039 1189.62 552.091 1188.44 551.573C1187.26 551.074 1186.06 550.979 1184.84 551.289L1187.61 560.386ZM1183.03 574.591C1182.41 572.544 1182.59 570.67 1183.58 568.968C1184.58 567.261 1186.13 566.09 1188.21 565.455C1190.3 564.82 1192.23 564.934 1193.99 565.796C1195.76 566.659 1196.96 568.113 1197.58 570.161C1198.23 572.303 1197.94 574.241 1196.72 575.974L1194.96 574.941C1195.9 573.694 1196.14 572.334 1195.69 570.861C1195.25 569.407 1194.4 568.391 1193.13 567.814C1191.88 567.256 1190.46 567.216 1188.89 567.694C1187.33 568.171 1186.17 568.995 1185.41 570.165C1184.69 571.348 1184.54 572.666 1184.99 574.12C1185.43 575.575 1186.39 576.568 1187.87 577.1L1186.99 578.937C1185 578.183 1183.68 576.734 1183.03 574.591ZM1189.55 594.78L1188.71 592.025L1193.42 585.135L1190.46 583.529L1186.49 584.735L1185.84 582.583L1199.7 578.362L1200.36 580.514L1192.98 582.76L1202.58 587.804L1203.41 590.53L1195.25 586.303L1189.55 594.78Z" fill="black"/>
<path opacity="0.35" d="M810.051 327.7C811.436 327.842 812.653 327.389 813.699 326.343C814.746 325.296 815.191 324.087 815.036 322.715C814.866 321.329 814.222 320.078 813.105 318.96C812.016 317.871 810.786 317.249 809.414 317.094C808.042 316.938 806.833 317.384 805.787 318.43C804.74 319.477 804.288 320.693 804.429 322.079C804.585 323.451 805.207 324.681 806.296 325.77C807.413 326.887 808.665 327.531 810.051 327.7ZM815.121 327.764C813.579 329.305 811.804 329.991 809.796 329.822C807.788 329.652 805.921 328.704 804.196 326.979C801.763 324.547 800.406 322.312 800.123 320.276C799.826 318.225 800.469 316.167 802.053 314.103C802.972 312.844 803.559 311.932 803.814 311.366C804.083 310.786 804.111 310.39 803.899 310.178L805.447 308.63C805.843 309.026 806.07 309.492 806.126 310.03C806.169 310.553 806.048 311.126 805.766 311.748C805.497 312.356 805.214 312.908 804.917 313.403C804.62 313.869 804.238 314.407 803.771 315.015C802.555 316.627 801.919 318.041 801.862 319.257C801.82 320.46 802.18 321.64 802.944 322.8C802.421 320.41 802.98 318.395 804.62 316.754C806.034 315.34 807.703 314.704 809.626 314.845C811.55 314.986 813.261 315.807 814.76 317.306C816.287 318.833 817.115 320.58 817.242 322.545C817.355 324.497 816.648 326.237 815.121 327.764ZM829.485 310.302C829.598 312.254 828.891 313.993 827.364 315.521C825.836 317.048 824.09 317.762 822.124 317.663C820.172 317.55 818.433 316.73 816.906 315.203C815.378 313.675 814.565 311.943 814.466 310.005C814.367 308.04 815.081 306.293 816.609 304.766C818.136 303.238 819.875 302.531 821.827 302.644C823.779 302.729 825.518 303.535 827.045 305.063C828.573 306.59 829.386 308.337 829.485 310.302ZM822.294 315.457C823.68 315.599 824.896 315.146 825.942 314.099C826.989 313.053 827.434 311.844 827.279 310.472C827.109 309.086 826.473 307.842 825.37 306.738C824.267 305.635 823.029 305.006 821.657 304.851C820.286 304.695 819.076 305.14 818.03 306.187C816.983 307.233 816.538 308.457 816.693 309.857C816.849 311.229 817.471 312.459 818.56 313.548C819.663 314.651 820.908 315.287 822.294 315.457ZM833.818 309.066L832.503 307.751C832.984 307.27 833.062 306.556 832.736 305.609C832.411 304.661 831.605 303.346 830.318 301.663L825.927 295.957L833.054 288.829L843.3 299.075L841.709 300.666L832.864 291.82L828.727 295.957L832.1 300.263C833.755 302.37 834.709 304.117 834.964 305.502C835.204 306.874 834.822 308.062 833.818 309.066ZM851.356 291.528C849.829 293.055 848.082 293.812 846.117 293.798C844.137 293.77 842.348 292.956 840.75 291.358C839.251 289.859 838.466 288.113 838.395 286.119C838.31 284.111 838.989 282.385 840.432 280.943C841.945 279.43 843.663 278.758 845.586 278.927C847.51 279.069 849.263 279.932 850.847 281.515L851.25 281.919L842.956 290.213C844.031 291.146 845.24 291.62 846.583 291.634C847.927 291.648 849.129 291.125 850.19 290.064C851.462 288.792 852.085 287.307 852.056 285.61L853.859 285.885C853.859 287.978 853.025 289.859 851.356 291.528ZM848.514 282.322C847.623 281.459 846.541 280.971 845.268 280.858C843.981 280.731 842.8 281.204 841.726 282.279C840.707 283.297 840.248 284.45 840.347 285.737C840.46 287.01 840.941 288.113 841.789 289.046L848.514 282.322ZM863.309 279.575C861.782 281.102 860.036 281.859 858.07 281.845C856.09 281.817 854.301 281.003 852.703 279.405C851.204 277.906 850.419 276.16 850.348 274.166C850.263 272.157 850.942 270.432 852.385 268.99C853.898 267.476 855.616 266.805 857.539 266.974C859.463 267.116 861.216 267.978 862.8 269.562L863.203 269.965L854.909 278.26C855.984 279.193 857.193 279.667 858.536 279.681C859.88 279.695 861.082 279.172 862.143 278.111C863.416 276.838 864.038 275.354 864.01 273.656L865.813 273.932C865.813 276.025 864.978 277.906 863.309 279.575ZM860.467 270.368C859.576 269.506 858.494 269.018 857.221 268.905C855.934 268.777 854.753 269.251 853.679 270.326C852.66 271.344 852.201 272.497 852.3 273.784C852.413 275.057 852.894 276.16 853.742 277.093L860.467 270.368ZM879.798 262.577L878.038 264.338L866.222 252.522L866.349 257.189L864.207 257.168L864.1 249.976L865.649 248.428L879.798 262.577ZM888.196 254.689C887.262 255.622 886.223 256.237 885.078 256.534C883.932 256.803 882.787 256.789 881.641 256.492C880.51 256.181 879.421 255.714 878.374 255.092C877.342 254.455 876.373 253.684 875.468 252.779C874.563 251.874 873.792 250.906 873.156 249.873C872.533 248.827 872.074 247.745 871.777 246.628C871.48 245.482 871.473 244.344 871.756 243.212C872.038 242.053 872.647 241.006 873.58 240.073C874.499 239.153 875.539 238.552 876.698 238.27C877.844 237.973 878.982 237.98 880.114 238.291C881.245 238.574 882.327 239.033 883.359 239.67C884.406 240.292 885.382 241.056 886.287 241.961C887.192 242.866 887.955 243.842 888.578 244.888C889.214 245.92 889.681 247.009 889.978 248.155C890.289 249.286 890.303 250.432 890.02 251.591C889.723 252.737 889.115 253.769 888.196 254.689ZM883.635 254.37C884.781 254.385 885.778 253.967 886.626 253.119C887.475 252.27 887.892 251.273 887.878 250.128C887.849 248.968 887.531 247.872 886.923 246.84C886.315 245.807 885.502 244.782 884.484 243.764C883.465 242.746 882.44 241.932 881.408 241.324C880.375 240.716 879.286 240.405 878.141 240.391C876.995 240.377 875.998 240.794 875.15 241.642C874.301 242.491 873.884 243.488 873.898 244.634C873.912 245.779 874.223 246.868 874.832 247.9C875.44 248.933 876.253 249.958 877.271 250.976C878.289 251.994 879.315 252.808 880.347 253.416C881.379 254.024 882.475 254.342 883.635 254.37ZM901.185 241.7C900.251 242.633 899.212 243.248 898.066 243.545C896.921 243.814 895.775 243.8 894.63 243.503C893.499 243.192 892.41 242.725 891.363 242.103C890.331 241.466 889.362 240.696 888.457 239.79C887.552 238.885 886.781 237.917 886.145 236.884C885.522 235.838 885.063 234.756 884.766 233.639C884.469 232.493 884.462 231.355 884.745 230.223C885.027 229.064 885.636 228.017 886.569 227.084C887.488 226.164 888.528 225.563 889.687 225.281C890.833 224.984 891.971 224.991 893.103 225.302C894.234 225.585 895.316 226.044 896.348 226.681C897.395 227.303 898.371 228.067 899.276 228.972C900.181 229.877 900.944 230.853 901.567 231.899C902.203 232.931 902.67 234.02 902.967 235.166C903.278 236.297 903.292 237.443 903.009 238.602C902.712 239.748 902.104 240.78 901.185 241.7ZM896.624 241.381C897.769 241.396 898.767 240.978 899.615 240.13C900.464 239.281 900.881 238.284 900.867 237.139C900.838 235.979 900.52 234.883 899.912 233.851C899.304 232.818 898.491 231.793 897.472 230.775C896.454 229.757 895.429 228.943 894.397 228.335C893.364 227.727 892.275 227.416 891.13 227.402C889.984 227.388 888.987 227.805 888.139 228.654C887.29 229.502 886.873 230.499 886.887 231.645C886.901 232.79 887.212 233.879 887.82 234.911C888.429 235.944 889.242 236.969 890.26 237.987C891.278 239.006 892.304 239.819 893.336 240.427C894.368 241.035 895.464 241.353 896.624 241.381ZM916.015 226.36L914.149 228.227L912.855 221.46C911.978 222.139 911.016 222.45 909.97 222.393C908.937 222.322 907.997 221.863 907.148 221.014C906.243 220.109 905.783 219.07 905.769 217.896C905.755 216.722 906.25 215.633 907.254 214.629L912.664 209.22L922.91 219.466L921.319 221.057L917.352 217.09L914.552 219.89L916.015 226.36ZM912.303 219.338L915.952 215.69L912.473 212.211L908.824 215.859C908.273 216.411 907.997 217.012 907.997 217.663C907.997 218.285 908.258 218.858 908.782 219.381C909.305 219.904 909.885 220.173 910.521 220.187C911.143 220.187 911.737 219.904 912.303 219.338ZM929.971 212.913C928.005 214.879 925.905 215.862 923.671 215.862L923.437 214.059C925.318 214.017 927.058 213.196 928.656 211.598C929.575 210.679 930.141 209.788 930.353 208.925C930.579 208.049 930.424 207.341 929.886 206.804C928.755 205.673 927.114 206.182 924.965 208.331L922.674 210.622L921.38 209.328L923.671 207.037C924.562 206.146 925.148 205.277 925.431 204.428C925.7 203.566 925.552 202.851 924.986 202.286C924.505 201.805 923.833 201.699 922.971 201.967C922.094 202.222 921.224 202.781 920.361 203.643C918.933 205.072 918.226 206.656 918.24 208.395L916.437 208.247C916.409 206.097 917.264 204.152 919.004 202.413C920.39 200.999 921.761 200.108 923.119 199.74C924.477 199.344 925.587 199.577 926.45 200.44C927.157 201.147 927.44 202.01 927.298 203.028C927.171 204.032 926.803 204.923 926.195 205.701C926.973 205.036 927.885 204.605 928.932 204.407C929.992 204.195 930.904 204.471 931.668 205.234C932.545 206.111 932.842 207.257 932.559 208.671C932.276 210.057 931.413 211.471 929.971 212.913ZM926.74 195.144L928.331 193.553L932.297 197.52L936.137 193.68C937.155 192.662 938.251 192.174 939.425 192.216C940.585 192.245 941.61 192.704 942.501 193.595C943.392 194.486 943.852 195.526 943.88 196.714C943.908 197.873 943.42 198.955 942.416 199.959L936.986 205.39L926.74 195.144ZM937.367 195.25L933.698 198.92L937.176 202.399L940.846 198.729C941.412 198.163 941.688 197.576 941.674 196.968C941.66 196.332 941.391 195.752 940.868 195.229C940.344 194.705 939.772 194.444 939.149 194.444C938.527 194.415 937.933 194.684 937.367 195.25ZM948.907 193.468L947.316 195.059L937.07 184.813L938.661 183.222L948.907 193.468ZM961.103 181.272L959.067 183.309L950.772 182.396L950.751 185.769L953.679 188.697L952.088 190.288L941.842 180.042L943.433 178.451L948.884 183.903L948.821 173.063L950.836 171.047L950.942 180.233L961.103 181.272ZM969.774 170.013C969.887 171.965 969.18 173.705 967.653 175.232C966.125 176.759 964.379 177.473 962.413 177.374C960.461 177.261 958.722 176.441 957.194 174.914C955.667 173.386 954.854 171.654 954.755 169.716C954.656 167.751 955.37 166.004 956.897 164.477C958.425 162.949 960.164 162.242 962.116 162.355C964.068 162.44 965.807 163.246 967.334 164.774C968.862 166.301 969.675 168.048 969.774 170.013ZM962.583 175.168C963.969 175.31 965.185 174.857 966.231 173.811C967.278 172.764 967.723 171.555 967.568 170.183C967.398 168.797 966.762 167.553 965.659 166.45C964.555 165.347 963.318 164.717 961.946 164.562C960.574 164.406 959.365 164.852 958.319 165.898C957.272 166.945 956.827 168.168 956.982 169.568C957.138 170.94 957.76 172.17 958.849 173.259C959.952 174.362 961.197 174.999 962.583 175.168ZM980.81 161.565L975.062 167.314L964.816 157.068L970.458 151.425C971.349 150.534 972.29 150.074 973.28 150.046C974.284 150.004 975.182 150.378 975.974 151.17C976.554 151.75 976.893 152.415 976.992 153.164C977.091 153.886 976.978 154.55 976.653 155.159C977.303 154.763 978.046 154.628 978.88 154.755C979.729 154.869 980.443 155.215 981.023 155.795C981.857 156.629 982.26 157.57 982.232 158.616C982.218 159.649 981.744 160.632 980.81 161.565ZM979.092 160.483C979.601 159.974 979.863 159.429 979.877 158.85C979.891 158.27 979.658 157.739 979.177 157.259C978.739 156.82 978.215 156.594 977.607 156.58C976.999 156.566 976.44 156.813 975.931 157.322L972.092 161.162L975.253 164.323L979.092 160.483ZM974.468 155.986C974.948 155.505 975.196 155.003 975.21 154.48C975.21 153.942 974.998 153.461 974.574 153.037C974.121 152.585 973.633 152.365 973.11 152.38C972.573 152.38 972.063 152.62 971.583 153.101L967.807 156.877L970.692 159.762L974.468 155.986Z" fill="black"/>
<path opacity="0.35" d="M432.927 405.507L431.267 403.652L443.718 392.508L439.052 392.377L439.191 390.239L446.378 390.531L447.838 392.163L432.927 405.507ZM443.128 416.905L441.467 415.05L445.245 411.669L438.903 404.582L440.446 403.202L455.758 401.013L458.039 403.561L448.538 412.064L450.418 414.165L448.786 415.626L446.906 413.524L443.128 416.905ZM446.877 410.208L454.657 403.246L442.196 404.977L446.877 410.208ZM453.8 428.83L452.299 427.154L463.097 417.491L464.597 419.167L460.104 423.188L465.145 428.822L469.639 424.801L471.139 426.477L460.342 436.14L458.841 434.464L463.67 430.142L458.628 424.509L453.8 428.83ZM470.88 447.916L469.38 446.239L470.609 445.139C468.797 445.124 467.231 444.378 465.91 442.903C465.017 441.904 464.55 440.738 464.511 439.404C464.472 438.071 465.003 436.911 466.106 435.924C467.239 434.91 468.444 434.502 469.722 434.701C471.028 434.901 472.135 435.507 473.042 436.521C474.415 438.056 474.991 439.688 474.767 441.418L476.712 439.677C477.427 439.037 477.76 438.284 477.709 437.417C477.657 436.55 477.272 435.714 476.552 434.909C475.418 433.643 473.932 432.987 472.093 432.941L472.555 431.118C474.774 431.199 476.658 432.104 478.205 433.833C479.312 435.069 479.914 436.342 480.011 437.651C480.109 438.959 479.539 440.167 478.302 441.274L470.88 447.916ZM467.658 442.426C468.858 443.767 470.192 444.358 471.66 444.199L473.694 442.378C474.015 440.937 473.575 439.546 472.375 438.205C471.681 437.43 470.884 436.989 469.983 436.882C469.111 436.777 468.325 437.038 467.624 437.665C466.939 438.278 466.592 439.031 466.586 439.923C466.607 440.817 466.964 441.651 467.658 442.426ZM484.485 441.39L485.986 443.067L482.946 445.788C481.977 446.655 481.506 447.479 481.534 448.259C481.561 449.04 481.995 449.899 482.835 450.838C483.876 452.001 484.923 452.781 485.978 453.18L491.007 448.678L492.508 450.355L481.71 460.018L480.21 458.341L484.614 454.4C483.283 453.873 482.065 452.991 480.958 451.754C479.704 450.353 479.073 449.079 479.066 447.931C479.072 446.798 479.694 445.678 480.931 444.571L484.485 441.39ZM488.805 468.485C487.364 466.875 486.706 465.09 486.828 463.128C486.966 461.152 487.877 459.411 489.561 457.904C491.141 456.49 492.928 455.803 494.923 455.843C496.933 455.869 498.618 456.643 499.979 458.163C501.406 459.758 501.981 461.51 501.705 463.421C501.458 465.334 500.499 467.037 498.83 468.531L498.405 468.911L490.583 460.17C489.592 461.192 489.052 462.373 488.963 463.713C488.875 465.054 489.33 466.283 490.331 467.401C491.531 468.742 492.979 469.446 494.675 469.512L494.3 471.297C492.21 471.181 490.379 470.243 488.805 468.485ZM498.155 466.156C499.065 465.315 499.612 464.261 499.796 462.997C499.994 461.719 499.586 460.514 498.573 459.381C497.612 458.308 496.487 457.785 495.197 457.813C493.919 457.855 492.791 458.274 491.813 459.07L498.155 466.156ZM500.478 481.529C499.117 480.008 498.664 478.227 499.117 476.184L493.372 481.326L491.871 479.649L506.782 466.305L508.283 467.982L506.673 469.422C507.6 469.318 508.521 469.432 509.437 469.767C510.353 470.101 511.145 470.64 511.812 471.385C513.092 472.816 513.612 474.431 513.37 476.231C513.157 478.032 512.186 479.706 510.457 481.253C508.729 482.8 506.95 483.587 505.121 483.613C503.306 483.654 501.758 482.959 500.478 481.529ZM501.596 479.763C502.543 480.822 503.684 481.317 505.019 481.249C506.369 481.168 507.655 480.581 508.877 479.487C510.099 478.394 510.817 477.187 511.032 475.868C511.247 474.548 510.881 473.359 509.934 472.301C509.361 471.66 508.629 471.188 507.739 470.883C506.878 470.581 506.075 470.494 505.332 470.622L500.458 474.984C500.233 475.722 500.216 476.543 500.407 477.445C500.626 478.35 501.022 479.123 501.596 479.763ZM510.695 492.405L509.194 490.728L518.516 482.386L515.715 479.256L517.191 477.936L524.313 485.894L522.838 487.214L520.017 484.062L510.695 492.405ZM523.025 506.183L521.525 504.507L522.754 503.406C520.942 503.391 519.376 502.645 518.056 501.17C517.162 500.171 516.695 499.005 516.656 497.672C516.617 496.338 517.148 495.178 518.251 494.191C519.384 493.177 520.589 492.77 521.867 492.968C523.173 493.168 524.28 493.775 525.187 494.788C526.561 496.323 527.136 497.955 526.912 499.685L528.857 497.945C529.573 497.304 529.905 496.551 529.854 495.684C529.803 494.817 529.417 493.981 528.697 493.177C527.563 491.91 526.077 491.254 524.238 491.209L524.7 489.386C526.92 489.466 528.803 490.371 530.35 492.1C531.457 493.337 532.059 494.61 532.157 495.918C532.254 497.227 531.684 498.434 530.447 499.541L523.025 506.183ZM519.803 500.693C521.003 502.035 522.337 502.625 523.805 502.466L525.839 500.645C526.16 499.204 525.72 497.813 524.52 496.472C523.826 495.697 523.029 495.256 522.129 495.15C521.256 495.045 520.47 495.305 519.769 495.932C519.084 496.546 518.738 497.299 518.731 498.19C518.752 499.084 519.109 499.918 519.803 500.693ZM527.534 511.221L526.033 509.544L536.831 499.881L538.331 501.558L533.838 505.579L538.879 511.213L543.373 507.191L544.873 508.868L534.076 518.531L532.575 516.854L537.404 512.533L532.362 506.9L527.534 511.221ZM538.512 523.488L537.072 521.879L547.869 512.216L549.37 513.892L541.121 521.275L554.431 519.548L555.912 521.203L545.114 530.866L543.614 529.189L552.019 521.667L538.512 523.488ZM549.551 535.823L548.11 534.213L558.908 524.55L560.408 526.227L552.159 533.609L565.47 531.883L566.95 533.537L556.153 543.2L554.652 541.524L563.058 534.001L549.551 535.823ZM569.627 530.095C567.449 530.3 565.626 529.583 564.159 527.943C562.705 526.319 562.187 524.421 562.605 522.248L564.06 522.435C563.681 524.171 564.071 525.687 565.232 526.983C566.405 528.295 567.862 528.843 569.602 528.628L569.627 530.095Z" fill="black"/>
<line opacity="0.35" x1="35.3688" y1="0.662346" x2="697.369" y2="723.662" stroke="black" stroke-dasharray="4 4"/>
<line opacity="0.35" x1="992.479" y1="8.85541" x2="1208.48" y2="723.855" stroke="black" stroke-dasharray="4 4"/>
<line opacity="0.35" x1="476.439" y1="0.761522" x2="864.44" y2="715.762" stroke="black" stroke-dasharray="4 4"/>
<line opacity="0.35" x1="286.465" y1="1.18392" x2="0.464882" y2="724.184" stroke="black" stroke-dasharray="4 4"/>
<line opacity="0.35" x1="1165.35" y1="1.35404" x2="440.353" y2="724.354" stroke="black" stroke-dasharray="4 4"/>
</svg>
