<svg width="1310" height="707" viewBox="0 0 1310 707" fill="none" xmlns="http://www.w3.org/2000/svg">
<path d="M56.4 466H21.3V265.9H158.4V296.8H56.4V466ZM224.857 466H189.757V265.9H277.657C297.857 265.9 313.757 271.9 325.357 283.9C337.157 295.9 343.057 310.8 343.057 328.6C343.057 346.2 337.157 361.1 325.357 373.3C313.757 385.3 297.857 391.3 277.657 391.3H224.857V466ZM272.857 360.4C282.857 360.4 291.057 357.5 297.457 351.7C303.857 345.9 307.057 338.2 307.057 328.6C307.057 319 303.857 311.3 297.457 305.5C291.057 299.7 282.857 296.8 272.857 296.8H224.857V360.4H272.857ZM539.077 440.5C519.877 459.9 495.377 469.6 465.577 469.6C435.777 469.6 411.277 459.9 392.077 440.5C372.877 420.9 363.277 396.1 363.277 366.1C363.277 336.1 372.877 311.4 392.077 292C411.277 272.4 435.777 262.6 465.577 262.6C495.377 262.6 519.877 272.4 539.077 292C558.277 311.4 567.877 336.1 567.877 366.1C567.877 396.1 558.277 420.9 539.077 440.5ZM465.577 438.4C485.377 438.4 501.377 431.6 513.577 418C525.777 404.2 531.877 386.9 531.877 366.1C531.877 345.1 525.777 327.8 513.577 314.2C501.377 300.6 485.377 293.8 465.577 293.8C445.577 293.8 429.477 300.6 417.277 314.2C405.277 327.8 399.277 345.1 399.277 366.1C399.277 387.1 405.277 404.4 417.277 418C429.477 431.6 445.577 438.4 465.577 438.4ZM676.854 466H641.754V296.8H581.154V265.9H737.454V296.8H676.854V466ZM904.298 466H767.198V265.9H904.298V296.8H802.298V348.7H902.198V379.6H802.298V435.1H904.298V466ZM1036.34 469.6C1006.34 469.6 981.343 460 961.343 440.8C941.343 421.4 931.343 396.5 931.343 366.1C931.343 335.7 941.343 310.9 961.343 291.7C981.343 272.3 1006.34 262.6 1036.34 262.6C1071.14 262.6 1097.94 277.6 1116.74 307.6L1086.74 322.9C1081.74 314.3 1074.64 307.3 1065.44 301.9C1056.44 296.5 1046.74 293.8 1036.34 293.8C1016.54 293.8 1000.04 300.6 986.843 314.2C973.843 327.8 967.343 345.1 967.343 366.1C967.343 387.1 973.843 404.4 986.843 418C1000.04 431.6 1016.54 438.4 1036.34 438.4C1046.94 438.4 1056.74 435.7 1065.74 430.3C1074.74 424.9 1081.74 417.9 1086.74 409.3L1116.74 424.6C1097.54 454.6 1070.74 469.6 1036.34 469.6ZM1307.74 466H1264.54L1197.34 381.7L1179.94 402.1V466H1144.84V265.9H1179.94V361.3L1258.24 265.9H1301.74L1220.44 360.4L1307.74 466Z" fill="black"/>
<path d="M35.36 224.68V228.36H24.92V244H20.72V224.68H35.36ZM47.7259 244.48C44.7926 244.48 42.3659 243.547 40.4459 241.68C38.5526 239.787 37.6059 237.333 37.6059 234.32C37.6059 231.493 38.5259 229.107 40.3659 227.16C42.2326 225.187 44.5793 224.2 47.4059 224.2C50.2593 224.2 52.5526 225.187 54.2859 227.16C56.0459 229.133 56.9259 231.653 56.9259 234.72V235.72H42.0059C42.1659 237.24 42.7926 238.507 43.8859 239.52C44.9793 240.533 46.4059 241.04 48.1659 241.04C49.1526 241.04 50.1393 240.853 51.1259 240.48C52.1393 240.107 52.9793 239.587 53.6459 238.92L55.5659 241.68C53.6193 243.547 51.0059 244.48 47.7259 244.48ZM52.8459 232.76C52.7926 231.427 52.2993 230.24 51.3659 229.2C50.4593 228.16 49.1393 227.64 47.4059 227.64C45.7526 227.64 44.4593 228.16 43.5259 229.2C42.5926 230.213 42.0726 231.4 41.9659 232.76H52.8459ZM69.7916 244.48C66.8049 244.48 64.4049 243.507 62.5916 241.56C60.7782 239.587 59.8716 237.173 59.8716 234.32C59.8716 231.467 60.7782 229.067 62.5916 227.12C64.4049 225.173 66.8049 224.2 69.7916 224.2C72.8049 224.2 75.2182 225.173 77.0316 227.12C78.8449 229.067 79.7516 231.467 79.7516 234.32C79.7516 237.2 78.8449 239.613 77.0316 241.56C75.2182 243.507 72.8049 244.48 69.7916 244.48ZM69.7916 240.76C71.5249 240.76 72.8849 240.147 73.8716 238.92C74.8849 237.667 75.3916 236.133 75.3916 234.32C75.3916 232.533 74.8849 231.027 73.8716 229.8C72.8849 228.547 71.5249 227.92 69.7916 227.92C68.0849 227.92 66.7249 228.547 65.7116 229.8C64.7249 231.027 64.2316 232.533 64.2316 234.32C64.2316 236.133 64.7249 237.667 65.7116 238.92C66.7249 240.147 68.0849 240.76 69.7916 240.76ZM105.641 244H101.441V230.56L95.6813 244H94.0013L88.2013 230.56V244H84.0013V224.68H89.4813L94.8413 237.16L100.121 224.68H105.641V244ZM119.992 244.48C117.058 244.48 114.632 243.547 112.712 241.68C110.818 239.787 109.872 237.333 109.872 234.32C109.872 231.493 110.792 229.107 112.632 227.16C114.498 225.187 116.845 224.2 119.672 224.2C122.525 224.2 124.818 225.187 126.552 227.16C128.312 229.133 129.192 231.653 129.192 234.72V235.72H114.272C114.432 237.24 115.058 238.507 116.152 239.52C117.245 240.533 118.672 241.04 120.432 241.04C121.418 241.04 122.405 240.853 123.392 240.48C124.405 240.107 125.245 239.587 125.912 238.92L127.832 241.68C125.885 243.547 123.272 244.48 119.992 244.48ZM125.112 232.76C125.058 231.427 124.565 230.24 123.632 229.2C122.725 228.16 121.405 227.64 119.672 227.64C118.018 227.64 116.725 228.16 115.792 229.2C114.858 230.213 114.338 231.4 114.232 232.76H125.112ZM141.057 244H136.857V228.36H131.337V224.68H146.617V228.36H141.057V244ZM160.456 244.48C157.896 244.48 155.829 243.427 154.256 241.32V251.36H150.056V224.68H154.256V227.32C155.803 225.24 157.869 224.2 160.456 224.2C162.989 224.2 165.043 225.107 166.616 226.92C168.216 228.733 169.016 231.2 169.016 234.32C169.016 237.44 168.216 239.92 166.616 241.76C165.043 243.573 162.989 244.48 160.456 244.48ZM159.216 240.76C160.869 240.76 162.189 240.16 163.176 238.96C164.163 237.76 164.656 236.213 164.656 234.32C164.656 232.427 164.163 230.893 163.176 229.72C162.189 228.52 160.869 227.92 159.216 227.92C158.256 227.92 157.309 228.173 156.376 228.68C155.443 229.187 154.736 229.8 154.256 230.52V238.16C154.736 238.88 155.443 239.493 156.376 240C157.309 240.507 158.256 240.76 159.216 240.76ZM177.221 244H173.181V224.68H177.381V237.68L186.261 224.68H190.461V244H186.261V230.64L177.221 244ZM195.235 224.68H199.435V229.88C199.435 231.32 199.795 232.333 200.515 232.92C201.262 233.507 202.435 233.8 204.035 233.8C205.769 233.8 207.182 233.56 208.275 233.08V224.68H212.475V244H208.275V236.48C206.889 237.173 205.035 237.52 202.715 237.52C200.075 237.52 198.169 237.013 196.995 236C195.822 234.987 195.235 233.453 195.235 231.4V224.68ZM226.828 244.48C223.894 244.48 221.468 243.547 219.548 241.68C217.654 239.787 216.708 237.333 216.708 234.32C216.708 231.493 217.628 229.107 219.468 227.16C221.334 225.187 223.681 224.2 226.508 224.2C229.361 224.2 231.654 225.187 233.388 227.16C235.148 229.133 236.028 231.653 236.028 234.72V235.72H221.108C221.268 237.24 221.894 238.507 222.988 239.52C224.081 240.533 225.508 241.04 227.268 241.04C228.254 241.04 229.241 240.853 230.228 240.48C231.241 240.107 232.081 239.587 232.748 238.92L234.668 241.68C232.721 243.547 230.108 244.48 226.828 244.48ZM231.948 232.76C231.894 231.427 231.401 230.24 230.468 229.2C229.561 228.16 228.241 227.64 226.508 227.64C224.854 227.64 223.561 228.16 222.628 229.2C221.694 230.213 221.174 231.4 221.067 232.76H231.948ZM248.973 244.48C246.04 244.48 243.64 243.533 241.773 241.64C239.906 239.72 238.973 237.28 238.973 234.32C238.973 231.387 239.906 228.973 241.773 227.08C243.64 225.16 246.04 224.2 248.973 224.2C252.2 224.2 254.666 225.347 256.373 227.64L253.613 230.2C252.546 228.68 251.066 227.92 249.173 227.92C247.413 227.92 246 228.52 244.933 229.72C243.866 230.893 243.333 232.427 243.333 234.32C243.333 236.213 243.866 237.76 244.933 238.96C246 240.16 247.413 240.76 249.173 240.76C251.013 240.76 252.493 240 253.613 238.48L256.373 241.04C254.666 243.333 252.2 244.48 248.973 244.48ZM278.136 244H272.856L266.936 236.04L264.256 238.8V244H260.056V224.68H264.256V234L272.776 224.68H277.976L269.936 233.44L278.136 244ZM285.151 244H281.111V224.68H285.311V237.68L294.191 224.68H298.391V244H294.191V230.64L285.151 244ZM307.885 244H303.845V224.68H308.045V237.68L316.925 224.68H321.125V244H316.925V230.64L307.885 244ZM319.485 219.12C317.752 221.467 315.418 222.64 312.485 222.64C309.578 222.64 307.232 221.467 305.445 219.12L307.365 217.52C308.645 219.28 310.352 220.16 312.485 220.16C314.618 220.16 316.312 219.28 317.565 217.52L319.485 219.12Z" fill="black"/>
<line opacity="0.3" x1="22" y1="-4.37114e-08" x2="22" y2="707" stroke="black" stroke-width="2" stroke-dasharray="5 5"/>
<line opacity="0.3" x1="55" y1="-3.76445e-08" x2="55" y2="707" stroke="black" stroke-width="2" stroke-dasharray="5 5"/>
<line opacity="0.3" x1="125" y1="-3.76445e-08" x2="125" y2="707" stroke="black" stroke-width="2" stroke-dasharray="5 5"/>
<line opacity="0.3" x1="158" y1="-3.76445e-08" x2="158" y2="707" stroke="black" stroke-width="2" stroke-dasharray="5 5"/>
<line opacity="0.3" x1="191" y1="-3.76445e-08" x2="191" y2="707" stroke="black" stroke-width="2" stroke-dasharray="5 5"/>
<line opacity="0.3" x1="224" y1="-3.76445e-08" x2="224" y2="707" stroke="black" stroke-width="2" stroke-dasharray="5 5"/>
<line opacity="0.3" x1="309" y1="-3.76445e-08" x2="309" y2="707" stroke="black" stroke-width="2" stroke-dasharray="5 5"/>
<line opacity="0.3" x1="343" y1="-3.76445e-08" x2="343" y2="707" stroke="black" stroke-width="2" stroke-dasharray="5 5"/>
<line opacity="0.3" x1="364" y1="-3.76445e-08" x2="364" y2="707" stroke="black" stroke-width="2" stroke-dasharray="5 5"/>
<line opacity="0.3" x1="398" y1="-3.76445e-08" x2="398" y2="707" stroke="black" stroke-width="2" stroke-dasharray="5 5"/>
<line opacity="0.3" x1="534" y1="-3.76445e-08" x2="534" y2="707" stroke="black" stroke-width="2" stroke-dasharray="5 5"/>
<line opacity="0.3" x1="568" y1="-3.76445e-08" x2="568" y2="707" stroke="black" stroke-width="2" stroke-dasharray="5 5"/>
<line opacity="0.3" x1="643" y1="-3.76445e-08" x2="643" y2="707" stroke="black" stroke-width="2" stroke-dasharray="5 5"/>
<line opacity="0.3" x1="676" y1="-3.76445e-08" x2="676" y2="707" stroke="black" stroke-width="2" stroke-dasharray="5 5"/>
<line opacity="0.3" x1="768" y1="-3.76445e-08" x2="768" y2="707" stroke="black" stroke-width="2" stroke-dasharray="5 5"/>
<line opacity="0.3" x1="802" y1="-3.76445e-08" x2="802" y2="707" stroke="black" stroke-width="2" stroke-dasharray="5 5"/>
<line opacity="0.3" x1="932" y1="-3.76445e-08" x2="932" y2="707" stroke="black" stroke-width="2" stroke-dasharray="5 5"/>
<line opacity="0.3" x1="966" y1="-3.76445e-08" x2="966" y2="707" stroke="black" stroke-width="2" stroke-dasharray="5 5"/>
<line opacity="0.3" x1="871" y1="-3.76445e-08" x2="871" y2="707" stroke="black" stroke-width="2" stroke-dasharray="5 5"/>
<line opacity="0.3" x1="905" y1="-3.76445e-08" x2="905" y2="707" stroke="black" stroke-width="2" stroke-dasharray="5 5"/>
<line opacity="0.3" x1="1088" y1="-4.41349e-08" x2="1088" y2="707" stroke="black" stroke-width="2" stroke-dasharray="5 5"/>
<line opacity="0.3" x1="1117" y1="-3.76445e-08" x2="1117" y2="707" stroke="black" stroke-width="2" stroke-dasharray="5 5"/>
<line opacity="0.3" x1="1146" y1="-3.76445e-08" x2="1146" y2="707" stroke="black" stroke-width="2" stroke-dasharray="5 5"/>
<line opacity="0.3" x1="1179" y1="-3.76445e-08" x2="1179" y2="707" stroke="black" stroke-width="2" stroke-dasharray="5 5"/>
<line opacity="0.3" x1="1272" y1="-3.76445e-08" x2="1272" y2="707" stroke="black" stroke-width="2" stroke-dasharray="5 5"/>
<line opacity="0.3" x1="1306" y1="-3.76445e-08" x2="1306" y2="707" stroke="black" stroke-width="2" stroke-dasharray="5 5"/>
<path d="M25.14 539.18C24.29 539.18 23.535 539.03 22.875 538.73C22.225 538.43 21.72 538.04 21.36 537.56L22.305 536.405C22.625 536.775 23.035 537.07 23.535 537.29C24.035 537.51 24.55 537.62 25.08 537.62C25.73 537.62 26.24 537.485 26.61 537.215C26.98 536.935 27.165 536.56 27.165 536.09C27.165 535.15 26.425 534.68 24.945 534.68C24.275 534.68 23.89 534.685 23.79 534.695V533.12C23.91 533.13 24.295 533.135 24.945 533.135C25.565 533.135 26.06 533.025 26.43 532.805C26.81 532.585 27 532.255 27 531.815C27 531.365 26.81 531.02 26.43 530.78C26.05 530.53 25.565 530.405 24.975 530.405C23.995 530.405 23.135 530.775 22.395 531.515L21.495 530.42C22.385 529.37 23.6 528.845 25.14 528.845C26.23 528.845 27.105 529.09 27.765 529.58C28.425 530.06 28.755 530.715 28.755 531.545C28.755 532.165 28.535 532.68 28.095 533.09C27.665 533.49 27.16 533.74 26.58 533.84C27.15 533.89 27.68 534.13 28.17 534.56C28.66 534.99 28.905 535.56 28.905 536.27C28.905 537.13 28.56 537.83 27.87 538.37C27.19 538.91 26.28 539.18 25.14 539.18ZM33.7533 539.18C32.9033 539.18 32.1483 539.03 31.4883 538.73C30.8383 538.43 30.3333 538.04 29.9733 537.56L30.9183 536.405C31.2383 536.775 31.6483 537.07 32.1483 537.29C32.6483 537.51 33.1633 537.62 33.6933 537.62C34.3433 537.62 34.8533 537.485 35.2233 537.215C35.5933 536.935 35.7783 536.56 35.7783 536.09C35.7783 535.15 35.0383 534.68 33.5583 534.68C32.8883 534.68 32.5033 534.685 32.4033 534.695V533.12C32.5233 533.13 32.9083 533.135 33.5583 533.135C34.1783 533.135 34.6733 533.025 35.0433 532.805C35.4233 532.585 35.6133 532.255 35.6133 531.815C35.6133 531.365 35.4233 531.02 35.0433 530.78C34.6633 530.53 34.1783 530.405 33.5883 530.405C32.6083 530.405 31.7483 530.775 31.0083 531.515L30.1083 530.42C30.9983 529.37 32.2133 528.845 33.7533 528.845C34.8433 528.845 35.7183 529.09 36.3783 529.58C37.0383 530.06 37.3683 530.715 37.3683 531.545C37.3683 532.165 37.1483 532.68 36.7083 533.09C36.2783 533.49 35.7733 533.74 35.1933 533.84C35.7633 533.89 36.2933 534.13 36.7833 534.56C37.2733 534.99 37.5183 535.56 37.5183 536.27C37.5183 537.13 37.1733 537.83 36.4833 538.37C35.8033 538.91 34.8933 539.18 33.7533 539.18ZM43.1466 539.18C42.1866 539.18 41.4116 538.785 40.8216 537.995V541.76H39.2466V531.755H40.8216V532.745C41.4016 531.965 42.1766 531.575 43.1466 531.575C44.0966 531.575 44.8666 531.915 45.4566 532.595C46.0566 533.275 46.3566 534.2 46.3566 535.37C46.3566 536.54 46.0566 537.47 45.4566 538.16C44.8666 538.84 44.0966 539.18 43.1466 539.18ZM42.6816 537.785C43.3016 537.785 43.7966 537.56 44.1666 537.11C44.5366 536.66 44.7216 536.08 44.7216 535.37C44.7216 534.66 44.5366 534.085 44.1666 533.645C43.7966 533.195 43.3016 532.97 42.6816 532.97C42.3216 532.97 41.9666 533.065 41.6166 533.255C41.2666 533.445 41.0016 533.675 40.8216 533.945V536.81C41.0016 537.08 41.2666 537.31 41.6166 537.5C41.9666 537.69 42.3216 537.785 42.6816 537.785ZM53.7361 539H51.9661L50.0911 536.33L48.2011 539H46.4461L49.1011 535.28L46.5961 531.755H48.3661L50.0911 534.215L51.8011 531.755H53.5711L51.0661 535.28L53.7361 539Z" fill="black"/>
<line x1="20" y1="550" x2="55" y2="550" stroke="black" stroke-width="2"/>
<line x1="49.7593" y1="543.349" x2="55.7593" y2="550.349" stroke="black" stroke-width="2"/>
<line y1="-1" x2="9.21954" y2="-1" transform="matrix(0.650791 -0.759257 -0.759257 -0.650791 49 555)" stroke="black" stroke-width="2"/>
<line x1="25.2407" y1="555.651" x2="19.2407" y2="548.651" stroke="black" stroke-width="2"/>
<line y1="-1" x2="9.21954" y2="-1" transform="matrix(-0.650791 0.759257 0.759257 0.650791 26 544)" stroke="black" stroke-width="2"/>
<path d="M196.14 539.18C195.29 539.18 194.535 539.03 193.875 538.73C193.225 538.43 192.72 538.04 192.36 537.56L193.305 536.405C193.625 536.775 194.035 537.07 194.535 537.29C195.035 537.51 195.55 537.62 196.08 537.62C196.73 537.62 197.24 537.485 197.61 537.215C197.98 536.935 198.165 536.56 198.165 536.09C198.165 535.15 197.425 534.68 195.945 534.68C195.275 534.68 194.89 534.685 194.79 534.695V533.12C194.91 533.13 195.295 533.135 195.945 533.135C196.565 533.135 197.06 533.025 197.43 532.805C197.81 532.585 198 532.255 198 531.815C198 531.365 197.81 531.02 197.43 530.78C197.05 530.53 196.565 530.405 195.975 530.405C194.995 530.405 194.135 530.775 193.395 531.515L192.495 530.42C193.385 529.37 194.6 528.845 196.14 528.845C197.23 528.845 198.105 529.09 198.765 529.58C199.425 530.06 199.755 530.715 199.755 531.545C199.755 532.165 199.535 532.68 199.095 533.09C198.665 533.49 198.16 533.74 197.58 533.84C198.15 533.89 198.68 534.13 199.17 534.56C199.66 534.99 199.905 535.56 199.905 536.27C199.905 537.13 199.56 537.83 198.87 538.37C198.19 538.91 197.28 539.18 196.14 539.18ZM204.753 539.18C203.903 539.18 203.148 539.03 202.488 538.73C201.838 538.43 201.333 538.04 200.973 537.56L201.918 536.405C202.238 536.775 202.648 537.07 203.148 537.29C203.648 537.51 204.163 537.62 204.693 537.62C205.343 537.62 205.853 537.485 206.223 537.215C206.593 536.935 206.778 536.56 206.778 536.09C206.778 535.15 206.038 534.68 204.558 534.68C203.888 534.68 203.503 534.685 203.403 534.695V533.12C203.523 533.13 203.908 533.135 204.558 533.135C205.178 533.135 205.673 533.025 206.043 532.805C206.423 532.585 206.613 532.255 206.613 531.815C206.613 531.365 206.423 531.02 206.043 530.78C205.663 530.53 205.178 530.405 204.588 530.405C203.608 530.405 202.748 530.775 202.008 531.515L201.108 530.42C201.998 529.37 203.213 528.845 204.753 528.845C205.843 528.845 206.718 529.09 207.378 529.58C208.038 530.06 208.368 530.715 208.368 531.545C208.368 532.165 208.148 532.68 207.708 533.09C207.278 533.49 206.773 533.74 206.193 533.84C206.763 533.89 207.293 534.13 207.783 534.56C208.273 534.99 208.518 535.56 208.518 536.27C208.518 537.13 208.173 537.83 207.483 538.37C206.803 538.91 205.893 539.18 204.753 539.18ZM214.147 539.18C213.187 539.18 212.412 538.785 211.822 537.995V541.76H210.247V531.755H211.822V532.745C212.402 531.965 213.177 531.575 214.147 531.575C215.097 531.575 215.867 531.915 216.457 532.595C217.057 533.275 217.357 534.2 217.357 535.37C217.357 536.54 217.057 537.47 216.457 538.16C215.867 538.84 215.097 539.18 214.147 539.18ZM213.682 537.785C214.302 537.785 214.797 537.56 215.167 537.11C215.537 536.66 215.722 536.08 215.722 535.37C215.722 534.66 215.537 534.085 215.167 533.645C214.797 533.195 214.302 532.97 213.682 532.97C213.322 532.97 212.967 533.065 212.617 533.255C212.267 533.445 212.002 533.675 211.822 533.945V536.81C212.002 537.08 212.267 537.31 212.617 537.5C212.967 537.69 213.322 537.785 213.682 537.785ZM224.736 539H222.966L221.091 536.33L219.201 539H217.446L220.101 535.28L217.596 531.755H219.366L221.091 534.215L222.801 531.755H224.571L222.066 535.28L224.736 539Z" fill="black"/>
<line x1="191" y1="550" x2="226" y2="550" stroke="black" stroke-width="2"/>
<line x1="220.759" y1="543.349" x2="226.759" y2="550.349" stroke="black" stroke-width="2"/>
<line y1="-1" x2="9.21954" y2="-1" transform="matrix(0.650791 -0.759257 -0.759257 -0.650791 220 555)" stroke="black" stroke-width="2"/>
<line x1="196.241" y1="555.651" x2="190.241" y2="548.651" stroke="black" stroke-width="2"/>
<line y1="-1" x2="9.21954" y2="-1" transform="matrix(-0.650791 0.759257 0.759257 0.650791 197 544)" stroke="black" stroke-width="2"/>
<path d="M368.14 539.18C367.29 539.18 366.535 539.03 365.875 538.73C365.225 538.43 364.72 538.04 364.36 537.56L365.305 536.405C365.625 536.775 366.035 537.07 366.535 537.29C367.035 537.51 367.55 537.62 368.08 537.62C368.73 537.62 369.24 537.485 369.61 537.215C369.98 536.935 370.165 536.56 370.165 536.09C370.165 535.15 369.425 534.68 367.945 534.68C367.275 534.68 366.89 534.685 366.79 534.695V533.12C366.91 533.13 367.295 533.135 367.945 533.135C368.565 533.135 369.06 533.025 369.43 532.805C369.81 532.585 370 532.255 370 531.815C370 531.365 369.81 531.02 369.43 530.78C369.05 530.53 368.565 530.405 367.975 530.405C366.995 530.405 366.135 530.775 365.395 531.515L364.495 530.42C365.385 529.37 366.6 528.845 368.14 528.845C369.23 528.845 370.105 529.09 370.765 529.58C371.425 530.06 371.755 530.715 371.755 531.545C371.755 532.165 371.535 532.68 371.095 533.09C370.665 533.49 370.16 533.74 369.58 533.84C370.15 533.89 370.68 534.13 371.17 534.56C371.66 534.99 371.905 535.56 371.905 536.27C371.905 537.13 371.56 537.83 370.87 538.37C370.19 538.91 369.28 539.18 368.14 539.18ZM376.753 539.18C375.903 539.18 375.148 539.03 374.488 538.73C373.838 538.43 373.333 538.04 372.973 537.56L373.918 536.405C374.238 536.775 374.648 537.07 375.148 537.29C375.648 537.51 376.163 537.62 376.693 537.62C377.343 537.62 377.853 537.485 378.223 537.215C378.593 536.935 378.778 536.56 378.778 536.09C378.778 535.15 378.038 534.68 376.558 534.68C375.888 534.68 375.503 534.685 375.403 534.695V533.12C375.523 533.13 375.908 533.135 376.558 533.135C377.178 533.135 377.673 533.025 378.043 532.805C378.423 532.585 378.613 532.255 378.613 531.815C378.613 531.365 378.423 531.02 378.043 530.78C377.663 530.53 377.178 530.405 376.588 530.405C375.608 530.405 374.748 530.775 374.008 531.515L373.108 530.42C373.998 529.37 375.213 528.845 376.753 528.845C377.843 528.845 378.718 529.09 379.378 529.58C380.038 530.06 380.368 530.715 380.368 531.545C380.368 532.165 380.148 532.68 379.708 533.09C379.278 533.49 378.773 533.74 378.193 533.84C378.763 533.89 379.293 534.13 379.783 534.56C380.273 534.99 380.518 535.56 380.518 536.27C380.518 537.13 380.173 537.83 379.483 538.37C378.803 538.91 377.893 539.18 376.753 539.18ZM386.147 539.18C385.187 539.18 384.412 538.785 383.822 537.995V541.76H382.247V531.755H383.822V532.745C384.402 531.965 385.177 531.575 386.147 531.575C387.097 531.575 387.867 531.915 388.457 532.595C389.057 533.275 389.357 534.2 389.357 535.37C389.357 536.54 389.057 537.47 388.457 538.16C387.867 538.84 387.097 539.18 386.147 539.18ZM385.682 537.785C386.302 537.785 386.797 537.56 387.167 537.11C387.537 536.66 387.722 536.08 387.722 535.37C387.722 534.66 387.537 534.085 387.167 533.645C386.797 533.195 386.302 532.97 385.682 532.97C385.322 532.97 384.967 533.065 384.617 533.255C384.267 533.445 384.002 533.675 383.822 533.945V536.81C384.002 537.08 384.267 537.31 384.617 537.5C384.967 537.69 385.322 537.785 385.682 537.785ZM396.736 539H394.966L393.091 536.33L391.201 539H389.446L392.101 535.28L389.596 531.755H391.366L393.091 534.215L394.801 531.755H396.571L394.066 535.28L396.736 539Z" fill="black"/>
<line x1="363" y1="550" x2="398" y2="550" stroke="black" stroke-width="2"/>
<line x1="392.759" y1="543.349" x2="398.759" y2="550.349" stroke="black" stroke-width="2"/>
<line y1="-1" x2="9.21954" y2="-1" transform="matrix(0.650791 -0.759257 -0.759257 -0.650791 392 555)" stroke="black" stroke-width="2"/>
<line x1="368.241" y1="555.651" x2="362.241" y2="548.651" stroke="black" stroke-width="2"/>
<line y1="-1" x2="9.21954" y2="-1" transform="matrix(-0.650791 0.759257 0.759257 0.650791 369 544)" stroke="black" stroke-width="2"/>
<line x1="364" y1="185" x2="566" y2="185" stroke="black" stroke-width="2"/>
<line x1="561.759" y1="178.349" x2="567.759" y2="185.349" stroke="black" stroke-width="2"/>
<line y1="-1" x2="9.21954" y2="-1" transform="matrix(0.650791 -0.759257 -0.759257 -0.650791 561 190)" stroke="black" stroke-width="2"/>
<line x1="369.241" y1="190.651" x2="363.241" y2="183.651" stroke="black" stroke-width="2"/>
<line y1="-1" x2="9.21954" y2="-1" transform="matrix(-0.650791 0.759257 0.759257 0.650791 370 179)" stroke="black" stroke-width="2"/>
<path d="M451.995 178H444.75V176.62C446.84 175.04 448.26 173.87 449.01 173.11C449.77 172.34 450.15 171.615 450.15 170.935C450.15 170.445 449.97 170.07 449.61 169.81C449.26 169.54 448.835 169.405 448.335 169.405C447.235 169.405 446.335 169.805 445.635 170.605L444.615 169.45C445.045 168.93 445.585 168.535 446.235 168.265C446.895 167.985 447.585 167.845 448.305 167.845C449.325 167.845 450.185 168.12 450.885 168.67C451.585 169.22 451.935 169.975 451.935 170.935C451.935 171.795 451.575 172.65 450.855 173.5C450.135 174.35 449.035 175.335 447.555 176.455H451.995V178ZM459.341 177.73C458.811 178.03 458.211 178.18 457.541 178.18C456.871 178.18 456.271 178.03 455.741 177.73C455.211 177.43 454.791 177.03 454.481 176.53C454.171 176.03 453.936 175.48 453.776 174.88C453.616 174.28 453.536 173.655 453.536 173.005C453.536 172.355 453.616 171.73 453.776 171.13C453.936 170.53 454.171 169.985 454.481 169.495C454.791 168.995 455.211 168.595 455.741 168.295C456.271 167.995 456.871 167.845 457.541 167.845C458.211 167.845 458.811 167.995 459.341 168.295C459.871 168.595 460.291 168.995 460.601 169.495C460.911 169.985 461.146 170.53 461.306 171.13C461.466 171.73 461.546 172.355 461.546 173.005C461.546 173.655 461.466 174.28 461.306 174.88C461.146 175.48 460.911 176.03 460.601 176.53C460.291 177.03 459.871 177.43 459.341 177.73ZM455.861 175.6C456.221 176.28 456.781 176.62 457.541 176.62C458.301 176.62 458.861 176.28 459.221 175.6C459.581 174.92 459.761 174.055 459.761 173.005C459.761 172.335 459.691 171.74 459.551 171.22C459.421 170.7 459.181 170.27 458.831 169.93C458.491 169.58 458.061 169.405 457.541 169.405C457.021 169.405 456.586 169.58 456.236 169.93C455.896 170.27 455.656 170.7 455.516 171.22C455.386 171.74 455.321 172.335 455.321 173.005C455.321 174.055 455.501 174.92 455.861 175.6ZM466.724 178.18C465.114 178.18 463.874 177.665 463.004 176.635L464.009 175.435C464.709 176.225 465.609 176.62 466.709 176.62C467.329 176.62 467.824 176.455 468.194 176.125C468.574 175.785 468.764 175.365 468.764 174.865C468.764 174.325 468.579 173.895 468.209 173.575C467.849 173.245 467.364 173.08 466.754 173.08C465.904 173.08 465.174 173.37 464.564 173.95L463.319 173.59V167.995H469.874V169.54H465.074V172.435C465.654 171.855 466.409 171.565 467.339 171.565C468.219 171.565 468.969 171.86 469.589 172.45C470.219 173.03 470.534 173.81 470.534 174.79C470.534 175.82 470.179 176.645 469.469 177.265C468.769 177.875 467.854 178.18 466.724 178.18ZM476.078 178.18C475.118 178.18 474.343 177.785 473.753 176.995V180.76H472.178V170.755H473.753V171.745C474.333 170.965 475.108 170.575 476.078 170.575C477.028 170.575 477.798 170.915 478.388 171.595C478.988 172.275 479.288 173.2 479.288 174.37C479.288 175.54 478.988 176.47 478.388 177.16C477.798 177.84 477.028 178.18 476.078 178.18ZM475.613 176.785C476.233 176.785 476.728 176.56 477.098 176.11C477.468 175.66 477.653 175.08 477.653 174.37C477.653 173.66 477.468 173.085 477.098 172.645C476.728 172.195 476.233 171.97 475.613 171.97C475.253 171.97 474.898 172.065 474.548 172.255C474.198 172.445 473.933 172.675 473.753 172.945V175.81C473.933 176.08 474.198 176.31 474.548 176.5C474.898 176.69 475.253 176.785 475.613 176.785ZM486.668 178H484.898L483.023 175.33L481.133 178H479.378L482.033 174.28L479.528 170.755H481.298L483.023 173.215L484.733 170.755H486.503L483.998 174.28L486.668 178Z" fill="black"/>
<line x1="933" y1="185" x2="1087" y2="185" stroke="black" stroke-width="2"/>
<line x1="1082.76" y1="178.349" x2="1088.76" y2="185.349" stroke="black" stroke-width="2"/>
<line y1="-1" x2="9.21954" y2="-1" transform="matrix(0.650791 -0.759257 -0.759257 -0.650791 1082 190)" stroke="black" stroke-width="2"/>
<line x1="938.241" y1="190.651" x2="932.241" y2="183.651" stroke="black" stroke-width="2"/>
<line y1="-1" x2="9.21954" y2="-1" transform="matrix(-0.650791 0.759257 0.759257 0.650791 939 179)" stroke="black" stroke-width="2"/>
<path d="M995.635 178H993.88V170.275L992.245 171.97L991.225 170.905L994.105 167.995H995.635V178ZM1003.88 177.46C1003.15 177.94 1002.25 178.18 1001.17 178.18C1000.09 178.18 999.178 177.94 998.438 177.46C997.698 176.97 997.328 176.295 997.328 175.435C997.328 174.825 997.538 174.295 997.958 173.845C998.388 173.395 998.928 173.06 999.578 172.84C998.958 172.64 998.453 172.345 998.063 171.955C997.683 171.565 997.493 171.07 997.493 170.47C997.493 170.03 997.598 169.635 997.808 169.285C998.028 168.935 998.313 168.66 998.663 168.46C999.023 168.26 999.413 168.11 999.833 168.01C1000.26 167.9 1000.71 167.845 1001.17 167.845C1001.63 167.845 1002.07 167.9 1002.49 168.01C1002.91 168.11 1003.3 168.26 1003.66 168.46C1004.02 168.66 1004.3 168.935 1004.51 169.285C1004.73 169.635 1004.84 170.03 1004.84 170.47C1004.84 171.6 1004.14 172.39 1002.74 172.84C1003.39 173.06 1003.93 173.395 1004.35 173.845C1004.78 174.295 1004.99 174.825 1004.99 175.435C1004.99 176.295 1004.62 176.97 1003.88 177.46ZM1001.17 172.15C1001.44 172.1 1001.7 172.035 1001.95 171.955C1002.2 171.865 1002.44 171.715 1002.68 171.505C1002.93 171.285 1003.06 171.03 1003.06 170.74C1003.06 170.33 1002.88 170.005 1002.52 169.765C1002.17 169.525 1001.72 169.405 1001.17 169.405C1000.61 169.405 1000.15 169.525 999.788 169.765C999.438 170.005 999.263 170.33 999.263 170.74C999.263 171.03 999.388 171.285 999.638 171.505C999.888 171.715 1000.14 171.865 1000.39 171.955C1000.64 172.035 1000.9 172.1 1001.17 172.15ZM1001.17 176.62C1001.74 176.62 1002.22 176.49 1002.62 176.23C1003.02 175.97 1003.22 175.63 1003.22 175.21C1003.22 174.76 1002.99 174.4 1002.52 174.13C1002.06 173.85 1001.61 173.685 1001.17 173.635C1000.91 173.665 1000.63 173.735 1000.34 173.845C1000.05 173.945 999.773 174.12 999.503 174.37C999.233 174.61 999.098 174.89 999.098 175.21C999.098 175.63 999.293 175.97 999.683 176.23C1000.08 176.49 1000.58 176.62 1001.17 176.62ZM1010.18 178.18C1008.57 178.18 1007.33 177.665 1006.46 176.635L1007.46 175.435C1008.16 176.225 1009.06 176.62 1010.16 176.62C1010.78 176.62 1011.28 176.455 1011.65 176.125C1012.03 175.785 1012.22 175.365 1012.22 174.865C1012.22 174.325 1012.03 173.895 1011.66 173.575C1011.3 173.245 1010.82 173.08 1010.21 173.08C1009.36 173.08 1008.63 173.37 1008.02 173.95L1006.77 173.59V167.995H1013.33V169.54H1008.53V172.435C1009.11 171.855 1009.86 171.565 1010.79 171.565C1011.67 171.565 1012.42 171.86 1013.04 172.45C1013.67 173.03 1013.99 173.81 1013.99 174.79C1013.99 175.82 1013.63 176.645 1012.92 177.265C1012.22 177.875 1011.31 178.18 1010.18 178.18ZM1019.53 178.18C1018.57 178.18 1017.8 177.785 1017.21 176.995V180.76H1015.63V170.755H1017.21V171.745C1017.79 170.965 1018.56 170.575 1019.53 170.575C1020.48 170.575 1021.25 170.915 1021.84 171.595C1022.44 172.275 1022.74 173.2 1022.74 174.37C1022.74 175.54 1022.44 176.47 1021.84 177.16C1021.25 177.84 1020.48 178.18 1019.53 178.18ZM1019.07 176.785C1019.69 176.785 1020.18 176.56 1020.55 176.11C1020.92 175.66 1021.11 175.08 1021.11 174.37C1021.11 173.66 1020.92 173.085 1020.55 172.645C1020.18 172.195 1019.69 171.97 1019.07 171.97C1018.71 171.97 1018.35 172.065 1018 172.255C1017.65 172.445 1017.39 172.675 1017.21 172.945V175.81C1017.39 176.08 1017.65 176.31 1018 176.5C1018.35 176.69 1018.71 176.785 1019.07 176.785ZM1030.12 178H1028.35L1026.48 175.33L1024.59 178H1022.83L1025.49 174.28L1022.98 170.755H1024.75L1026.48 173.215L1028.19 170.755H1029.96L1027.45 174.28L1030.12 178Z" fill="black"/>
<path d="M647.14 539.18C646.29 539.18 645.535 539.03 644.875 538.73C644.225 538.43 643.72 538.04 643.36 537.56L644.305 536.405C644.625 536.775 645.035 537.07 645.535 537.29C646.035 537.51 646.55 537.62 647.08 537.62C647.73 537.62 648.24 537.485 648.61 537.215C648.98 536.935 649.165 536.56 649.165 536.09C649.165 535.15 648.425 534.68 646.945 534.68C646.275 534.68 645.89 534.685 645.79 534.695V533.12C645.91 533.13 646.295 533.135 646.945 533.135C647.565 533.135 648.06 533.025 648.43 532.805C648.81 532.585 649 532.255 649 531.815C649 531.365 648.81 531.02 648.43 530.78C648.05 530.53 647.565 530.405 646.975 530.405C645.995 530.405 645.135 530.775 644.395 531.515L643.495 530.42C644.385 529.37 645.6 528.845 647.14 528.845C648.23 528.845 649.105 529.09 649.765 529.58C650.425 530.06 650.755 530.715 650.755 531.545C650.755 532.165 650.535 532.68 650.095 533.09C649.665 533.49 649.16 533.74 648.58 533.84C649.15 533.89 649.68 534.13 650.17 534.56C650.66 534.99 650.905 535.56 650.905 536.27C650.905 537.13 650.56 537.83 649.87 538.37C649.19 538.91 648.28 539.18 647.14 539.18ZM655.753 539.18C654.903 539.18 654.148 539.03 653.488 538.73C652.838 538.43 652.333 538.04 651.973 537.56L652.918 536.405C653.238 536.775 653.648 537.07 654.148 537.29C654.648 537.51 655.163 537.62 655.693 537.62C656.343 537.62 656.853 537.485 657.223 537.215C657.593 536.935 657.778 536.56 657.778 536.09C657.778 535.15 657.038 534.68 655.558 534.68C654.888 534.68 654.503 534.685 654.403 534.695V533.12C654.523 533.13 654.908 533.135 655.558 533.135C656.178 533.135 656.673 533.025 657.043 532.805C657.423 532.585 657.613 532.255 657.613 531.815C657.613 531.365 657.423 531.02 657.043 530.78C656.663 530.53 656.178 530.405 655.588 530.405C654.608 530.405 653.748 530.775 653.008 531.515L652.108 530.42C652.998 529.37 654.213 528.845 655.753 528.845C656.843 528.845 657.718 529.09 658.378 529.58C659.038 530.06 659.368 530.715 659.368 531.545C659.368 532.165 659.148 532.68 658.708 533.09C658.278 533.49 657.773 533.74 657.193 533.84C657.763 533.89 658.293 534.13 658.783 534.56C659.273 534.99 659.518 535.56 659.518 536.27C659.518 537.13 659.173 537.83 658.483 538.37C657.803 538.91 656.893 539.18 655.753 539.18ZM665.147 539.18C664.187 539.18 663.412 538.785 662.822 537.995V541.76H661.247V531.755H662.822V532.745C663.402 531.965 664.177 531.575 665.147 531.575C666.097 531.575 666.867 531.915 667.457 532.595C668.057 533.275 668.357 534.2 668.357 535.37C668.357 536.54 668.057 537.47 667.457 538.16C666.867 538.84 666.097 539.18 665.147 539.18ZM664.682 537.785C665.302 537.785 665.797 537.56 666.167 537.11C666.537 536.66 666.722 536.08 666.722 535.37C666.722 534.66 666.537 534.085 666.167 533.645C665.797 533.195 665.302 532.97 664.682 532.97C664.322 532.97 663.967 533.065 663.617 533.255C663.267 533.445 663.002 533.675 662.822 533.945V536.81C663.002 537.08 663.267 537.31 663.617 537.5C663.967 537.69 664.322 537.785 664.682 537.785ZM675.736 539H673.966L672.091 536.33L670.201 539H668.446L671.101 535.28L668.596 531.755H670.366L672.091 534.215L673.801 531.755H675.571L673.066 535.28L675.736 539Z" fill="black"/>
<line x1="642" y1="550" x2="677" y2="550" stroke="black" stroke-width="2"/>
<line x1="671.759" y1="543.349" x2="677.759" y2="550.349" stroke="black" stroke-width="2"/>
<line y1="-1" x2="9.21954" y2="-1" transform="matrix(0.650791 -0.759257 -0.759257 -0.650791 671 555)" stroke="black" stroke-width="2"/>
<line x1="647.241" y1="555.651" x2="641.241" y2="548.651" stroke="black" stroke-width="2"/>
<line y1="-1" x2="9.21954" y2="-1" transform="matrix(-0.650791 0.759257 0.759257 0.650791 648 544)" stroke="black" stroke-width="2"/>
<path d="M772.14 539.18C771.29 539.18 770.535 539.03 769.875 538.73C769.225 538.43 768.72 538.04 768.36 537.56L769.305 536.405C769.625 536.775 770.035 537.07 770.535 537.29C771.035 537.51 771.55 537.62 772.08 537.62C772.73 537.62 773.24 537.485 773.61 537.215C773.98 536.935 774.165 536.56 774.165 536.09C774.165 535.15 773.425 534.68 771.945 534.68C771.275 534.68 770.89 534.685 770.79 534.695V533.12C770.91 533.13 771.295 533.135 771.945 533.135C772.565 533.135 773.06 533.025 773.43 532.805C773.81 532.585 774 532.255 774 531.815C774 531.365 773.81 531.02 773.43 530.78C773.05 530.53 772.565 530.405 771.975 530.405C770.995 530.405 770.135 530.775 769.395 531.515L768.495 530.42C769.385 529.37 770.6 528.845 772.14 528.845C773.23 528.845 774.105 529.09 774.765 529.58C775.425 530.06 775.755 530.715 775.755 531.545C775.755 532.165 775.535 532.68 775.095 533.09C774.665 533.49 774.16 533.74 773.58 533.84C774.15 533.89 774.68 534.13 775.17 534.56C775.66 534.99 775.905 535.56 775.905 536.27C775.905 537.13 775.56 537.83 774.87 538.37C774.19 538.91 773.28 539.18 772.14 539.18ZM780.753 539.18C779.903 539.18 779.148 539.03 778.488 538.73C777.838 538.43 777.333 538.04 776.973 537.56L777.918 536.405C778.238 536.775 778.648 537.07 779.148 537.29C779.648 537.51 780.163 537.62 780.693 537.62C781.343 537.62 781.853 537.485 782.223 537.215C782.593 536.935 782.778 536.56 782.778 536.09C782.778 535.15 782.038 534.68 780.558 534.68C779.888 534.68 779.503 534.685 779.403 534.695V533.12C779.523 533.13 779.908 533.135 780.558 533.135C781.178 533.135 781.673 533.025 782.043 532.805C782.423 532.585 782.613 532.255 782.613 531.815C782.613 531.365 782.423 531.02 782.043 530.78C781.663 530.53 781.178 530.405 780.588 530.405C779.608 530.405 778.748 530.775 778.008 531.515L777.108 530.42C777.998 529.37 779.213 528.845 780.753 528.845C781.843 528.845 782.718 529.09 783.378 529.58C784.038 530.06 784.368 530.715 784.368 531.545C784.368 532.165 784.148 532.68 783.708 533.09C783.278 533.49 782.773 533.74 782.193 533.84C782.763 533.89 783.293 534.13 783.783 534.56C784.273 534.99 784.518 535.56 784.518 536.27C784.518 537.13 784.173 537.83 783.483 538.37C782.803 538.91 781.893 539.18 780.753 539.18ZM790.147 539.18C789.187 539.18 788.412 538.785 787.822 537.995V541.76H786.247V531.755H787.822V532.745C788.402 531.965 789.177 531.575 790.147 531.575C791.097 531.575 791.867 531.915 792.457 532.595C793.057 533.275 793.357 534.2 793.357 535.37C793.357 536.54 793.057 537.47 792.457 538.16C791.867 538.84 791.097 539.18 790.147 539.18ZM789.682 537.785C790.302 537.785 790.797 537.56 791.167 537.11C791.537 536.66 791.722 536.08 791.722 535.37C791.722 534.66 791.537 534.085 791.167 533.645C790.797 533.195 790.302 532.97 789.682 532.97C789.322 532.97 788.967 533.065 788.617 533.255C788.267 533.445 788.002 533.675 787.822 533.945V536.81C788.002 537.08 788.267 537.31 788.617 537.5C788.967 537.69 789.322 537.785 789.682 537.785ZM800.736 539H798.966L797.091 536.33L795.201 539H793.446L796.101 535.28L793.596 531.755H795.366L797.091 534.215L798.801 531.755H800.571L798.066 535.28L800.736 539Z" fill="black"/>
<line x1="767" y1="550" x2="802" y2="550" stroke="black" stroke-width="2"/>
<line x1="796.759" y1="543.349" x2="802.759" y2="550.349" stroke="black" stroke-width="2"/>
<line y1="-1" x2="9.21954" y2="-1" transform="matrix(0.650791 -0.759257 -0.759257 -0.650791 796 555)" stroke="black" stroke-width="2"/>
<line x1="772.241" y1="555.651" x2="766.241" y2="548.651" stroke="black" stroke-width="2"/>
<line y1="-1" x2="9.21954" y2="-1" transform="matrix(-0.650791 0.759257 0.759257 0.650791 773 544)" stroke="black" stroke-width="2"/>
<path d="M1150.14 539.18C1149.29 539.18 1148.54 539.03 1147.88 538.73C1147.23 538.43 1146.72 538.04 1146.36 537.56L1147.31 536.405C1147.63 536.775 1148.04 537.07 1148.54 537.29C1149.04 537.51 1149.55 537.62 1150.08 537.62C1150.73 537.62 1151.24 537.485 1151.61 537.215C1151.98 536.935 1152.17 536.56 1152.17 536.09C1152.17 535.15 1151.43 534.68 1149.95 534.68C1149.28 534.68 1148.89 534.685 1148.79 534.695V533.12C1148.91 533.13 1149.3 533.135 1149.95 533.135C1150.57 533.135 1151.06 533.025 1151.43 532.805C1151.81 532.585 1152 532.255 1152 531.815C1152 531.365 1151.81 531.02 1151.43 530.78C1151.05 530.53 1150.57 530.405 1149.98 530.405C1149 530.405 1148.14 530.775 1147.4 531.515L1146.49 530.42C1147.39 529.37 1148.6 528.845 1150.14 528.845C1151.23 528.845 1152.11 529.09 1152.77 529.58C1153.43 530.06 1153.76 530.715 1153.76 531.545C1153.76 532.165 1153.54 532.68 1153.1 533.09C1152.67 533.49 1152.16 533.74 1151.58 533.84C1152.15 533.89 1152.68 534.13 1153.17 534.56C1153.66 534.99 1153.91 535.56 1153.91 536.27C1153.91 537.13 1153.56 537.83 1152.87 538.37C1152.19 538.91 1151.28 539.18 1150.14 539.18ZM1158.75 539.18C1157.9 539.18 1157.15 539.03 1156.49 538.73C1155.84 538.43 1155.33 538.04 1154.97 537.56L1155.92 536.405C1156.24 536.775 1156.65 537.07 1157.15 537.29C1157.65 537.51 1158.16 537.62 1158.69 537.62C1159.34 537.62 1159.85 537.485 1160.22 537.215C1160.59 536.935 1160.78 536.56 1160.78 536.09C1160.78 535.15 1160.04 534.68 1158.56 534.68C1157.89 534.68 1157.5 534.685 1157.4 534.695V533.12C1157.52 533.13 1157.91 533.135 1158.56 533.135C1159.18 533.135 1159.67 533.025 1160.04 532.805C1160.42 532.585 1160.61 532.255 1160.61 531.815C1160.61 531.365 1160.42 531.02 1160.04 530.78C1159.66 530.53 1159.18 530.405 1158.59 530.405C1157.61 530.405 1156.75 530.775 1156.01 531.515L1155.11 530.42C1156 529.37 1157.21 528.845 1158.75 528.845C1159.84 528.845 1160.72 529.09 1161.38 529.58C1162.04 530.06 1162.37 530.715 1162.37 531.545C1162.37 532.165 1162.15 532.68 1161.71 533.09C1161.28 533.49 1160.77 533.74 1160.19 533.84C1160.76 533.89 1161.29 534.13 1161.78 534.56C1162.27 534.99 1162.52 535.56 1162.52 536.27C1162.52 537.13 1162.17 537.83 1161.48 538.37C1160.8 538.91 1159.89 539.18 1158.75 539.18ZM1168.15 539.18C1167.19 539.18 1166.41 538.785 1165.82 537.995V541.76H1164.25V531.755H1165.82V532.745C1166.4 531.965 1167.18 531.575 1168.15 531.575C1169.1 531.575 1169.87 531.915 1170.46 532.595C1171.06 533.275 1171.36 534.2 1171.36 535.37C1171.36 536.54 1171.06 537.47 1170.46 538.16C1169.87 538.84 1169.1 539.18 1168.15 539.18ZM1167.68 537.785C1168.3 537.785 1168.8 537.56 1169.17 537.11C1169.54 536.66 1169.72 536.08 1169.72 535.37C1169.72 534.66 1169.54 534.085 1169.17 533.645C1168.8 533.195 1168.3 532.97 1167.68 532.97C1167.32 532.97 1166.97 533.065 1166.62 533.255C1166.27 533.445 1166 533.675 1165.82 533.945V536.81C1166 537.08 1166.27 537.31 1166.62 537.5C1166.97 537.69 1167.32 537.785 1167.68 537.785ZM1178.74 539H1176.97L1175.09 536.33L1173.2 539H1171.45L1174.1 535.28L1171.6 531.755H1173.37L1175.09 534.215L1176.8 531.755H1178.57L1176.07 535.28L1178.74 539Z" fill="black"/>
<line x1="1145" y1="550" x2="1180" y2="550" stroke="black" stroke-width="2"/>
<line x1="1174.76" y1="543.349" x2="1180.76" y2="550.349" stroke="black" stroke-width="2"/>
<line y1="-1" x2="9.21954" y2="-1" transform="matrix(0.650791 -0.759257 -0.759257 -0.650791 1174 555)" stroke="black" stroke-width="2"/>
<line x1="1150.24" y1="555.651" x2="1144.24" y2="548.651" stroke="black" stroke-width="2"/>
<line y1="-1" x2="9.21954" y2="-1" transform="matrix(-0.650791 0.759257 0.759257 0.650791 1151 544)" stroke="black" stroke-width="2"/>
</svg>
