<svg width="1289" height="707" viewBox="0 0 1289 707" fill="none" xmlns="http://www.w3.org/2000/svg">
<line opacity="0.3" x1="4" y1="-4.37114e-08" x2="4.00003" y2="707" stroke="black" stroke-width="2" stroke-dasharray="5 5"/>
<line opacity="0.3" x1="37" y1="-3.76445e-08" x2="37" y2="707" stroke="black" stroke-width="2" stroke-dasharray="5 5"/>
<line opacity="0.3" x1="107" y1="-3.76445e-08" x2="107" y2="707" stroke="black" stroke-width="2" stroke-dasharray="5 5"/>
<line opacity="0.3" x1="140" y1="-3.76445e-08" x2="140" y2="707" stroke="black" stroke-width="2" stroke-dasharray="5 5"/>
<line opacity="0.3" x1="173" y1="-3.76445e-08" x2="173" y2="707" stroke="black" stroke-width="2" stroke-dasharray="5 5"/>
<line opacity="0.3" x1="206" y1="-3.76445e-08" x2="206" y2="707" stroke="black" stroke-width="2" stroke-dasharray="5 5"/>
<line opacity="0.3" x1="291" y1="-3.76445e-08" x2="291" y2="707" stroke="black" stroke-width="2" stroke-dasharray="5 5"/>
<line opacity="0.3" x1="325" y1="-3.76445e-08" x2="325" y2="707" stroke="black" stroke-width="2" stroke-dasharray="5 5"/>
<line opacity="0.3" x1="346" y1="-3.76445e-08" x2="346" y2="707" stroke="black" stroke-width="2" stroke-dasharray="5 5"/>
<line opacity="0.3" x1="380" y1="-3.76445e-08" x2="380" y2="707" stroke="black" stroke-width="2" stroke-dasharray="5 5"/>
<line opacity="0.3" x1="516" y1="-3.76445e-08" x2="516" y2="707" stroke="black" stroke-width="2" stroke-dasharray="5 5"/>
<line opacity="0.3" x1="550" y1="-3.76445e-08" x2="550" y2="707" stroke="black" stroke-width="2" stroke-dasharray="5 5"/>
<line opacity="0.3" x1="625" y1="-3.76445e-08" x2="625" y2="707" stroke="black" stroke-width="2" stroke-dasharray="5 5"/>
<line opacity="0.3" x1="658" y1="-3.76445e-08" x2="658" y2="707" stroke="black" stroke-width="2" stroke-dasharray="5 5"/>
<line opacity="0.3" x1="750" y1="-3.76445e-08" x2="750" y2="707" stroke="black" stroke-width="2" stroke-dasharray="5 5"/>
<line opacity="0.3" x1="784" y1="-3.76445e-08" x2="784" y2="707" stroke="black" stroke-width="2" stroke-dasharray="5 5"/>
<line opacity="0.3" x1="914" y1="-3.76445e-08" x2="914" y2="707" stroke="black" stroke-width="2" stroke-dasharray="5 5"/>
<line opacity="0.3" x1="948" y1="-3.76445e-08" x2="948" y2="707" stroke="black" stroke-width="2" stroke-dasharray="5 5"/>
<line opacity="0.3" x1="853" y1="-3.76445e-08" x2="853" y2="707" stroke="black" stroke-width="2" stroke-dasharray="5 5"/>
<line opacity="0.3" x1="887" y1="-3.76445e-08" x2="887" y2="707" stroke="black" stroke-width="2" stroke-dasharray="5 5"/>
<line opacity="0.3" x1="1070" y1="-4.41349e-08" x2="1070" y2="707" stroke="black" stroke-width="2" stroke-dasharray="5 5"/>
<line opacity="0.3" x1="1099" y1="-3.76445e-08" x2="1099" y2="707" stroke="black" stroke-width="2" stroke-dasharray="5 5"/>
<line opacity="0.3" x1="1128" y1="-3.76445e-08" x2="1128" y2="707" stroke="black" stroke-width="2" stroke-dasharray="5 5"/>
<line opacity="0.3" x1="1161" y1="-3.76445e-08" x2="1161" y2="707" stroke="black" stroke-width="2" stroke-dasharray="5 5"/>
<line opacity="0.3" x1="1254" y1="-3.76445e-08" x2="1254" y2="707" stroke="black" stroke-width="2" stroke-dasharray="5 5"/>
<line opacity="0.3" x1="1288" y1="-3.76445e-08" x2="1288" y2="707" stroke="black" stroke-width="2" stroke-dasharray="5 5"/>
<path d="M11.76 541.12C11.1933 541.12 10.69 541.02 10.25 540.82C9.81667 540.62 9.48 540.36 9.24 540.04L9.87 539.27C10.0833 539.517 10.3567 539.713 10.69 539.86C11.0233 540.007 11.3667 540.08 11.72 540.08C12.1533 540.08 12.4933 539.99 12.74 539.81C12.9867 539.623 13.11 539.373 13.11 539.06C13.11 538.433 12.6167 538.12 11.63 538.12C11.1833 538.12 10.9267 538.123 10.86 538.13V537.08C10.94 537.087 11.1967 537.09 11.63 537.09C12.0433 537.09 12.3733 537.017 12.62 536.87C12.8733 536.723 13 536.503 13 536.21C13 535.91 12.8733 535.68 12.62 535.52C12.3667 535.353 12.0433 535.27 11.65 535.27C10.9967 535.27 10.4233 535.517 9.93 536.01L9.33 535.28C9.92333 534.58 10.7333 534.23 11.76 534.23C12.4867 534.23 13.07 534.393 13.51 534.72C13.95 535.04 14.17 535.477 14.17 536.03C14.17 536.443 14.0233 536.787 13.73 537.06C13.4433 537.327 13.1067 537.493 12.72 537.56C13.1 537.593 13.4533 537.753 13.78 538.04C14.1067 538.327 14.27 538.707 14.27 539.18C14.27 539.753 14.04 540.22 13.58 540.58C13.1267 540.94 12.52 541.12 11.76 541.12ZM17.5022 541.12C16.9355 541.12 16.4322 541.02 15.9922 540.82C15.5589 540.62 15.2222 540.36 14.9822 540.04L15.6122 539.27C15.8255 539.517 16.0989 539.713 16.4322 539.86C16.7655 540.007 17.1089 540.08 17.4622 540.08C17.8955 540.08 18.2355 539.99 18.4822 539.81C18.7289 539.623 18.8522 539.373 18.8522 539.06C18.8522 538.433 18.3589 538.12 17.3722 538.12C16.9255 538.12 16.6689 538.123 16.6022 538.13V537.08C16.6822 537.087 16.9389 537.09 17.3722 537.09C17.7855 537.09 18.1155 537.017 18.3622 536.87C18.6155 536.723 18.7422 536.503 18.7422 536.21C18.7422 535.91 18.6155 535.68 18.3622 535.52C18.1089 535.353 17.7855 535.27 17.3922 535.27C16.7389 535.27 16.1655 535.517 15.6722 536.01L15.0722 535.28C15.6655 534.58 16.4755 534.23 17.5022 534.23C18.2289 534.23 18.8122 534.393 19.2522 534.72C19.6922 535.04 19.9122 535.477 19.9122 536.03C19.9122 536.443 19.7655 536.787 19.4722 537.06C19.1855 537.327 18.8489 537.493 18.4622 537.56C18.8422 537.593 19.1955 537.753 19.5222 538.04C19.8489 538.327 20.0122 538.707 20.0122 539.18C20.0122 539.753 19.7822 540.22 19.3222 540.58C18.8689 540.94 18.2622 541.12 17.5022 541.12ZM23.7644 541.12C23.1244 541.12 22.6077 540.857 22.2144 540.33V542.84H21.1644V536.17H22.2144V536.83C22.601 536.31 23.1177 536.05 23.7644 536.05C24.3977 536.05 24.911 536.277 25.3044 536.73C25.7044 537.183 25.9044 537.8 25.9044 538.58C25.9044 539.36 25.7044 539.98 25.3044 540.44C24.911 540.893 24.3977 541.12 23.7644 541.12ZM23.4544 540.19C23.8677 540.19 24.1977 540.04 24.4444 539.74C24.691 539.44 24.8144 539.053 24.8144 538.58C24.8144 538.107 24.691 537.723 24.4444 537.43C24.1977 537.13 23.8677 536.98 23.4544 536.98C23.2144 536.98 22.9777 537.043 22.7444 537.17C22.511 537.297 22.3344 537.45 22.2144 537.63V539.54C22.3344 539.72 22.511 539.873 22.7444 540C22.9777 540.127 23.2144 540.19 23.4544 540.19ZM30.8241 541H29.6441L28.3941 539.22L27.1341 541H25.9641L27.7341 538.52L26.0641 536.17H27.2441L28.3941 537.81L29.5341 536.17H30.7141L29.0441 538.52L30.8241 541Z" fill="black"/>
<line x1="2" y1="550" x2="37" y2="550" stroke="black" stroke-width="2"/>
<line x1="31.7593" y1="543.349" x2="37.7593" y2="550.349" stroke="black" stroke-width="2"/>
<line y1="-1" x2="9.21954" y2="-1" transform="matrix(0.650791 -0.759257 -0.759257 -0.650791 31 555)" stroke="black" stroke-width="2"/>
<line x1="7.24074" y1="555.651" x2="1.24074" y2="548.651" stroke="black" stroke-width="2"/>
<line y1="-1" x2="9.21954" y2="-1" transform="matrix(-0.650791 0.759257 0.759257 0.650791 8 544)" stroke="black" stroke-width="2"/>
<path d="M182.76 541.12C182.193 541.12 181.69 541.02 181.25 540.82C180.817 540.62 180.48 540.36 180.24 540.04L180.87 539.27C181.083 539.517 181.357 539.713 181.69 539.86C182.023 540.007 182.367 540.08 182.72 540.08C183.153 540.08 183.493 539.99 183.74 539.81C183.987 539.623 184.11 539.373 184.11 539.06C184.11 538.433 183.617 538.12 182.63 538.12C182.183 538.12 181.927 538.123 181.86 538.13V537.08C181.94 537.087 182.197 537.09 182.63 537.09C183.043 537.09 183.373 537.017 183.62 536.87C183.873 536.723 184 536.503 184 536.21C184 535.91 183.873 535.68 183.62 535.52C183.367 535.353 183.043 535.27 182.65 535.27C181.997 535.27 181.423 535.517 180.93 536.01L180.33 535.28C180.923 534.58 181.733 534.23 182.76 534.23C183.487 534.23 184.07 534.393 184.51 534.72C184.95 535.04 185.17 535.477 185.17 536.03C185.17 536.443 185.023 536.787 184.73 537.06C184.443 537.327 184.107 537.493 183.72 537.56C184.1 537.593 184.453 537.753 184.78 538.04C185.107 538.327 185.27 538.707 185.27 539.18C185.27 539.753 185.04 540.22 184.58 540.58C184.127 540.94 183.52 541.12 182.76 541.12ZM188.502 541.12C187.936 541.12 187.432 541.02 186.992 540.82C186.559 540.62 186.222 540.36 185.982 540.04L186.612 539.27C186.826 539.517 187.099 539.713 187.432 539.86C187.766 540.007 188.109 540.08 188.462 540.08C188.896 540.08 189.236 539.99 189.482 539.81C189.729 539.623 189.852 539.373 189.852 539.06C189.852 538.433 189.359 538.12 188.372 538.12C187.926 538.12 187.669 538.123 187.602 538.13V537.08C187.682 537.087 187.939 537.09 188.372 537.09C188.786 537.09 189.116 537.017 189.362 536.87C189.616 536.723 189.742 536.503 189.742 536.21C189.742 535.91 189.616 535.68 189.362 535.52C189.109 535.353 188.786 535.27 188.392 535.27C187.739 535.27 187.166 535.517 186.672 536.01L186.072 535.28C186.666 534.58 187.476 534.23 188.502 534.23C189.229 534.23 189.812 534.393 190.252 534.72C190.692 535.04 190.912 535.477 190.912 536.03C190.912 536.443 190.766 536.787 190.472 537.06C190.186 537.327 189.849 537.493 189.462 537.56C189.842 537.593 190.196 537.753 190.522 538.04C190.849 538.327 191.012 538.707 191.012 539.18C191.012 539.753 190.782 540.22 190.322 540.58C189.869 540.94 189.262 541.12 188.502 541.12ZM194.764 541.12C194.124 541.12 193.608 540.857 193.214 540.33V542.84H192.164V536.17H193.214V536.83C193.601 536.31 194.118 536.05 194.764 536.05C195.398 536.05 195.911 536.277 196.304 536.73C196.704 537.183 196.904 537.8 196.904 538.58C196.904 539.36 196.704 539.98 196.304 540.44C195.911 540.893 195.398 541.12 194.764 541.12ZM194.454 540.19C194.868 540.19 195.198 540.04 195.444 539.74C195.691 539.44 195.814 539.053 195.814 538.58C195.814 538.107 195.691 537.723 195.444 537.43C195.198 537.13 194.868 536.98 194.454 536.98C194.214 536.98 193.978 537.043 193.744 537.17C193.511 537.297 193.334 537.45 193.214 537.63V539.54C193.334 539.72 193.511 539.873 193.744 540C193.978 540.127 194.214 540.19 194.454 540.19ZM201.824 541H200.644L199.394 539.22L198.134 541H196.964L198.734 538.52L197.064 536.17H198.244L199.394 537.81L200.534 536.17H201.714L200.044 538.52L201.824 541Z" fill="black"/>
<line x1="173" y1="550" x2="208" y2="550" stroke="black" stroke-width="2"/>
<line x1="202.759" y1="543.349" x2="208.759" y2="550.349" stroke="black" stroke-width="2"/>
<line y1="-1" x2="9.21954" y2="-1" transform="matrix(0.650791 -0.759257 -0.759257 -0.650791 202 555)" stroke="black" stroke-width="2"/>
<line x1="178.241" y1="555.651" x2="172.241" y2="548.651" stroke="black" stroke-width="2"/>
<line y1="-1" x2="9.21954" y2="-1" transform="matrix(-0.650791 0.759257 0.759257 0.650791 179 544)" stroke="black" stroke-width="2"/>
<path d="M354.76 541.12C354.193 541.12 353.69 541.02 353.25 540.82C352.817 540.62 352.48 540.36 352.24 540.04L352.87 539.27C353.083 539.517 353.357 539.713 353.69 539.86C354.023 540.007 354.367 540.08 354.72 540.08C355.153 540.08 355.493 539.99 355.74 539.81C355.987 539.623 356.11 539.373 356.11 539.06C356.11 538.433 355.617 538.12 354.63 538.12C354.183 538.12 353.927 538.123 353.86 538.13V537.08C353.94 537.087 354.197 537.09 354.63 537.09C355.043 537.09 355.373 537.017 355.62 536.87C355.873 536.723 356 536.503 356 536.21C356 535.91 355.873 535.68 355.62 535.52C355.367 535.353 355.043 535.27 354.65 535.27C353.997 535.27 353.423 535.517 352.93 536.01L352.33 535.28C352.923 534.58 353.733 534.23 354.76 534.23C355.487 534.23 356.07 534.393 356.51 534.72C356.95 535.04 357.17 535.477 357.17 536.03C357.17 536.443 357.023 536.787 356.73 537.06C356.443 537.327 356.107 537.493 355.72 537.56C356.1 537.593 356.453 537.753 356.78 538.04C357.107 538.327 357.27 538.707 357.27 539.18C357.27 539.753 357.04 540.22 356.58 540.58C356.127 540.94 355.52 541.12 354.76 541.12ZM360.502 541.12C359.936 541.12 359.432 541.02 358.992 540.82C358.559 540.62 358.222 540.36 357.982 540.04L358.612 539.27C358.826 539.517 359.099 539.713 359.432 539.86C359.766 540.007 360.109 540.08 360.462 540.08C360.896 540.08 361.236 539.99 361.482 539.81C361.729 539.623 361.852 539.373 361.852 539.06C361.852 538.433 361.359 538.12 360.372 538.12C359.926 538.12 359.669 538.123 359.602 538.13V537.08C359.682 537.087 359.939 537.09 360.372 537.09C360.786 537.09 361.116 537.017 361.362 536.87C361.616 536.723 361.742 536.503 361.742 536.21C361.742 535.91 361.616 535.68 361.362 535.52C361.109 535.353 360.786 535.27 360.392 535.27C359.739 535.27 359.166 535.517 358.672 536.01L358.072 535.28C358.666 534.58 359.476 534.23 360.502 534.23C361.229 534.23 361.812 534.393 362.252 534.72C362.692 535.04 362.912 535.477 362.912 536.03C362.912 536.443 362.766 536.787 362.472 537.06C362.186 537.327 361.849 537.493 361.462 537.56C361.842 537.593 362.196 537.753 362.522 538.04C362.849 538.327 363.012 538.707 363.012 539.18C363.012 539.753 362.782 540.22 362.322 540.58C361.869 540.94 361.262 541.12 360.502 541.12ZM366.764 541.12C366.124 541.12 365.608 540.857 365.214 540.33V542.84H364.164V536.17H365.214V536.83C365.601 536.31 366.118 536.05 366.764 536.05C367.398 536.05 367.911 536.277 368.304 536.73C368.704 537.183 368.904 537.8 368.904 538.58C368.904 539.36 368.704 539.98 368.304 540.44C367.911 540.893 367.398 541.12 366.764 541.12ZM366.454 540.19C366.868 540.19 367.198 540.04 367.444 539.74C367.691 539.44 367.814 539.053 367.814 538.58C367.814 538.107 367.691 537.723 367.444 537.43C367.198 537.13 366.868 536.98 366.454 536.98C366.214 536.98 365.978 537.043 365.744 537.17C365.511 537.297 365.334 537.45 365.214 537.63V539.54C365.334 539.72 365.511 539.873 365.744 540C365.978 540.127 366.214 540.19 366.454 540.19ZM373.824 541H372.644L371.394 539.22L370.134 541H368.964L370.734 538.52L369.064 536.17H370.244L371.394 537.81L372.534 536.17H373.714L372.044 538.52L373.824 541Z" fill="black"/>
<line x1="345" y1="550" x2="380" y2="550" stroke="black" stroke-width="2"/>
<line x1="374.759" y1="543.349" x2="380.759" y2="550.349" stroke="black" stroke-width="2"/>
<line y1="-1" x2="9.21954" y2="-1" transform="matrix(0.650791 -0.759257 -0.759257 -0.650791 374 555)" stroke="black" stroke-width="2"/>
<line x1="350.241" y1="555.651" x2="344.241" y2="548.651" stroke="black" stroke-width="2"/>
<line y1="-1" x2="9.21954" y2="-1" transform="matrix(-0.650791 0.759257 0.759257 0.650791 351 544)" stroke="black" stroke-width="2"/>
<line x1="346" y1="185" x2="548" y2="185" stroke="black" stroke-width="2"/>
<line x1="543.759" y1="178.349" x2="549.759" y2="185.349" stroke="black" stroke-width="2"/>
<line y1="-1" x2="9.21954" y2="-1" transform="matrix(0.650791 -0.759257 -0.759257 -0.650791 543 190)" stroke="black" stroke-width="2"/>
<line x1="351.241" y1="190.651" x2="345.241" y2="183.651" stroke="black" stroke-width="2"/>
<line y1="-1" x2="9.21954" y2="-1" transform="matrix(-0.650791 0.759257 0.759257 0.650791 352 179)" stroke="black" stroke-width="2"/>
<path d="M433.995 178H426.75V176.62C428.84 175.04 430.26 173.87 431.01 173.11C431.77 172.34 432.15 171.615 432.15 170.935C432.15 170.445 431.97 170.07 431.61 169.81C431.26 169.54 430.835 169.405 430.335 169.405C429.235 169.405 428.335 169.805 427.635 170.605L426.615 169.45C427.045 168.93 427.585 168.535 428.235 168.265C428.895 167.985 429.585 167.845 430.305 167.845C431.325 167.845 432.185 168.12 432.885 168.67C433.585 169.22 433.935 169.975 433.935 170.935C433.935 171.795 433.575 172.65 432.855 173.5C432.135 174.35 431.035 175.335 429.555 176.455H433.995V178ZM441.341 177.73C440.811 178.03 440.211 178.18 439.541 178.18C438.871 178.18 438.271 178.03 437.741 177.73C437.211 177.43 436.791 177.03 436.481 176.53C436.171 176.03 435.936 175.48 435.776 174.88C435.616 174.28 435.536 173.655 435.536 173.005C435.536 172.355 435.616 171.73 435.776 171.13C435.936 170.53 436.171 169.985 436.481 169.495C436.791 168.995 437.211 168.595 437.741 168.295C438.271 167.995 438.871 167.845 439.541 167.845C440.211 167.845 440.811 167.995 441.341 168.295C441.871 168.595 442.291 168.995 442.601 169.495C442.911 169.985 443.146 170.53 443.306 171.13C443.466 171.73 443.546 172.355 443.546 173.005C443.546 173.655 443.466 174.28 443.306 174.88C443.146 175.48 442.911 176.03 442.601 176.53C442.291 177.03 441.871 177.43 441.341 177.73ZM437.861 175.6C438.221 176.28 438.781 176.62 439.541 176.62C440.301 176.62 440.861 176.28 441.221 175.6C441.581 174.92 441.761 174.055 441.761 173.005C441.761 172.335 441.691 171.74 441.551 171.22C441.421 170.7 441.181 170.27 440.831 169.93C440.491 169.58 440.061 169.405 439.541 169.405C439.021 169.405 438.586 169.58 438.236 169.93C437.896 170.27 437.656 170.7 437.516 171.22C437.386 171.74 437.321 172.335 437.321 173.005C437.321 174.055 437.501 174.92 437.861 175.6ZM448.724 178.18C447.114 178.18 445.874 177.665 445.004 176.635L446.009 175.435C446.709 176.225 447.609 176.62 448.709 176.62C449.329 176.62 449.824 176.455 450.194 176.125C450.574 175.785 450.764 175.365 450.764 174.865C450.764 174.325 450.579 173.895 450.209 173.575C449.849 173.245 449.364 173.08 448.754 173.08C447.904 173.08 447.174 173.37 446.564 173.95L445.319 173.59V167.995H451.874V169.54H447.074V172.435C447.654 171.855 448.409 171.565 449.339 171.565C450.219 171.565 450.969 171.86 451.589 172.45C452.219 173.03 452.534 173.81 452.534 174.79C452.534 175.82 452.179 176.645 451.469 177.265C450.769 177.875 449.854 178.18 448.724 178.18ZM458.078 178.18C457.118 178.18 456.343 177.785 455.753 176.995V180.76H454.178V170.755H455.753V171.745C456.333 170.965 457.108 170.575 458.078 170.575C459.028 170.575 459.798 170.915 460.388 171.595C460.988 172.275 461.288 173.2 461.288 174.37C461.288 175.54 460.988 176.47 460.388 177.16C459.798 177.84 459.028 178.18 458.078 178.18ZM457.613 176.785C458.233 176.785 458.728 176.56 459.098 176.11C459.468 175.66 459.653 175.08 459.653 174.37C459.653 173.66 459.468 173.085 459.098 172.645C458.728 172.195 458.233 171.97 457.613 171.97C457.253 171.97 456.898 172.065 456.548 172.255C456.198 172.445 455.933 172.675 455.753 172.945V175.81C455.933 176.08 456.198 176.31 456.548 176.5C456.898 176.69 457.253 176.785 457.613 176.785ZM468.668 178H466.898L465.023 175.33L463.133 178H461.378L464.033 174.28L461.528 170.755H463.298L465.023 173.215L466.733 170.755H468.503L465.998 174.28L468.668 178Z" fill="black"/>
<line x1="915" y1="185" x2="1069" y2="185" stroke="black" stroke-width="2"/>
<line x1="1064.76" y1="178.349" x2="1070.76" y2="185.349" stroke="black" stroke-width="2"/>
<line y1="-1" x2="9.21954" y2="-1" transform="matrix(0.650791 -0.759257 -0.759257 -0.650791 1064 190)" stroke="black" stroke-width="2"/>
<line x1="920.241" y1="190.651" x2="914.241" y2="183.651" stroke="black" stroke-width="2"/>
<line y1="-1" x2="9.21954" y2="-1" transform="matrix(-0.650791 0.759257 0.759257 0.650791 921 179)" stroke="black" stroke-width="2"/>
<path d="M977.635 178H975.88V170.275L974.245 171.97L973.225 170.905L976.105 167.995H977.635V178ZM985.883 177.46C985.153 177.94 984.248 178.18 983.168 178.18C982.088 178.18 981.178 177.94 980.438 177.46C979.698 176.97 979.328 176.295 979.328 175.435C979.328 174.825 979.538 174.295 979.958 173.845C980.388 173.395 980.928 173.06 981.578 172.84C980.958 172.64 980.453 172.345 980.063 171.955C979.683 171.565 979.493 171.07 979.493 170.47C979.493 170.03 979.598 169.635 979.808 169.285C980.028 168.935 980.313 168.66 980.663 168.46C981.023 168.26 981.413 168.11 981.833 168.01C982.263 167.9 982.708 167.845 983.168 167.845C983.628 167.845 984.068 167.9 984.488 168.01C984.908 168.11 985.298 168.26 985.658 168.46C986.018 168.66 986.303 168.935 986.513 169.285C986.733 169.635 986.843 170.03 986.843 170.47C986.843 171.6 986.143 172.39 984.743 172.84C985.393 173.06 985.928 173.395 986.348 173.845C986.778 174.295 986.993 174.825 986.993 175.435C986.993 176.295 986.623 176.97 985.883 177.46ZM983.168 172.15C983.438 172.1 983.698 172.035 983.948 171.955C984.198 171.865 984.443 171.715 984.683 171.505C984.933 171.285 985.058 171.03 985.058 170.74C985.058 170.33 984.878 170.005 984.518 169.765C984.168 169.525 983.718 169.405 983.168 169.405C982.608 169.405 982.148 169.525 981.788 169.765C981.438 170.005 981.263 170.33 981.263 170.74C981.263 171.03 981.388 171.285 981.638 171.505C981.888 171.715 982.138 171.865 982.388 171.955C982.638 172.035 982.898 172.1 983.168 172.15ZM983.168 176.62C983.738 176.62 984.223 176.49 984.623 176.23C985.023 175.97 985.223 175.63 985.223 175.21C985.223 174.76 984.988 174.4 984.518 174.13C984.058 173.85 983.608 173.685 983.168 173.635C982.908 173.665 982.633 173.735 982.343 173.845C982.053 173.945 981.773 174.12 981.503 174.37C981.233 174.61 981.098 174.89 981.098 175.21C981.098 175.63 981.293 175.97 981.683 176.23C982.083 176.49 982.578 176.62 983.168 176.62ZM992.179 178.18C990.569 178.18 989.329 177.665 988.459 176.635L989.464 175.435C990.164 176.225 991.064 176.62 992.164 176.62C992.784 176.62 993.279 176.455 993.649 176.125C994.029 175.785 994.219 175.365 994.219 174.865C994.219 174.325 994.034 173.895 993.664 173.575C993.304 173.245 992.819 173.08 992.209 173.08C991.359 173.08 990.629 173.37 990.019 173.95L988.774 173.59V167.995H995.329V169.54H990.529V172.435C991.109 171.855 991.864 171.565 992.794 171.565C993.674 171.565 994.424 171.86 995.044 172.45C995.674 173.03 995.989 173.81 995.989 174.79C995.989 175.82 995.634 176.645 994.924 177.265C994.224 177.875 993.309 178.18 992.179 178.18ZM1001.53 178.18C1000.57 178.18 999.798 177.785 999.208 176.995V180.76H997.633V170.755H999.208V171.745C999.788 170.965 1000.56 170.575 1001.53 170.575C1002.48 170.575 1003.25 170.915 1003.84 171.595C1004.44 172.275 1004.74 173.2 1004.74 174.37C1004.74 175.54 1004.44 176.47 1003.84 177.16C1003.25 177.84 1002.48 178.18 1001.53 178.18ZM1001.07 176.785C1001.69 176.785 1002.18 176.56 1002.55 176.11C1002.92 175.66 1003.11 175.08 1003.11 174.37C1003.11 173.66 1002.92 173.085 1002.55 172.645C1002.18 172.195 1001.69 171.97 1001.07 171.97C1000.71 171.97 1000.35 172.065 1000 172.255C999.653 172.445 999.388 172.675 999.208 172.945V175.81C999.388 176.08 999.653 176.31 1000 176.5C1000.35 176.69 1000.71 176.785 1001.07 176.785ZM1012.12 178H1010.35L1008.48 175.33L1006.59 178H1004.83L1007.49 174.28L1004.98 170.755H1006.75L1008.48 173.215L1010.19 170.755H1011.96L1009.45 174.28L1012.12 178Z" fill="black"/>
<path d="M633.76 541.12C633.193 541.12 632.69 541.02 632.25 540.82C631.817 540.62 631.48 540.36 631.24 540.04L631.87 539.27C632.083 539.517 632.357 539.713 632.69 539.86C633.023 540.007 633.367 540.08 633.72 540.08C634.153 540.08 634.493 539.99 634.74 539.81C634.987 539.623 635.11 539.373 635.11 539.06C635.11 538.433 634.617 538.12 633.63 538.12C633.183 538.12 632.927 538.123 632.86 538.13V537.08C632.94 537.087 633.197 537.09 633.63 537.09C634.043 537.09 634.373 537.017 634.62 536.87C634.873 536.723 635 536.503 635 536.21C635 535.91 634.873 535.68 634.62 535.52C634.367 535.353 634.043 535.27 633.65 535.27C632.997 535.27 632.423 535.517 631.93 536.01L631.33 535.28C631.923 534.58 632.733 534.23 633.76 534.23C634.487 534.23 635.07 534.393 635.51 534.72C635.95 535.04 636.17 535.477 636.17 536.03C636.17 536.443 636.023 536.787 635.73 537.06C635.443 537.327 635.107 537.493 634.72 537.56C635.1 537.593 635.453 537.753 635.78 538.04C636.107 538.327 636.27 538.707 636.27 539.18C636.27 539.753 636.04 540.22 635.58 540.58C635.127 540.94 634.52 541.12 633.76 541.12ZM639.502 541.12C638.936 541.12 638.432 541.02 637.992 540.82C637.559 540.62 637.222 540.36 636.982 540.04L637.612 539.27C637.826 539.517 638.099 539.713 638.432 539.86C638.766 540.007 639.109 540.08 639.462 540.08C639.896 540.08 640.236 539.99 640.482 539.81C640.729 539.623 640.852 539.373 640.852 539.06C640.852 538.433 640.359 538.12 639.372 538.12C638.926 538.12 638.669 538.123 638.602 538.13V537.08C638.682 537.087 638.939 537.09 639.372 537.09C639.786 537.09 640.116 537.017 640.362 536.87C640.616 536.723 640.742 536.503 640.742 536.21C640.742 535.91 640.616 535.68 640.362 535.52C640.109 535.353 639.786 535.27 639.392 535.27C638.739 535.27 638.166 535.517 637.672 536.01L637.072 535.28C637.666 534.58 638.476 534.23 639.502 534.23C640.229 534.23 640.812 534.393 641.252 534.72C641.692 535.04 641.912 535.477 641.912 536.03C641.912 536.443 641.766 536.787 641.472 537.06C641.186 537.327 640.849 537.493 640.462 537.56C640.842 537.593 641.196 537.753 641.522 538.04C641.849 538.327 642.012 538.707 642.012 539.18C642.012 539.753 641.782 540.22 641.322 540.58C640.869 540.94 640.262 541.12 639.502 541.12ZM645.764 541.12C645.124 541.12 644.608 540.857 644.214 540.33V542.84H643.164V536.17H644.214V536.83C644.601 536.31 645.118 536.05 645.764 536.05C646.398 536.05 646.911 536.277 647.304 536.73C647.704 537.183 647.904 537.8 647.904 538.58C647.904 539.36 647.704 539.98 647.304 540.44C646.911 540.893 646.398 541.12 645.764 541.12ZM645.454 540.19C645.868 540.19 646.198 540.04 646.444 539.74C646.691 539.44 646.814 539.053 646.814 538.58C646.814 538.107 646.691 537.723 646.444 537.43C646.198 537.13 645.868 536.98 645.454 536.98C645.214 536.98 644.978 537.043 644.744 537.17C644.511 537.297 644.334 537.45 644.214 537.63V539.54C644.334 539.72 644.511 539.873 644.744 540C644.978 540.127 645.214 540.19 645.454 540.19ZM652.824 541H651.644L650.394 539.22L649.134 541H647.964L649.734 538.52L648.064 536.17H649.244L650.394 537.81L651.534 536.17H652.714L651.044 538.52L652.824 541Z" fill="black"/>
<line x1="624" y1="550" x2="659" y2="550" stroke="black" stroke-width="2"/>
<line x1="653.759" y1="543.349" x2="659.759" y2="550.349" stroke="black" stroke-width="2"/>
<line y1="-1" x2="9.21954" y2="-1" transform="matrix(0.650791 -0.759257 -0.759257 -0.650791 653 555)" stroke="black" stroke-width="2"/>
<line x1="629.241" y1="555.651" x2="623.241" y2="548.651" stroke="black" stroke-width="2"/>
<line y1="-1" x2="9.21954" y2="-1" transform="matrix(-0.650791 0.759257 0.759257 0.650791 630 544)" stroke="black" stroke-width="2"/>
<path d="M758.76 541.12C758.193 541.12 757.69 541.02 757.25 540.82C756.817 540.62 756.48 540.36 756.24 540.04L756.87 539.27C757.083 539.517 757.357 539.713 757.69 539.86C758.023 540.007 758.367 540.08 758.72 540.08C759.153 540.08 759.493 539.99 759.74 539.81C759.987 539.623 760.11 539.373 760.11 539.06C760.11 538.433 759.617 538.12 758.63 538.12C758.183 538.12 757.927 538.123 757.86 538.13V537.08C757.94 537.087 758.197 537.09 758.63 537.09C759.043 537.09 759.373 537.017 759.62 536.87C759.873 536.723 760 536.503 760 536.21C760 535.91 759.873 535.68 759.62 535.52C759.367 535.353 759.043 535.27 758.65 535.27C757.997 535.27 757.423 535.517 756.93 536.01L756.33 535.28C756.923 534.58 757.733 534.23 758.76 534.23C759.487 534.23 760.07 534.393 760.51 534.72C760.95 535.04 761.17 535.477 761.17 536.03C761.17 536.443 761.023 536.787 760.73 537.06C760.443 537.327 760.107 537.493 759.72 537.56C760.1 537.593 760.453 537.753 760.78 538.04C761.107 538.327 761.27 538.707 761.27 539.18C761.27 539.753 761.04 540.22 760.58 540.58C760.127 540.94 759.52 541.12 758.76 541.12ZM764.502 541.12C763.936 541.12 763.432 541.02 762.992 540.82C762.559 540.62 762.222 540.36 761.982 540.04L762.612 539.27C762.826 539.517 763.099 539.713 763.432 539.86C763.766 540.007 764.109 540.08 764.462 540.08C764.896 540.08 765.236 539.99 765.482 539.81C765.729 539.623 765.852 539.373 765.852 539.06C765.852 538.433 765.359 538.12 764.372 538.12C763.926 538.12 763.669 538.123 763.602 538.13V537.08C763.682 537.087 763.939 537.09 764.372 537.09C764.786 537.09 765.116 537.017 765.362 536.87C765.616 536.723 765.742 536.503 765.742 536.21C765.742 535.91 765.616 535.68 765.362 535.52C765.109 535.353 764.786 535.27 764.392 535.27C763.739 535.27 763.166 535.517 762.672 536.01L762.072 535.28C762.666 534.58 763.476 534.23 764.502 534.23C765.229 534.23 765.812 534.393 766.252 534.72C766.692 535.04 766.912 535.477 766.912 536.03C766.912 536.443 766.766 536.787 766.472 537.06C766.186 537.327 765.849 537.493 765.462 537.56C765.842 537.593 766.196 537.753 766.522 538.04C766.849 538.327 767.012 538.707 767.012 539.18C767.012 539.753 766.782 540.22 766.322 540.58C765.869 540.94 765.262 541.12 764.502 541.12ZM770.764 541.12C770.124 541.12 769.608 540.857 769.214 540.33V542.84H768.164V536.17H769.214V536.83C769.601 536.31 770.118 536.05 770.764 536.05C771.398 536.05 771.911 536.277 772.304 536.73C772.704 537.183 772.904 537.8 772.904 538.58C772.904 539.36 772.704 539.98 772.304 540.44C771.911 540.893 771.398 541.12 770.764 541.12ZM770.454 540.19C770.868 540.19 771.198 540.04 771.444 539.74C771.691 539.44 771.814 539.053 771.814 538.58C771.814 538.107 771.691 537.723 771.444 537.43C771.198 537.13 770.868 536.98 770.454 536.98C770.214 536.98 769.978 537.043 769.744 537.17C769.511 537.297 769.334 537.45 769.214 537.63V539.54C769.334 539.72 769.511 539.873 769.744 540C769.978 540.127 770.214 540.19 770.454 540.19ZM777.824 541H776.644L775.394 539.22L774.134 541H772.964L774.734 538.52L773.064 536.17H774.244L775.394 537.81L776.534 536.17H777.714L776.044 538.52L777.824 541Z" fill="black"/>
<line x1="749" y1="550" x2="784" y2="550" stroke="black" stroke-width="2"/>
<line x1="778.759" y1="543.349" x2="784.759" y2="550.349" stroke="black" stroke-width="2"/>
<line y1="-1" x2="9.21954" y2="-1" transform="matrix(0.650791 -0.759257 -0.759257 -0.650791 778 555)" stroke="black" stroke-width="2"/>
<line x1="754.241" y1="555.651" x2="748.241" y2="548.651" stroke="black" stroke-width="2"/>
<line y1="-1" x2="9.21954" y2="-1" transform="matrix(-0.650791 0.759257 0.759257 0.650791 755 544)" stroke="black" stroke-width="2"/>
<path d="M1136.76 541.12C1136.19 541.12 1135.69 541.02 1135.25 540.82C1134.82 540.62 1134.48 540.36 1134.24 540.04L1134.87 539.27C1135.08 539.517 1135.36 539.713 1135.69 539.86C1136.02 540.007 1136.37 540.08 1136.72 540.08C1137.15 540.08 1137.49 539.99 1137.74 539.81C1137.99 539.623 1138.11 539.373 1138.11 539.06C1138.11 538.433 1137.62 538.12 1136.63 538.12C1136.18 538.12 1135.93 538.123 1135.86 538.13V537.08C1135.94 537.087 1136.2 537.09 1136.63 537.09C1137.04 537.09 1137.37 537.017 1137.62 536.87C1137.87 536.723 1138 536.503 1138 536.21C1138 535.91 1137.87 535.68 1137.62 535.52C1137.37 535.353 1137.04 535.27 1136.65 535.27C1136 535.27 1135.42 535.517 1134.93 536.01L1134.33 535.28C1134.92 534.58 1135.73 534.23 1136.76 534.23C1137.49 534.23 1138.07 534.393 1138.51 534.72C1138.95 535.04 1139.17 535.477 1139.17 536.03C1139.17 536.443 1139.02 536.787 1138.73 537.06C1138.44 537.327 1138.11 537.493 1137.72 537.56C1138.1 537.593 1138.45 537.753 1138.78 538.04C1139.11 538.327 1139.27 538.707 1139.27 539.18C1139.27 539.753 1139.04 540.22 1138.58 540.58C1138.13 540.94 1137.52 541.12 1136.76 541.12ZM1142.5 541.12C1141.94 541.12 1141.43 541.02 1140.99 540.82C1140.56 540.62 1140.22 540.36 1139.98 540.04L1140.61 539.27C1140.83 539.517 1141.1 539.713 1141.43 539.86C1141.77 540.007 1142.11 540.08 1142.46 540.08C1142.9 540.08 1143.24 539.99 1143.48 539.81C1143.73 539.623 1143.85 539.373 1143.85 539.06C1143.85 538.433 1143.36 538.12 1142.37 538.12C1141.93 538.12 1141.67 538.123 1141.6 538.13V537.08C1141.68 537.087 1141.94 537.09 1142.37 537.09C1142.79 537.09 1143.12 537.017 1143.36 536.87C1143.62 536.723 1143.74 536.503 1143.74 536.21C1143.74 535.91 1143.62 535.68 1143.36 535.52C1143.11 535.353 1142.79 535.27 1142.39 535.27C1141.74 535.27 1141.17 535.517 1140.67 536.01L1140.07 535.28C1140.67 534.58 1141.48 534.23 1142.5 534.23C1143.23 534.23 1143.81 534.393 1144.25 534.72C1144.69 535.04 1144.91 535.477 1144.91 536.03C1144.91 536.443 1144.77 536.787 1144.47 537.06C1144.19 537.327 1143.85 537.493 1143.46 537.56C1143.84 537.593 1144.2 537.753 1144.52 538.04C1144.85 538.327 1145.01 538.707 1145.01 539.18C1145.01 539.753 1144.78 540.22 1144.32 540.58C1143.87 540.94 1143.26 541.12 1142.5 541.12ZM1148.76 541.12C1148.12 541.12 1147.61 540.857 1147.21 540.33V542.84H1146.16V536.17H1147.21V536.83C1147.6 536.31 1148.12 536.05 1148.76 536.05C1149.4 536.05 1149.91 536.277 1150.3 536.73C1150.7 537.183 1150.9 537.8 1150.9 538.58C1150.9 539.36 1150.7 539.98 1150.3 540.44C1149.91 540.893 1149.4 541.12 1148.76 541.12ZM1148.45 540.19C1148.87 540.19 1149.2 540.04 1149.44 539.74C1149.69 539.44 1149.81 539.053 1149.81 538.58C1149.81 538.107 1149.69 537.723 1149.44 537.43C1149.2 537.13 1148.87 536.98 1148.45 536.98C1148.21 536.98 1147.98 537.043 1147.74 537.17C1147.51 537.297 1147.33 537.45 1147.21 537.63V539.54C1147.33 539.72 1147.51 539.873 1147.74 540C1147.98 540.127 1148.21 540.19 1148.45 540.19ZM1155.82 541H1154.64L1153.39 539.22L1152.13 541H1150.96L1152.73 538.52L1151.06 536.17H1152.24L1153.39 537.81L1154.53 536.17H1155.71L1154.04 538.52L1155.82 541Z" fill="black"/>
<line x1="1127" y1="550" x2="1162" y2="550" stroke="black" stroke-width="2"/>
<line x1="1156.76" y1="543.349" x2="1162.76" y2="550.349" stroke="black" stroke-width="2"/>
<line y1="-1" x2="9.21954" y2="-1" transform="matrix(0.650791 -0.759257 -0.759257 -0.650791 1156 555)" stroke="black" stroke-width="2"/>
<line x1="1132.24" y1="555.651" x2="1126.24" y2="548.651" stroke="black" stroke-width="2"/>
<line y1="-1" x2="9.21954" y2="-1" transform="matrix(-0.650791 0.759257 0.759257 0.650791 1133 544)" stroke="black" stroke-width="2"/>
</svg>
