<svg width="1338" height="854" viewBox="0 0 1338 854" fill="none" xmlns="http://www.w3.org/2000/svg">
<g opacity="0.4">
<line y1="851.552" x2="1338" y2="851.552" stroke="#1A1A1A" stroke-width="3.33112"/>
<line y1="833.786" x2="1338" y2="833.786" stroke="#1A1A1A" stroke-width="3.33112"/>
<line x1="1.66549" y1="853.218" x2="1.66551" y2="434.607" stroke="#1A1A1A" stroke-width="3.33112"/>
<line x1="22.7627" y1="835.452" x2="22.7626" y2="455.704" stroke="#1A1A1A" stroke-width="3.33112"/>
<line x1="617.923" y1="360.212" x2="617.923" y2="3.78204" stroke="#1A1A1A" stroke-width="3.33112"/>
<line x1="650.124" y1="351.329" x2="650.124" y2="3.78223" stroke="#1A1A1A" stroke-width="3.33112"/>
<line y1="-1.66556" x2="356.43" y2="-1.66556" transform="matrix(4.37114e-08 -1 -1 -4.37114e-08 712.86 360.212)" stroke="#1A1A1A" stroke-width="3.33112"/>
<line y1="-1.66556" x2="347.547" y2="-1.66556" transform="matrix(-4.37114e-08 -1 -1 4.37114e-08 680.659 351.329)" stroke="#1A1A1A" stroke-width="3.33112"/>
<line y1="434.052" x2="559.628" y2="434.052" stroke="#1A1A1A" stroke-width="3.33112"/>
<line x1="776.151" y1="434.052" x2="1338" y2="434.052" stroke="#1A1A1A" stroke-width="3.33112"/>
<line x1="36.0871" y1="835.452" x2="36.0871" y2="614.487" stroke="#1A1A1A" stroke-width="3.33112"/>
<line x1="37.7527" y1="616.153" x2="157.673" y2="616.153" stroke="#1A1A1A" stroke-width="3.33112"/>
<line x1="35.532" y1="579.512" x2="157.673" y2="579.512" stroke="#1A1A1A" stroke-width="3.33112"/>
<line x1="35.532" y1="572.85" x2="157.673" y2="572.85" stroke="#1A1A1A" stroke-width="3.33112"/>
<line x1="210.971" y1="572.85" x2="333.112" y2="572.85" stroke="#1A1A1A" stroke-width="3.33112"/>
<line x1="394.183" y1="572.85" x2="522.986" y2="572.85" stroke="#1A1A1A" stroke-width="3.33112"/>
<line x1="818.345" y1="572.85" x2="947.149" y2="572.85" stroke="#1A1A1A" stroke-width="3.33112"/>
<line x1="1003.78" y1="572.85" x2="1129.25" y2="572.85" stroke="#1A1A1A" stroke-width="3.33112"/>
<line x1="1181.44" y1="572.85" x2="1303.58" y2="572.85" stroke="#1A1A1A" stroke-width="3.33112"/>
<line x1="35.532" y1="516.221" x2="157.673" y2="516.221" stroke="#1A1A1A" stroke-width="3.33112"/>
<line x1="36.0871" y1="581.177" x2="36.0871" y2="514.555" stroke="#1A1A1A" stroke-width="3.33112"/>
<line x1="156.008" y1="581.177" x2="156.008" y2="514.555" stroke="#1A1A1A" stroke-width="3.33112"/>
<line x1="210.971" y1="579.512" x2="336.443" y2="579.512" stroke="#1A1A1A" stroke-width="3.33112"/>
<line x1="210.971" y1="516.221" x2="336.443" y2="516.221" stroke="#1A1A1A" stroke-width="3.33112"/>
<line x1="211.587" y1="581.177" x2="211.587" y2="514.555" stroke="#1A1A1A" stroke-width="3.33112"/>
<line x1="334.778" y1="581.177" x2="334.778" y2="514.555" stroke="#1A1A1A" stroke-width="3.33112"/>
<line x1="393.072" y1="579.512" x2="522.986" y2="579.512" stroke="#1A1A1A" stroke-width="3.33112"/>
<line x1="393.072" y1="516.221" x2="522.986" y2="516.221" stroke="#1A1A1A" stroke-width="3.33112"/>
<line x1="393.768" y1="581.177" x2="393.768" y2="514.555" stroke="#1A1A1A" stroke-width="3.33112"/>
<line x1="521.32" y1="581.177" x2="521.32" y2="514.555" stroke="#1A1A1A" stroke-width="3.33112"/>
<line x1="818.345" y1="579.512" x2="947.149" y2="579.512" stroke="#1A1A1A" stroke-width="3.33112"/>
<line x1="818.345" y1="516.221" x2="947.149" y2="516.221" stroke="#1A1A1A" stroke-width="3.33112"/>
<line x1="819.021" y1="581.177" x2="819.021" y2="514.555" stroke="#1A1A1A" stroke-width="3.33112"/>
<line x1="945.483" y1="581.177" x2="945.483" y2="514.555" stroke="#1A1A1A" stroke-width="3.33112"/>
<line x1="1002.67" y1="579.512" x2="1129.25" y2="579.512" stroke="#1A1A1A" stroke-width="3.33112"/>
<line x1="1002.67" y1="516.221" x2="1129.25" y2="516.221" stroke="#1A1A1A" stroke-width="3.33112"/>
<line x1="1003.3" y1="581.177" x2="1003.3" y2="514.555" stroke="#1A1A1A" stroke-width="3.33112"/>
<line x1="1127.59" y1="581.177" x2="1127.59" y2="514.555" stroke="#1A1A1A" stroke-width="3.33112"/>
<line x1="1181.44" y1="579.512" x2="1303.58" y2="579.512" stroke="#1A1A1A" stroke-width="3.33112"/>
<line x1="1181.44" y1="516.221" x2="1303.58" y2="516.221" stroke="#1A1A1A" stroke-width="3.33112"/>
<line x1="1181.99" y1="581.177" x2="1181.99" y2="514.555" stroke="#1A1A1A" stroke-width="3.33112"/>
<line x1="1301.91" y1="581.177" x2="1301.91" y2="514.555" stroke="#1A1A1A" stroke-width="3.33112"/>
<line x1="210.971" y1="616.153" x2="336.443" y2="616.153" stroke="#1A1A1A" stroke-width="3.33112"/>
<line x1="2.2207" y1="504.005" x2="170.997" y2="504.005" stroke="#1A1A1A" stroke-width="3.33112"/>
<line x1="2.2207" y1="492.902" x2="162.114" y2="492.902" stroke="#1A1A1A" stroke-width="3.33112"/>
<line x1="32.2009" y1="468.474" x2="157.673" y2="468.474" stroke="#1A1A1A" stroke-width="3.33112"/>
<line x1="209.861" y1="468.474" x2="337.554" y2="468.474" stroke="#1A1A1A" stroke-width="3.33112"/>
<line x1="389.741" y1="468.474" x2="528.538" y2="468.474" stroke="#1A1A1A" stroke-width="3.33112"/>
<line x1="2.2207" y1="457.37" x2="24.4282" y2="457.37" stroke="#1A1A1A" stroke-width="3.33112"/>
<line x1="22.3296" y1="456.804" x2="33.4333" y2="469.019" stroke="#1A1A1A" stroke-width="3.33112"/>
<line x1="166.556" y1="457.37" x2="200.977" y2="457.37" stroke="#1A1A1A" stroke-width="3.33112"/>
<line x1="168.221" y1="459.035" x2="168.221" y2="485.684" stroke="#1A1A1A" stroke-width="3.33112"/>
<line x1="199.312" y1="459.035" x2="199.312" y2="485.684" stroke="#1A1A1A" stroke-width="3.33112"/>
<line x1="199.989" y1="456.804" x2="211.093" y2="469.019" stroke="#1A1A1A" stroke-width="3.33112"/>
<line y1="-1.66556" x2="16.5069" y2="-1.66556" transform="matrix(-0.672673 0.73994 0.73994 0.672673 168.777 457.925)" stroke="#1A1A1A" stroke-width="3.33112"/>
<line x1="346.437" y1="457.37" x2="380.858" y2="457.37" stroke="#1A1A1A" stroke-width="3.33112"/>
<line x1="348.102" y1="459.035" x2="348.102" y2="485.684" stroke="#1A1A1A" stroke-width="3.33112"/>
<line x1="379.192" y1="459.035" x2="379.192" y2="485.684" stroke="#1A1A1A" stroke-width="3.33112"/>
<line x1="379.87" y1="456.804" x2="390.974" y2="469.019" stroke="#1A1A1A" stroke-width="3.33112"/>
<line y1="-1.66556" x2="16.5069" y2="-1.66556" transform="matrix(-0.672673 0.73994 0.73994 0.672673 348.657 457.925)" stroke="#1A1A1A" stroke-width="3.33112"/>
<line x1="1179.22" y1="468.474" x2="1306.91" y2="468.474" stroke="#1A1A1A" stroke-width="3.33112"/>
<line x1="998.226" y1="468.474" x2="1127.03" y2="468.474" stroke="#1A1A1A" stroke-width="3.33112"/>
<line x1="807.242" y1="468.474" x2="947.149" y2="468.474" stroke="#1A1A1A" stroke-width="3.33112"/>
<line y1="-1.66556" x2="34.4216" y2="-1.66556" transform="matrix(-1 0 0 1 1170.33 459.035)" stroke="#1A1A1A" stroke-width="3.33112"/>
<line y1="-1.66556" x2="26.649" y2="-1.66556" transform="matrix(3.64262e-08 1 1 -5.24537e-08 1170.33 459.035)" stroke="#1A1A1A" stroke-width="3.33112"/>
<line y1="-1.66556" x2="26.649" y2="-1.66556" transform="matrix(3.64262e-08 1 1 -5.24537e-08 1139.24 459.035)" stroke="#1A1A1A" stroke-width="3.33112"/>
<line y1="-1.66556" x2="16.5069" y2="-1.66556" transform="matrix(-0.672673 0.73994 0.73994 0.672673 1138.13 457.925)" stroke="#1A1A1A" stroke-width="3.33112"/>
<line x1="1169.35" y1="456.804" x2="1180.45" y2="469.019" stroke="#1A1A1A" stroke-width="3.33112"/>
<line y1="-1.66556" x2="34.4216" y2="-1.66556" transform="matrix(-1 0 0 1 990.453 459.035)" stroke="#1A1A1A" stroke-width="3.33112"/>
<line y1="-1.66556" x2="26.649" y2="-1.66556" transform="matrix(3.64262e-08 1 1 -5.24537e-08 990.453 459.035)" stroke="#1A1A1A" stroke-width="3.33112"/>
<line y1="-1.66556" x2="26.649" y2="-1.66556" transform="matrix(3.64262e-08 1 1 -5.24537e-08 959.363 459.035)" stroke="#1A1A1A" stroke-width="3.33112"/>
<line y1="-1.66556" x2="16.5069" y2="-1.66556" transform="matrix(-0.672673 0.73994 0.73994 0.672673 958.252 457.925)" stroke="#1A1A1A" stroke-width="3.33112"/>
<line x1="989.465" y1="456.804" x2="1000.57" y2="469.019" stroke="#1A1A1A" stroke-width="3.33112"/>
<line y1="-1.66556" x2="22.2075" y2="-1.66556" transform="matrix(-1 0 0 1 1336.89 459.035)" stroke="#1A1A1A" stroke-width="3.33112"/>
<line y1="-1.66556" x2="16.5069" y2="-1.66556" transform="matrix(-0.672673 0.73994 0.73994 0.672673 1318.01 457.925)" stroke="#1A1A1A" stroke-width="3.33112"/>
<line x1="205.419" y1="492.902" x2="340.885" y2="492.902" stroke="#1A1A1A" stroke-width="3.33112"/>
<line x1="387.52" y1="492.902" x2="544.083" y2="492.902" stroke="#1A1A1A" stroke-width="3.33112"/>
<line x1="789.476" y1="492.902" x2="950.48" y2="492.902" stroke="#1A1A1A" stroke-width="3.33112"/>
<line x1="994.895" y1="492.902" x2="1132.58" y2="492.902" stroke="#1A1A1A" stroke-width="3.33112"/>
<line x1="1173.66" y1="492.902" x2="1338" y2="492.902" stroke="#1A1A1A" stroke-width="3.33112"/>
<line x1="156.563" y1="487.35" x2="210.971" y2="487.35" stroke="#1A1A1A" stroke-width="3.33112"/>
<line x1="335.333" y1="487.35" x2="393.072" y2="487.35" stroke="#1A1A1A" stroke-width="3.33112"/>
<line x1="946.038" y1="487.35" x2="1000.45" y2="487.35" stroke="#1A1A1A" stroke-width="3.33112"/>
<line x1="1128.14" y1="487.35" x2="1179.22" y2="487.35" stroke="#1A1A1A" stroke-width="3.33112"/>
<line x1="157.949" y1="486.981" x2="169.052" y2="503.637" stroke="#1A1A1A" stroke-width="3.33112"/>
<line y1="-1.66556" x2="20.0175" y2="-1.66556" transform="matrix(-0.5547 0.83205 0.83205 0.5547 210.971 487.905)" stroke="#1A1A1A" stroke-width="3.33112"/>
<line y1="-1.66556" x2="20.0175" y2="-1.66556" transform="matrix(-0.5547 0.83205 0.83205 0.5547 393.072 487.905)" stroke="#1A1A1A" stroke-width="3.33112"/>
<line x1="523.541" y1="484.574" x2="523.541" y2="502.34" stroke="#1A1A1A" stroke-width="3.33112"/>
<line x1="530.203" y1="449.042" x2="530.203" y2="479.022" stroke="#1A1A1A" stroke-width="3.33112"/>
<line x1="559.628" y1="450.708" x2="529.648" y2="450.708" stroke="#1A1A1A" stroke-width="3.33112"/>
<line y1="-1.66556" x2="29.9801" y2="-1.66556" transform="matrix(-4.37114e-08 1 1 4.37114e-08 808.352 449.042)" stroke="#1A1A1A" stroke-width="3.33112"/>
<line y1="-1.66556" x2="29.9801" y2="-1.66556" transform="matrix(1 -8.74228e-08 -8.74228e-08 -1 777.261 449.042)" stroke="#1A1A1A" stroke-width="3.33112"/>
<line x1="560.183" y1="434.607" x2="560.183" y2="455.704" stroke="#1A1A1A" stroke-width="3.33112"/>
<line x1="560.709" y1="453.64" x2="522.956" y2="485.841" stroke="#1A1A1A" stroke-width="3.33112"/>
<line y1="-1.66556" x2="17.766" y2="-1.66556" transform="matrix(-4.37114e-08 1 1 4.37114e-08 815.014 484.574)" stroke="#1A1A1A" stroke-width="3.33112"/>
<line y1="-1.66556" x2="21.0971" y2="-1.66556" transform="matrix(-4.37114e-08 1 1 4.37114e-08 778.372 434.607)" stroke="#1A1A1A" stroke-width="3.33112"/>
<line y1="-1.66556" x2="49.6202" y2="-1.66556" transform="matrix(0.760834 0.648947 0.648947 -0.760834 777.261 452.373)" stroke="#1A1A1A" stroke-width="3.33112"/>
<line x1="336.719" y1="486.981" x2="347.822" y2="503.637" stroke="#1A1A1A" stroke-width="3.33112"/>
<line y1="-1.66556" x2="20.0175" y2="-1.66556" transform="matrix(-0.5547 0.83205 0.83205 0.5547 1000.45 487.905)" stroke="#1A1A1A" stroke-width="3.33112"/>
<line x1="947.424" y1="486.981" x2="958.528" y2="503.637" stroke="#1A1A1A" stroke-width="3.33112"/>
<line y1="-1.66556" x2="20.0175" y2="-1.66556" transform="matrix(-0.5547 0.83205 0.83205 0.5547 1179.22 487.905)" stroke="#1A1A1A" stroke-width="3.33112"/>
<line x1="1129.53" y1="486.981" x2="1140.63" y2="503.637" stroke="#1A1A1A" stroke-width="3.33112"/>
<line x1="196.536" y1="504.005" x2="349.768" y2="504.005" stroke="#1A1A1A" stroke-width="3.33112"/>
<line x1="378.637" y1="504.005" x2="536.31" y2="504.005" stroke="#1A1A1A" stroke-width="3.33112"/>
<line x1="801.689" y1="504.005" x2="960.473" y2="504.005" stroke="#1A1A1A" stroke-width="3.33112"/>
<line x1="986.012" y1="504.005" x2="1142.57" y2="504.005" stroke="#1A1A1A" stroke-width="3.33112"/>
<line x1="1164.78" y1="504.005" x2="1338" y2="504.005" stroke="#1A1A1A" stroke-width="3.33112"/>
<line x1="394.183" y1="616.153" x2="519.655" y2="616.153" stroke="#1A1A1A" stroke-width="3.33112"/>
<line x1="818.345" y1="616.153" x2="943.817" y2="616.153" stroke="#1A1A1A" stroke-width="3.33112"/>
<line x1="1002.67" y1="616.153" x2="1128.14" y2="616.153" stroke="#1A1A1A" stroke-width="3.33112"/>
<line x1="1181.44" y1="616.153" x2="1303.58" y2="616.153" stroke="#1A1A1A" stroke-width="3.33112"/>
<line x1="156.008" y1="835.452" x2="156.008" y2="614.487" stroke="#1A1A1A" stroke-width="3.33112"/>
<line x1="1336.33" y1="853.218" x2="1336.33" y2="434.607" stroke="#1A1A1A" stroke-width="3.33112"/>
<line y1="-1.66556" x2="379.748" y2="-1.66556" transform="matrix(4.37114e-08 -1 -1 -4.37114e-08 1314.68 835.452)" stroke="#1A1A1A" stroke-width="3.33112"/>
<line y1="-1.66556" x2="220.964" y2="-1.66556" transform="matrix(4.37114e-08 -1 -1 -4.37114e-08 1301.36 835.452)" stroke="#1A1A1A" stroke-width="3.33112"/>
<line y1="-1.66556" x2="220.964" y2="-1.66556" transform="matrix(4.37114e-08 -1 -1 -4.37114e-08 1181.44 835.452)" stroke="#1A1A1A" stroke-width="3.33112"/>
<line y1="-1.66556" x2="220.964" y2="-1.66556" transform="matrix(4.37114e-08 -1 -1 -4.37114e-08 1209.2 835.452)" stroke="#1A1A1A" stroke-width="3.33112"/>
<line x1="1182.55" y1="707.204" x2="1303.58" y2="707.204" stroke="#1A1A1A" stroke-width="3.33112"/>
<line y1="-1.66556" x2="220.964" y2="-1.66556" transform="matrix(4.37114e-08 -1 -1 -4.37114e-08 1273.6 835.452)" stroke="#1A1A1A" stroke-width="3.33112"/>
<line y1="-1.66556" x2="220.964" y2="-1.66556" transform="matrix(4.37114e-08 -1 -1 -4.37114e-08 1029.32 835.452)" stroke="#1A1A1A" stroke-width="3.33112"/>
<line x1="1002.67" y1="707.204" x2="1125.92" y2="707.204" stroke="#1A1A1A" stroke-width="3.33112"/>
<line y1="-1.66556" x2="220.964" y2="-1.66556" transform="matrix(4.45134e-08 -1 -1 -4.29238e-08 1095.94 835.452)" stroke="#1A1A1A" stroke-width="3.33112"/>
<line y1="-1.66556" x2="220.964" y2="-1.66556" transform="matrix(4.48928e-08 -1 -1 -4.25611e-08 844.994 835.452)" stroke="#1A1A1A" stroke-width="3.33112"/>
<line x1="817.235" y1="707.204" x2="943.817" y2="707.204" stroke="#1A1A1A" stroke-width="3.33112"/>
<line y1="-1.66556" x2="220.964" y2="-1.66556" transform="matrix(4.57165e-08 -1 -1 -4.17942e-08 912.727 835.452)" stroke="#1A1A1A" stroke-width="3.33112"/>
<line y1="-1.66556" x2="220.964" y2="-1.66556" transform="matrix(4.48928e-08 -1 -1 -4.25611e-08 421.942 835.452)" stroke="#1A1A1A" stroke-width="3.33112"/>
<line x1="394.183" y1="707.204" x2="520.765" y2="707.204" stroke="#1A1A1A" stroke-width="3.33112"/>
<line x1="596.271" y1="707.204" x2="740.619" y2="707.204" stroke="#1A1A1A" stroke-width="3.33112"/>
<line y1="-1.66556" x2="220.964" y2="-1.66556" transform="matrix(4.57165e-08 -1 -1 -4.17942e-08 489.675 835.452)" stroke="#1A1A1A" stroke-width="3.33112"/>
<line y1="-1.66556" x2="220.964" y2="-1.66556" transform="matrix(4.48928e-08 -1 -1 -4.25611e-08 239.841 835.452)" stroke="#1A1A1A" stroke-width="3.33112"/>
<line x1="212.081" y1="707.204" x2="336.443" y2="707.204" stroke="#1A1A1A" stroke-width="3.33112"/>
<line y1="-1.66556" x2="220.964" y2="-1.66556" transform="matrix(4.49145e-08 -1 -1 -4.25405e-08 305.353 835.452)" stroke="#1A1A1A" stroke-width="3.33112"/>
<line y1="-1.66556" x2="220.964" y2="-1.66556" transform="matrix(4.48928e-08 -1 -1 -4.25611e-08 63.2913 835.452)" stroke="#1A1A1A" stroke-width="3.33112"/>
<line x1="66.0673" y1="571.184" x2="66.0674" y2="514.555" stroke="#1A1A1A" stroke-width="3.33112"/>
<line x1="66.0673" y1="571.184" x2="66.0674" y2="514.555" stroke="#1A1A1A" stroke-width="3.33112"/>
<line x1="83.8335" y1="571.184" x2="83.8335" y2="514.555" stroke="#1A1A1A" stroke-width="3.33112"/>
<line x1="113.813" y1="571.184" x2="113.813" y2="514.555" stroke="#1A1A1A" stroke-width="3.33112"/>
<line x1="131.58" y1="571.184" x2="131.58" y2="514.555" stroke="#1A1A1A" stroke-width="3.33112"/>
<line x1="241.506" y1="571.184" x2="241.506" y2="514.555" stroke="#1A1A1A" stroke-width="3.33112"/>
<line x1="259.272" y1="571.184" x2="259.272" y2="514.555" stroke="#1A1A1A" stroke-width="3.33112"/>
<line x1="289.252" y1="571.184" x2="289.252" y2="514.555" stroke="#1A1A1A" stroke-width="3.33112"/>
<line x1="307.018" y1="571.184" x2="307.018" y2="514.555" stroke="#1A1A1A" stroke-width="3.33112"/>
<line x1="424.718" y1="571.184" x2="424.718" y2="514.555" stroke="#1A1A1A" stroke-width="3.33112"/>
<line x1="442.785" y1="571.184" x2="442.785" y2="514.555" stroke="#1A1A1A" stroke-width="3.33112"/>
<line x1="473.273" y1="571.184" x2="473.273" y2="514.555" stroke="#1A1A1A" stroke-width="3.33112"/>
<line x1="491.341" y1="571.184" x2="491.341" y2="514.555" stroke="#1A1A1A" stroke-width="3.33112"/>
<line x1="846.66" y1="571.184" x2="846.66" y2="514.555" stroke="#1A1A1A" stroke-width="3.33112"/>
<line x1="865.029" y1="571.184" x2="865.029" y2="514.555" stroke="#1A1A1A" stroke-width="3.33112"/>
<line x1="896.025" y1="571.184" x2="896.025" y2="514.555" stroke="#1A1A1A" stroke-width="3.33112"/>
<line x1="914.393" y1="571.184" x2="914.393" y2="514.555" stroke="#1A1A1A" stroke-width="3.33112"/>
<line x1="1028.76" y1="571.184" x2="1028.76" y2="514.555" stroke="#1A1A1A" stroke-width="3.33112"/>
<line x1="1047.43" y1="571.184" x2="1047.43" y2="514.555" stroke="#1A1A1A" stroke-width="3.33112"/>
<line x1="1078.93" y1="571.184" x2="1078.93" y2="514.555" stroke="#1A1A1A" stroke-width="3.33112"/>
<line x1="1097.6" y1="571.184" x2="1097.6" y2="514.555" stroke="#1A1A1A" stroke-width="3.33112"/>
<line x1="1206.42" y1="571.184" x2="1206.42" y2="514.555" stroke="#1A1A1A" stroke-width="3.33112"/>
<line x1="1225.09" y1="571.184" x2="1225.09" y2="514.555" stroke="#1A1A1A" stroke-width="3.33112"/>
<line x1="1256.59" y1="571.184" x2="1256.59" y2="514.555" stroke="#1A1A1A" stroke-width="3.33112"/>
<line x1="1275.26" y1="571.184" x2="1275.26" y2="514.555" stroke="#1A1A1A" stroke-width="3.33112"/>
<line x1="35.532" y1="707.204" x2="157.673" y2="707.204" stroke="#1A1A1A" stroke-width="3.33112"/>
<line y1="-1.66556" x2="220.964" y2="-1.66556" transform="matrix(4.41124e-08 -1 -1 -4.3314e-08 127.693 835.452)" stroke="#1A1A1A" stroke-width="3.33112"/>
<line x1="211.526" y1="835.452" x2="211.526" y2="614.487" stroke="#1A1A1A" stroke-width="3.33112"/>
<line x1="334.778" y1="835.452" x2="334.778" y2="614.487" stroke="#1A1A1A" stroke-width="3.33112"/>
<line x1="393.627" y1="835.452" x2="393.627" y2="614.487" stroke="#1A1A1A" stroke-width="3.33112"/>
<line x1="521.32" y1="835.452" x2="521.32" y2="614.487" stroke="#1A1A1A" stroke-width="3.33112"/>
<line x1="816.68" y1="835.452" x2="816.68" y2="614.487" stroke="#1A1A1A" stroke-width="3.33112"/>
<line x1="945.483" y1="835.452" x2="945.483" y2="614.487" stroke="#1A1A1A" stroke-width="3.33112"/>
<line x1="1001" y1="835.452" x2="1001" y2="614.487" stroke="#1A1A1A" stroke-width="3.33112"/>
<line x1="1127.58" y1="835.452" x2="1127.58" y2="614.487" stroke="#1A1A1A" stroke-width="3.33112"/>
<line x1="348.102" y1="835.452" x2="348.102" y2="505.671" stroke="#1A1A1A" stroke-width="3.33112"/>
<line x1="380.303" y1="835.452" x2="380.303" y2="505.671" stroke="#1A1A1A" stroke-width="3.33112"/>
<line x1="534.645" y1="835.452" x2="534.645" y2="505.671" stroke="#1A1A1A" stroke-width="3.33112"/>
<line x1="803.355" y1="835.452" x2="803.355" y2="505.671" stroke="#1A1A1A" stroke-width="3.33112"/>
<line x1="958.808" y1="835.452" x2="958.808" y2="505.671" stroke="#1A1A1A" stroke-width="3.33112"/>
<line x1="987.677" y1="835.452" x2="987.677" y2="505.671" stroke="#1A1A1A" stroke-width="3.33112"/>
<line x1="1140.91" y1="835.452" x2="1140.91" y2="505.671" stroke="#1A1A1A" stroke-width="3.33112"/>
<line x1="1166.45" y1="835.452" x2="1166.45" y2="505.671" stroke="#1A1A1A" stroke-width="3.33112"/>
<line x1="542.417" y1="835.452" x2="542.417" y2="493.457" stroke="#1A1A1A" stroke-width="3.33112"/>
<line x1="576.839" y1="835.452" x2="576.839" y2="465.697" stroke="#1A1A1A" stroke-width="3.33112"/>
<line x1="597.936" y1="835.452" x2="597.936" y2="661.123" stroke="#1A1A1A" stroke-width="3.33112"/>
<line x1="633.468" y1="835.452" x2="633.468" y2="620.039" stroke="#1A1A1A" stroke-width="3.33112"/>
<line x1="657.334" y1="835" x2="657.334" y2="801" stroke="#1A1A1A" stroke-width="3.33112"/>
<line x1="679.334" y1="835" x2="679.334" y2="801" stroke="#1A1A1A" stroke-width="3.33112"/>
<line x1="656" y1="802.334" x2="681" y2="802.334" stroke="#1A1A1A" stroke-width="3.33112"/>
<line x1="703.421" y1="835.452" x2="703.421" y2="620.039" stroke="#1A1A1A" stroke-width="3.33112"/>
<line x1="738.954" y1="835.452" x2="738.954" y2="661.123" stroke="#1A1A1A" stroke-width="3.33112"/>
<line x1="758.94" y1="835.452" x2="758.94" y2="465.697" stroke="#1A1A1A" stroke-width="3.33112"/>
<line x1="791.141" y1="835.452" x2="791.141" y2="493.457" stroke="#1A1A1A" stroke-width="3.33112"/>
<line x1="169.332" y1="835.452" x2="169.332" y2="505.671" stroke="#1A1A1A" stroke-width="3.33112"/>
<line x1="198.202" y1="835.452" x2="198.202" y2="505.671" stroke="#1A1A1A" stroke-width="3.33112"/>
<path fill-rule="evenodd" clip-rule="evenodd" d="M757.267 465.698C753.585 415.134 714.745 375.757 667.89 375.757C621.034 375.757 582.194 415.134 578.512 465.698H575.173C578.867 413.517 618.967 372.426 667.89 372.426C716.813 372.426 756.912 413.517 760.606 465.698H757.267Z" fill="#1A1A1A"/>
<line x1="605.709" y1="530.099" x2="605.709" y2="578.956" stroke="#1A1A1A" stroke-width="3.33112"/>
<line x1="619.033" y1="517.885" x2="619.033" y2="572.294" stroke="#1A1A1A" stroke-width="3.33112"/>
<line x1="635.134" y1="535.096" x2="606.264" y2="535.096" stroke="#1A1A1A" stroke-width="3.33112"/>
<line x1="635.134" y1="552.862" x2="606.264" y2="552.862" stroke="#1A1A1A" stroke-width="3.33112"/>
<line x1="633.468" y1="530.099" x2="633.468" y2="578.956" stroke="#1A1A1A" stroke-width="3.33112"/>
<line x1="635.134" y1="572.849" x2="604.043" y2="572.849" stroke="#1A1A1A" stroke-width="3.33112"/>
<line x1="635.134" y1="579.511" x2="604.043" y2="579.511" stroke="#1A1A1A" stroke-width="3.33112"/>
<path fill-rule="evenodd" clip-rule="evenodd" d="M631.793 530.192C631.188 523.068 625.728 517.885 619.588 517.885C613.448 517.885 607.989 523.068 607.383 530.192H604.043C604.662 521.443 611.385 514.554 619.588 514.554C627.791 514.554 634.514 521.443 635.133 530.192H631.793Z" fill="#1A1A1A"/>
<line x1="654.565" y1="530.099" x2="654.565" y2="578.956" stroke="#1A1A1A" stroke-width="3.33112"/>
<line x1="667.89" y1="517.885" x2="667.89" y2="572.294" stroke="#1A1A1A" stroke-width="3.33112"/>
<line x1="683.99" y1="535.096" x2="655.121" y2="535.096" stroke="#1A1A1A" stroke-width="3.33112"/>
<line x1="683.99" y1="552.862" x2="655.121" y2="552.862" stroke="#1A1A1A" stroke-width="3.33112"/>
<line x1="682.324" y1="530.099" x2="682.324" y2="578.956" stroke="#1A1A1A" stroke-width="3.33112"/>
<line x1="683.99" y1="572.849" x2="652.9" y2="572.849" stroke="#1A1A1A" stroke-width="3.33112"/>
<line x1="683.99" y1="579.511" x2="652.9" y2="579.511" stroke="#1A1A1A" stroke-width="3.33112"/>
<path fill-rule="evenodd" clip-rule="evenodd" d="M680.65 530.192C680.044 523.068 674.585 517.885 668.445 517.885C662.304 517.885 656.845 523.068 656.24 530.192H652.899C653.519 521.443 660.242 514.554 668.445 514.554C676.647 514.554 683.371 521.443 683.99 530.192H680.65Z" fill="#1A1A1A"/>
<line x1="703.421" y1="530.1" x2="703.421" y2="578.957" stroke="#1A1A1A" stroke-width="3.33112"/>
<line x1="716.746" y1="517.886" x2="716.746" y2="572.295" stroke="#1A1A1A" stroke-width="3.33112"/>
<line x1="732.847" y1="535.097" x2="703.977" y2="535.097" stroke="#1A1A1A" stroke-width="3.33112"/>
<line x1="732.847" y1="552.863" x2="703.977" y2="552.863" stroke="#1A1A1A" stroke-width="3.33112"/>
<line x1="731.181" y1="530.1" x2="731.181" y2="578.957" stroke="#1A1A1A" stroke-width="3.33112"/>
<line x1="732.847" y1="572.85" x2="701.756" y2="572.85" stroke="#1A1A1A" stroke-width="3.33112"/>
<line x1="732.847" y1="579.512" x2="701.756" y2="579.512" stroke="#1A1A1A" stroke-width="3.33112"/>
<path fill-rule="evenodd" clip-rule="evenodd" d="M729.506 530.193C728.901 523.069 723.441 517.886 717.301 517.886C711.161 517.886 705.702 523.069 705.096 530.193H701.756C702.375 521.444 709.098 514.555 717.301 514.555C725.504 514.555 732.227 521.444 732.846 530.193H729.506Z" fill="#1A1A1A"/>
<path fill-rule="evenodd" clip-rule="evenodd" d="M737.268 661.123C735.915 649.08 728.813 638.059 717.636 629.693C705.166 620.359 687.785 614.487 668.445 614.487C649.104 614.487 631.723 620.359 619.253 629.693C608.077 638.059 600.974 649.08 599.622 661.123H596.271C599.146 633.169 630.361 611.156 668.445 611.156C706.529 611.156 737.744 633.169 740.619 661.123H737.268Z" fill="#1A1A1A"/>
<path fill-rule="evenodd" clip-rule="evenodd" d="M775.025 435.718C770.641 388.854 725.025 351.329 668.445 351.329C611.864 351.329 566.248 388.854 561.865 435.718H558.518C562.897 386.642 610.44 347.998 668.445 347.998C726.449 347.998 773.992 386.642 778.372 435.718H775.025Z" fill="#1A1A1A"/>
<line x1="616.257" y1="2.11667" x2="651.789" y2="2.11667" stroke="#1A1A1A" stroke-width="3.33112"/>
<line x1="680.659" y1="2.11667" x2="716.191" y2="2.11667" stroke="#1A1A1A" stroke-width="3.33112"/>
<line y1="-1.66556" x2="348.737" y2="-1.66556" transform="matrix(-0.334319 0.94246 -0.976677 -0.214712 616.257 105.937)" stroke="#1A1A1A" stroke-width="3.33112" stroke-dasharray="13 13"/>
<line y1="-1.66556" x2="313.163" y2="-1.66556" transform="matrix(-0.297837 0.954617 -0.981815 -0.18984 616.257 135.657)" stroke="#1A1A1A" stroke-width="3.33112" stroke-dasharray="13 13"/>
<line y1="-1.66556" x2="348.737" y2="-1.66556" transform="matrix(0.334319 0.94246 0.976677 -0.214712 716.191 105.937)" stroke="#1A1A1A" stroke-width="3.33112" stroke-dasharray="13 13"/>
<line y1="-1.66556" x2="313.163" y2="-1.66556" transform="matrix(0.297837 0.954617 0.981815 -0.18984 716.191 135.657)" stroke="#1A1A1A" stroke-width="3.33112" stroke-dasharray="13 13"/>
</g>
<line x1="851.939" y1="432.939" x2="925.939" y2="358.939" stroke="#A1A1A1" stroke-width="3"/>
<line x1="925" y1="359.5" x2="1301" y2="359.5" stroke="#A1A1A1" stroke-width="3"/>
</svg>
