<svg width="192" height="90" viewBox="0 0 192 90" fill="none" xmlns="http://www.w3.org/2000/svg">
<path d="M109.72 24.88C108.92 24.88 108.22 24.6 107.62 24.04C107.02 23.44 106.72 22.72 106.72 21.88C106.72 21.04 107.02 20.32 107.62 19.72C108.22 19.12 108.92 18.82 109.72 18.82C110.56 18.82 111.28 19.12 111.88 19.72C112.48 20.32 112.78 21.04 112.78 21.88C112.78 22.72 112.48 23.44 111.88 24.04C111.28 24.6 110.56 24.88 109.72 24.88ZM112 58H107.5V29.02H112V58ZM116.537 13.78C117.337 13.78 118.037 14.06 118.637 14.62C119.277 15.14 119.597 15.98 119.597 17.14C119.597 18.26 119.277 19.1 118.637 19.66C118.037 20.22 117.337 20.5 116.537 20.5C115.657 20.5 114.917 20.22 114.317 19.66C113.717 19.1 113.417 18.26 113.417 17.14C113.417 15.98 113.717 15.14 114.317 14.62C114.917 14.06 115.657 13.78 116.537 13.78ZM125.384 0.639997C125.024 1.2 124.504 1.88 123.824 2.68C123.144 3.48 122.404 4.32 121.604 5.2C120.764 6.04 119.944 6.86 119.144 7.66C118.304 8.42 117.524 9.08 116.804 9.64H113.324V8.92C113.924 8.16 114.584 7.26 115.304 6.22C115.984 5.18 116.664 4.12 117.344 3.04C118.024 1.92 118.584 0.919999 119.024 0.0399981H125.384V0.639997Z" fill="black"/>
<path d="M129.54 67.66H124.5L130.02 42.76H125.94V38.68H130.86L133.62 26.44C134.22 23.64 135.46 21.44 137.34 19.84C139.22 18.2 141.46 17.38 144.06 17.38C146.42 17.38 148.3 18.1 149.7 19.54L147.48 23.2C146.76 22.28 145.76 21.82 144.48 21.82C143.04 21.82 141.78 22.32 140.7 23.32C139.62 24.28 138.88 25.62 138.48 27.34L135.96 38.68H144.3V42.76H135.06L129.54 67.66Z" fill="black"/>
<path d="M183.98 58H179.48L185.84 29.02H190.34L183.98 58ZM156.62 29.02H161.12L158.6 40.24H168.02C170.7 40.24 172.82 40.94 174.38 42.34C175.94 43.74 176.72 45.6 176.72 47.92C176.72 50.68 175.74 53.06 173.78 55.06C171.86 57.02 169.32 58 166.16 58H150.26L156.62 29.02ZM167.24 44.2H157.76L155.6 54.04H166.34C168.06 54.04 169.44 53.5 170.48 52.42C171.56 51.3 172.1 49.92 172.1 48.28C172.1 47 171.68 46 170.84 45.28C170 44.56 168.8 44.2 167.24 44.2Z" fill="black"/>
<path d="M39 21.3H57.9V25.44H43.44V60.06H39V21.3Z" fill="black"/>
<path d="M73.0996 52.4336C72.4355 54.4062 71.3809 55.832 69.9355 56.7109C68.4902 57.5703 66.2148 58 63.1094 58H62.7871V53.0195H63.2852C64.6328 53.0195 65.707 52.7656 66.5078 52.2578C67.2891 51.75 67.8457 50.9785 68.1777 49.9434C68.5098 48.8887 68.6758 47.2969 68.6758 45.168V27.0332H63.1094V22.0527H82.5332C87.9238 22.0527 91.791 23.2051 94.1348 25.5098C96.4785 27.7949 97.6504 31.6035 97.6504 36.9355V58H92.2598V36.877C92.2598 33.2832 91.5273 30.7441 90.0625 29.2598C88.6172 27.7754 86.0879 27.0332 82.4746 27.0332H74.0664V44.084C74.0664 47.6777 73.7441 50.4609 73.0996 52.4336Z" fill="black"/>
</svg>
