<svg width="910" height="582" viewBox="0 0 910 582" fill="none" xmlns="http://www.w3.org/2000/svg">
<line x1="908.5" y1="570" x2="908.5" y2="1" stroke="#919191" stroke-width="3" stroke-dasharray="6 6"/>
<line x1="137" y1="1.5" x2="910" y2="1.49993" stroke="#919191" stroke-width="3" stroke-dasharray="6 6"/>
<path d="M0.93934 177.939C0.353553 178.525 0.353553 179.475 0.93934 180.061L10.4853 189.607C11.0711 190.192 12.0208 190.192 12.6066 189.607C13.1924 189.021 13.1924 188.071 12.6066 187.485L4.12132 179L12.6066 170.515C13.1924 169.929 13.1924 168.979 12.6066 168.393C12.0208 167.808 11.0711 167.808 10.4853 168.393L0.93934 177.939ZM2 180.5L4.98684 180.5L4.98684 177.5L2 177.5L2 180.5ZM10.9605 180.5L16.9342 180.5L16.9342 177.5L10.9605 177.5L10.9605 180.5ZM22.9079 180.5L28.8816 180.5L28.8816 177.5L22.9079 177.5L22.9079 180.5ZM34.8553 180.5L40.8289 180.5L40.8289 177.5L34.8553 177.5L34.8553 180.5ZM46.8026 180.5L52.7763 180.5L52.7763 177.5L46.8026 177.5L46.8026 180.5ZM58.75 180.5L64.7237 180.5L64.7237 177.5L58.75 177.5L58.75 180.5ZM70.6974 180.5L76.6711 180.5L76.6711 177.5L70.6974 177.5L70.6974 180.5ZM82.6448 180.5L88.6184 180.5L88.6184 177.5L82.6448 177.5L82.6448 180.5ZM94.5921 180.5L100.566 180.5L100.566 177.5L94.5921 177.5L94.5921 180.5ZM106.539 180.5L112.513 180.5L112.513 177.5L106.539 177.5L106.539 180.5ZM118.487 180.5L124.461 180.5L124.461 177.5L118.487 177.5L118.487 180.5ZM130.434 180.5L136.408 180.5L136.408 177.5L130.434 177.5L130.434 180.5ZM142.382 180.5L148.355 180.5L148.355 177.5L142.382 177.5L142.382 180.5ZM154.329 180.5L160.303 180.5L160.303 177.5L154.329 177.5L154.329 180.5ZM166.276 180.5L172.25 180.5L172.25 177.5L166.276 177.5L166.276 180.5ZM178.224 180.5L184.197 180.5L184.197 177.5L178.224 177.5L178.224 180.5ZM190.171 180.5L196.145 180.5L196.145 177.5L190.171 177.5L190.171 180.5ZM202.118 180.5L208.092 180.5L208.092 177.5L202.118 177.5L202.118 180.5ZM214.066 180.5L220.039 180.5L220.039 177.5L214.066 177.5L214.066 180.5ZM226.013 180.5L231.987 180.5L231.987 177.5L226.013 177.5L226.013 180.5ZM237.96 180.5L243.934 180.5L243.934 177.5L237.96 177.5L237.96 180.5ZM249.908 180.5L255.881 180.5L255.881 177.5L249.908 177.5L249.908 180.5ZM261.855 180.5L267.829 180.5L267.829 177.5L261.855 177.5L261.855 180.5ZM273.803 180.5L279.776 180.5L279.776 177.5L273.803 177.5L273.803 180.5ZM285.75 180.5L291.724 180.5L291.724 177.5L285.75 177.5L285.75 180.5ZM297.697 180.5L303.671 180.5L303.671 177.5L297.697 177.5L297.697 180.5ZM309.645 180.5L315.618 180.5L315.618 177.5L309.645 177.5L309.645 180.5ZM321.592 180.5L327.566 180.5L327.566 177.5L321.592 177.5L321.592 180.5ZM333.539 180.5L339.513 180.5L339.513 177.5L333.539 177.5L333.539 180.5ZM345.487 180.5L351.461 180.5L351.461 177.5L345.487 177.5L345.487 180.5ZM357.434 180.5L363.408 180.5L363.408 177.5L357.434 177.5L357.434 180.5ZM369.382 180.5L375.355 180.5L375.355 177.5L369.382 177.5L369.382 180.5ZM381.329 180.5L387.303 180.5L387.303 177.5L381.329 177.5L381.329 180.5ZM393.276 180.5L399.25 180.5L399.25 177.5L393.276 177.5L393.276 180.5ZM405.224 180.5L411.198 180.5L411.198 177.5L405.224 177.5L405.224 180.5ZM417.171 180.5L423.145 180.5L423.145 177.5L417.171 177.5L417.171 180.5ZM429.119 180.5L435.092 180.5L435.092 177.5L429.119 177.5L429.119 180.5ZM441.066 180.5L447.04 180.5L447.04 177.5L441.066 177.5L441.066 180.5ZM453.013 180.5L458.987 180.5L458.987 177.5L453.013 177.5L453.013 180.5ZM464.961 180.5L470.934 180.5L470.934 177.5L464.961 177.5L464.961 180.5ZM476.908 180.5L482.882 180.5L482.882 177.5L476.908 177.5L476.908 180.5ZM488.856 180.5L494.829 180.5L494.829 177.5L488.856 177.5L488.856 180.5ZM500.803 180.5L506.777 180.5L506.777 177.5L500.803 177.5L500.803 180.5ZM512.75 180.5L518.724 180.5L518.724 177.5L512.75 177.5L512.75 180.5ZM524.698 180.5L530.671 180.5L530.671 177.5L524.698 177.5L524.698 180.5ZM536.645 180.5L542.619 180.5L542.619 177.5L536.645 177.5L536.645 180.5ZM548.592 180.5L554.566 180.5L554.566 177.5L548.592 177.5L548.592 180.5ZM560.54 180.5L566.514 180.5L566.514 177.5L560.54 177.5L560.54 180.5ZM572.487 180.5L578.461 180.5L578.461 177.5L572.487 177.5L572.487 180.5ZM584.435 180.5L590.408 180.5L590.408 177.5L584.435 177.5L584.435 180.5ZM596.382 180.5L602.356 180.5L602.356 177.5L596.382 177.5L596.382 180.5ZM608.329 180.5L614.303 180.5L614.303 177.5L608.329 177.5L608.329 180.5ZM620.277 180.5L626.25 180.5L626.25 177.5L620.277 177.5L620.277 180.5ZM632.224 180.5L638.198 180.5L638.198 177.5L632.224 177.5L632.224 180.5ZM644.172 180.5L650.145 180.5L650.145 177.5L644.172 177.5L644.172 180.5ZM656.119 180.5L662.093 180.5L662.093 177.5L656.119 177.5L656.119 180.5ZM668.066 180.5L674.04 180.5L674.04 177.5L668.066 177.5L668.066 180.5ZM680.014 180.5L685.987 180.5L685.987 177.5L680.014 177.5L680.014 180.5ZM691.961 180.5L697.935 180.5L697.935 177.5L691.961 177.5L691.961 180.5ZM703.909 180.5L709.882 180.5L709.882 177.5L703.909 177.5L703.909 180.5ZM715.856 180.5L721.83 180.5L721.83 177.5L715.856 177.5L715.856 180.5ZM727.803 180.5L733.777 180.5L733.777 177.5L727.803 177.5L727.803 180.5ZM739.751 180.5L745.724 180.5L745.724 177.5L739.751 177.5L739.751 180.5ZM751.698 180.5L757.672 180.5L757.672 177.5L751.698 177.5L751.698 180.5ZM763.645 180.5L769.619 180.5L769.619 177.5L763.645 177.5L763.645 180.5ZM775.593 180.5L781.567 180.5L781.567 177.5L775.593 177.5L775.593 180.5ZM787.54 180.5L793.514 180.5L793.514 177.5L787.54 177.5L787.54 180.5ZM799.488 180.5L805.461 180.5L805.461 177.5L799.488 177.5L799.488 180.5ZM811.435 180.5L817.409 180.5L817.409 177.5L811.435 177.5L811.435 180.5ZM823.382 180.5L829.356 180.5L829.356 177.5L823.382 177.5L823.382 180.5ZM835.33 180.5L841.303 180.5L841.303 177.5L835.33 177.5L835.33 180.5ZM847.277 180.5L853.251 180.5L853.251 177.5L847.277 177.5L847.277 180.5ZM859.225 180.5L865.198 180.5L865.198 177.5L859.225 177.5L859.225 180.5ZM871.172 180.5L877.146 180.5L877.146 177.5L871.172 177.5L871.172 180.5ZM883.119 180.5L889.093 180.5L889.093 177.5L883.119 177.5L883.119 180.5ZM895.067 180.5L901.04 180.5L901.04 177.5L895.067 177.5L895.067 180.5ZM907.014 180.5L910 180.5L910 177.5L907.014 177.5L907.014 180.5Z" fill="#919191"/>
<path d="M195.939 442.939C195.354 443.525 195.354 444.475 195.939 445.061L205.485 454.607C206.071 455.192 207.021 455.192 207.607 454.607C208.192 454.021 208.192 453.071 207.607 452.485L199.121 444L207.607 435.515C208.192 434.929 208.192 433.979 207.607 433.393C207.021 432.808 206.071 432.808 205.485 433.393L195.939 442.939ZM197 445.5L200.021 445.5L200.021 442.5L197 442.5L197 445.5ZM206.064 445.5L212.106 445.5L212.106 442.5L206.064 442.5L206.064 445.5ZM218.148 445.5L224.191 445.5L224.191 442.5L218.148 442.5L218.148 445.5ZM230.233 445.5L236.275 445.5L236.275 442.5L230.233 442.5L230.233 445.5ZM242.318 445.5L248.36 445.5L248.36 442.5L242.318 442.5L242.318 445.5ZM254.403 445.5L260.445 445.5L260.445 442.5L254.403 442.5L254.403 445.5ZM266.487 445.5L272.53 445.5L272.53 442.5L266.487 442.5L266.487 445.5ZM278.572 445.5L284.614 445.5L284.614 442.5L278.572 442.5L278.572 445.5ZM290.657 445.5L296.699 445.5L296.699 442.5L290.657 442.5L290.657 445.5ZM302.742 445.5L308.784 445.5L308.784 442.5L302.742 442.5L302.742 445.5ZM314.826 445.5L320.869 445.5L320.869 442.5L314.826 442.5L314.826 445.5ZM326.911 445.5L332.953 445.5L332.953 442.5L326.911 442.5L326.911 445.5ZM338.996 445.5L345.038 445.5L345.038 442.5L338.996 442.5L338.996 445.5ZM351.081 445.5L357.123 445.5L357.123 442.5L351.081 442.5L351.081 445.5ZM363.165 445.5L369.208 445.5L369.208 442.5L363.165 442.5L363.165 445.5ZM375.25 445.5L381.292 445.5L381.292 442.5L375.25 442.5L375.25 445.5ZM387.335 445.5L393.377 445.5L393.377 442.5L387.335 442.5L387.335 445.5ZM399.42 445.5L405.462 445.5L405.462 442.5L399.42 442.5L399.42 445.5ZM411.504 445.5L417.547 445.5L417.547 442.5L411.504 442.5L411.504 445.5ZM423.589 445.5L429.631 445.5L429.631 442.5L423.589 442.5L423.589 445.5ZM435.674 445.5L441.716 445.5L441.716 442.5L435.674 442.5L435.674 445.5ZM447.758 445.5L453.801 445.5L453.801 442.5L447.758 442.5L447.758 445.5ZM459.843 445.5L465.886 445.5L465.886 442.5L459.843 442.5L459.843 445.5ZM471.928 445.5L477.97 445.5L477.97 442.5L471.928 442.5L471.928 445.5ZM484.013 445.5L490.055 445.5L490.055 442.5L484.013 442.5L484.013 445.5ZM496.097 445.5L502.14 445.5L502.14 442.5L496.097 442.5L496.097 445.5ZM508.182 445.5L514.224 445.5L514.224 442.5L508.182 442.5L508.182 445.5ZM520.267 445.5L526.309 445.5L526.309 442.5L520.267 442.5L520.267 445.5ZM532.352 445.5L538.394 445.5L538.394 442.5L532.352 442.5L532.352 445.5ZM544.436 445.5L550.479 445.5L550.479 442.5L544.436 442.5L544.436 445.5ZM556.521 445.5L562.563 445.5L562.563 442.5L556.521 442.5L556.521 445.5ZM568.606 445.5L574.648 445.5L574.648 442.5L568.606 442.5L568.606 445.5ZM580.69 445.5L586.733 445.5L586.733 442.5L580.69 442.5L580.69 445.5ZM592.775 445.5L598.817 445.5L598.817 442.5L592.775 442.5L592.775 445.5ZM604.86 445.5L610.902 445.5L610.902 442.5L604.86 442.5L604.86 445.5ZM616.945 445.5L622.987 445.5L622.987 442.5L616.945 442.5L616.945 445.5ZM629.029 445.5L635.072 445.5L635.072 442.5L629.029 442.5L629.029 445.5ZM641.114 445.5L647.156 445.5L647.156 442.5L641.114 442.5L641.114 445.5ZM653.199 445.5L659.241 445.5L659.241 442.5L653.199 442.5L653.199 445.5ZM665.283 445.5L671.326 445.5L671.326 442.5L665.283 442.5L665.283 445.5ZM677.368 445.5L683.41 445.5L683.41 442.5L677.368 442.5L677.368 445.5ZM689.453 445.5L695.495 445.5L695.495 442.5L689.453 442.5L689.453 445.5ZM701.538 445.5L707.58 445.5L707.58 442.5L701.538 442.5L701.538 445.5ZM713.622 445.5L719.665 445.5L719.665 442.5L713.622 442.5L713.622 445.5ZM725.707 445.5L731.749 445.5L731.749 442.5L725.707 442.5L725.707 445.5ZM737.792 445.5L743.834 445.5L743.834 442.5L737.792 442.5L737.792 445.5ZM749.876 445.5L755.919 445.5L755.919 442.5L749.876 442.5L749.876 445.5ZM761.961 445.5L768.004 445.5L768.004 442.5L761.961 442.5L761.961 445.5ZM774.046 445.5L780.088 445.5L780.088 442.5L774.046 442.5L774.046 445.5ZM786.131 445.5L792.173 445.5L792.173 442.5L786.131 442.5L786.131 445.5ZM798.215 445.5L804.258 445.5L804.258 442.5L798.215 442.5L798.215 445.5ZM810.3 445.5L816.342 445.5L816.342 442.5L810.3 442.5L810.3 445.5ZM822.385 445.5L828.427 445.5L828.427 442.5L822.385 442.5L822.385 445.5ZM834.469 445.5L840.512 445.5L840.512 442.5L834.469 442.5L834.469 445.5ZM846.554 445.5L852.597 445.5L852.597 442.5L846.554 442.5L846.554 445.5ZM858.639 445.5L864.681 445.5L864.681 442.5L858.639 442.5L858.639 445.5ZM870.724 445.5L876.766 445.5L876.766 442.5L870.724 442.5L870.724 445.5ZM882.808 445.5L888.851 445.5L888.851 442.5L882.808 442.5L882.808 445.5ZM894.893 445.5L900.935 445.5L900.935 442.5L894.893 442.5L894.893 445.5ZM906.978 445.5L910 445.5L910 442.5L906.978 442.5L906.978 445.5Z" fill="#919191"/>
<path d="M787.939 264.939C787.354 265.525 787.354 266.475 787.939 267.061L797.485 276.607C798.071 277.192 799.021 277.192 799.607 276.607C800.192 276.021 800.192 275.071 799.607 274.485L791.121 266L799.607 257.515C800.192 256.929 800.192 255.979 799.607 255.393C799.021 254.808 798.071 254.808 797.485 255.393L787.939 264.939ZM789 267.5L792.025 267.5L792.025 264.5L789 264.5L789 267.5ZM798.075 267.5L804.125 267.5L804.125 264.5L798.075 264.5L798.075 267.5ZM810.175 267.5L816.225 267.5L816.225 264.5L810.175 264.5L810.175 267.5ZM822.275 267.5L828.325 267.5L828.325 264.5L822.275 264.5L822.275 267.5ZM834.375 267.5L840.425 267.5L840.425 264.5L834.375 264.5L834.375 267.5ZM846.475 267.5L852.525 267.5L852.525 264.5L846.475 264.5L846.475 267.5ZM858.575 267.5L864.625 267.5L864.625 264.5L858.575 264.5L858.575 267.5ZM870.675 267.5L876.725 267.5L876.725 264.5L870.675 264.5L870.675 267.5ZM882.775 267.5L888.825 267.5L888.825 264.5L882.775 264.5L882.775 267.5ZM894.875 267.5L900.925 267.5L900.925 264.5L894.875 264.5L894.875 267.5ZM906.975 267.5L910 267.5L910 264.5L906.975 264.5L906.975 267.5Z" fill="#919191"/>
<path d="M787.939 568.939C787.354 569.525 787.354 570.475 787.939 571.061L797.485 580.607C798.071 581.192 799.021 581.192 799.607 580.607C800.192 580.021 800.192 579.071 799.607 578.485L791.121 570L799.607 561.515C800.192 560.929 800.192 559.979 799.607 559.393C799.021 558.808 798.071 558.808 797.485 559.393L787.939 568.939ZM789 571.5L792.025 571.5L792.025 568.5L789 568.5L789 571.5ZM798.075 571.5L804.125 571.5L804.125 568.5L798.075 568.5L798.075 571.5ZM810.175 571.5L816.225 571.5L816.225 568.5L810.175 568.5L810.175 571.5ZM822.275 571.5L828.325 571.5L828.325 568.5L822.275 568.5L822.275 571.5ZM834.375 571.5L840.425 571.5L840.425 568.5L834.375 568.5L834.375 571.5ZM846.475 571.5L852.525 571.5L852.525 568.5L846.475 568.5L846.475 571.5ZM858.575 571.5L864.625 571.5L864.625 568.5L858.575 568.5L858.575 571.5ZM870.675 571.5L876.725 571.5L876.725 568.5L870.675 568.5L870.675 571.5ZM882.775 571.5L888.825 571.5L888.825 568.5L882.775 568.5L882.775 571.5ZM894.875 571.5L900.925 571.5L900.925 568.5L894.875 568.5L894.875 571.5ZM906.975 571.5L910 571.5L910 568.5L906.975 568.5L906.975 571.5Z" fill="#919191"/>
</svg>
