<svg width="306" height="775" viewBox="0 0 306 775" fill="none" xmlns="http://www.w3.org/2000/svg">
<path opacity="0.35" d="M34.5 297H32.25L32.25 282.51H34.5V288.54H42.06V282.51H44.31L44.31 297H42.06L42.06 290.52H34.5L34.5 297ZM60.3227 295.17C59.0227 296.63 57.2927 297.36 55.1327 297.36C52.9727 297.36 51.2327 296.63 49.9127 295.17C48.6127 293.71 47.9627 291.9 47.9627 289.74C47.9627 287.58 48.6127 285.78 49.9127 284.34C51.2327 282.88 52.9727 282.15 55.1327 282.15C57.2927 282.15 59.0227 282.88 60.3227 284.34C61.6427 285.78 62.3027 287.58 62.3027 289.74C62.3027 291.9 61.6427 293.71 60.3227 295.17ZM51.5927 293.73C52.4727 294.81 53.6527 295.35 55.1327 295.35C56.6127 295.35 57.7827 294.81 58.6427 293.73C59.5027 292.63 59.9327 291.3 59.9327 289.74C59.9327 288.18 59.5027 286.86 58.6427 285.78C57.7827 284.7 56.6127 284.16 55.1327 284.16C53.6527 284.16 52.4727 284.71 51.5927 285.81C50.7327 286.89 50.3027 288.2 50.3027 289.74C50.3027 291.3 50.7327 292.63 51.5927 293.73ZM74.1007 297H65.9707V282.51H73.9507C75.2107 282.51 76.2007 282.85 76.9207 283.53C77.6607 284.21 78.0307 285.11 78.0307 286.23C78.0307 287.05 77.8007 287.76 77.3407 288.36C76.9007 288.94 76.3507 289.33 75.6907 289.53C76.4307 289.71 77.0507 290.14 77.5507 290.82C78.0707 291.5 78.3307 292.25 78.3307 293.07C78.3307 294.25 77.9507 295.2 77.1907 295.92C76.4507 296.64 75.4207 297 74.1007 297ZM73.6507 295.02C74.3707 295.02 74.9407 294.82 75.3607 294.42C75.7807 294.02 75.9907 293.48 75.9907 292.8C75.9907 292.18 75.7807 291.65 75.3607 291.21C74.9407 290.77 74.3707 290.55 73.6507 290.55H68.2207V295.02H73.6507ZM73.5607 288.57C74.2407 288.57 74.7707 288.39 75.1507 288.03C75.5307 287.65 75.7207 287.16 75.7207 286.56C75.7207 285.92 75.5307 285.42 75.1507 285.06C74.7707 284.68 74.2407 284.49 73.5607 284.49H68.2207V288.57H73.5607ZM82.582 282.51H84.832V288.12H90.262C91.702 288.12 92.822 288.55 93.622 289.41C94.422 290.25 94.822 291.3 94.822 292.56C94.822 293.82 94.412 294.88 93.592 295.74C92.792 296.58 91.682 297 90.262 297H82.582V282.51ZM90.022 290.1H84.832V295.02H90.022C90.822 295.02 91.432 294.8 91.852 294.36C92.292 293.9 92.512 293.3 92.512 292.56C92.512 291.82 92.292 291.23 91.852 290.79C91.432 290.33 90.822 290.1 90.022 290.1ZM99.442 297H97.192V282.51H99.442V297ZM106.099 297H103.939V282.51H106.189V293.58L113.779 282.51H115.999V297H113.749V285.72L106.099 297ZM115.219 278.22C113.919 279.98 112.169 280.86 109.969 280.86C107.789 280.86 106.029 279.98 104.689 278.22L105.799 277.26C106.839 278.7 108.229 279.42 109.969 279.42C111.729 279.42 113.109 278.7 114.109 277.26L115.219 278.22Z" fill="black"/>
<path opacity="0.35" d="M154.64 493.36C152.5 493.36 150.76 492.64 149.42 491.2C148.08 489.74 147.41 487.92 147.41 485.74C147.41 483.56 148.08 481.75 149.42 480.31C150.76 478.87 152.5 478.15 154.64 478.15C156.88 478.15 158.65 478.99 159.95 480.67L158.45 482.05C157.53 480.79 156.3 480.16 154.76 480.16C153.24 480.16 152.02 480.68 151.1 481.72C150.2 482.76 149.75 484.1 149.75 485.74C149.75 487.38 150.2 488.73 151.1 489.79C152.02 490.83 153.24 491.35 154.76 491.35C156.28 491.35 157.51 490.72 158.45 489.46L159.95 490.84C158.65 492.52 156.88 493.36 154.64 493.36ZM161.394 493.36V491.5C162.074 491.5 162.634 491.05 163.074 490.15C163.514 489.25 163.874 487.75 164.154 485.65L165.084 478.51H175.164V493H172.914V480.49H167.064L166.404 485.92C166.084 488.58 165.524 490.49 164.724 491.65C163.924 492.79 162.814 493.36 161.394 493.36ZM186.196 493.36C184.036 493.36 182.266 492.66 180.886 491.26C179.506 489.84 178.816 488 178.816 485.74C178.816 483.62 179.496 481.83 180.856 480.37C182.216 478.89 183.916 478.15 185.956 478.15C188.096 478.15 189.786 478.89 191.026 480.37C192.286 481.83 192.916 483.68 192.916 485.92V486.49H181.186C181.286 487.91 181.806 489.1 182.746 490.06C183.686 491.02 184.906 491.5 186.406 491.5C188.206 491.5 189.696 490.89 190.876 489.67L191.956 491.14C190.476 492.62 188.556 493.36 186.196 493.36ZM190.696 484.84C190.676 483.6 190.256 482.49 189.436 481.51C188.616 480.51 187.446 480.01 185.926 480.01C184.486 480.01 183.346 480.5 182.506 481.48C181.686 482.46 181.246 483.58 181.186 484.84H190.696ZM194.851 496.69V491.14C195.591 491 196.171 490.56 196.591 489.82C197.011 489.06 197.351 487.67 197.611 485.65L198.541 478.51H208.621V491.02H210.301V496.69H208.051V493H197.101V496.69H194.851ZM200.521 480.49L199.861 485.92C199.521 488.46 198.821 490.16 197.761 491.02H206.371V480.49H200.521ZM212.567 498.67L212.927 496.63C213.287 496.79 213.697 496.87 214.157 496.87C214.677 496.87 215.107 496.76 215.447 496.54C215.787 496.32 216.077 495.92 216.317 495.34L217.277 493.15L211.217 478.51H213.647L218.477 490.39L223.277 478.51H225.737L218.477 495.94C217.677 497.86 216.257 498.84 214.217 498.88C213.617 498.88 213.067 498.81 212.567 498.67ZM240.234 493.36C238.234 493.36 236.584 492.72 235.284 491.44C234.004 490.14 233.284 488.5 233.124 486.52H230.334V493H228.084V478.51H230.334V484.54H233.154C233.394 482.68 234.144 481.15 235.404 479.95C236.684 478.75 238.294 478.15 240.234 478.15C242.394 478.15 244.134 478.88 245.454 480.34C246.774 481.78 247.434 483.58 247.434 485.74C247.434 487.9 246.774 489.71 245.454 491.17C244.134 492.63 242.394 493.36 240.234 493.36ZM240.234 491.35C241.734 491.35 242.914 490.81 243.774 489.73C244.634 488.63 245.064 487.3 245.064 485.74C245.064 484.18 244.634 482.86 243.774 481.78C242.914 480.7 241.734 480.16 240.234 480.16C238.774 480.16 237.604 480.71 236.724 481.81C235.864 482.89 235.434 484.2 235.434 485.74C235.434 487.3 235.864 488.63 236.724 489.73C237.584 490.81 238.754 491.35 240.234 491.35ZM267.822 478.51H270.072V491.02H271.932V496.69H269.682V493H251.082V478.51H253.332V491.02H259.452V478.51H261.702V491.02H267.822V478.51ZM277.178 493H275.018V478.51H277.268V489.58L284.858 478.51H287.078V493H284.828V481.72L277.178 493ZM293.73 493H291.57V478.51H293.82V489.58L301.41 478.51H303.63V493H301.38V481.72L293.73 493ZM302.85 474.22C301.55 475.98 299.8 476.86 297.6 476.86C295.42 476.86 293.66 475.98 292.32 474.22L293.43 473.26C294.47 474.7 295.86 475.42 297.6 475.42C299.36 475.42 300.74 474.7 301.74 473.26L302.85 474.22Z" fill="black"/>
<path opacity="0.35" d="M11.82 766.36C8.9 766.36 6.45 765.4 4.47 763.48C2.51 761.54 1.53 759.05 1.53 756.01C1.53 752.97 2.51 750.49 4.47 748.57C6.45 746.63 8.9 745.66 11.82 745.66C15.02 745.66 17.55 746.98 19.41 749.62L17.31 750.79C16.73 749.93 15.95 749.23 14.97 748.69C13.99 748.15 12.94 747.88 11.82 747.88C9.62 747.88 7.78 748.65 6.3 750.19C4.84 751.71 4.11 753.65 4.11 756.01C4.11 758.37 4.84 760.32 6.3 761.86C7.78 763.38 9.62 764.14 11.82 764.14C12.94 764.14 13.99 763.88 14.97 763.36C15.95 762.82 16.73 762.11 17.31 761.23L19.44 762.4C17.5 765.04 14.96 766.36 11.82 766.36ZM42.3178 766H40.0678L40.0678 753.49H32.5078L32.5078 766H30.2578V751.51H42.3178L42.3178 766ZM58.3305 764.17C57.0305 765.63 55.3005 766.36 53.1405 766.36C50.9805 766.36 49.2405 765.63 47.9205 764.17C46.6205 762.71 45.9705 760.9 45.9705 758.74C45.9705 756.58 46.6205 754.78 47.9205 753.34C49.2405 751.88 50.9805 751.15 53.1405 751.15C55.3005 751.15 57.0305 751.88 58.3305 753.34C59.6505 754.78 60.3105 756.58 60.3105 758.74C60.3105 760.9 59.6505 762.71 58.3305 764.17ZM49.6005 762.73C50.4805 763.81 51.6605 764.35 53.1405 764.35C54.6205 764.35 55.7905 763.81 56.6505 762.73C57.5105 761.63 57.9405 760.3 57.9405 758.74C57.9405 757.18 57.5105 755.86 56.6505 754.78C55.7905 753.7 54.6205 753.16 53.1405 753.16C51.6605 753.16 50.4805 753.71 49.6005 754.81C48.7405 755.89 48.3105 757.2 48.3105 758.74C48.3105 760.3 48.7405 761.63 49.6005 762.73ZM71.1185 766.36C69.0785 766.36 67.4485 765.51 66.2285 763.81V771.52H63.9785L63.9785 751.51H66.2285V753.67C66.7685 752.91 67.4685 752.3 68.3285 751.84C69.1885 751.38 70.1185 751.15 71.1185 751.15C73.0385 751.15 74.5885 751.84 75.7685 753.22C76.9685 754.58 77.5685 756.42 77.5685 758.74C77.5685 761.06 76.9685 762.91 75.7685 764.29C74.5885 765.67 73.0385 766.36 71.1185 766.36ZM70.5485 764.35C71.9685 764.35 73.0985 763.83 73.9385 762.79C74.7785 761.73 75.1985 760.38 75.1985 758.74C75.1985 757.1 74.7785 755.76 73.9385 754.72C73.0985 753.68 71.9685 753.16 70.5485 753.16C69.6885 753.16 68.8485 753.39 68.0285 753.85C67.2285 754.29 66.6285 754.83 66.2285 755.47V762.01C66.6285 762.67 67.2285 763.23 68.0285 763.69C68.8485 764.13 69.6885 764.35 70.5485 764.35ZM86.0365 766H83.7865V753.49H79.5865V751.51H90.2665V753.49H86.0365V766ZM92.4068 771.67L92.7668 769.63C93.1268 769.79 93.5368 769.87 93.9968 769.87C94.5168 769.87 94.9468 769.76 95.2868 769.54C95.6268 769.32 95.9168 768.92 96.1568 768.34L97.1168 766.15L91.0568 751.51H93.4868L98.3168 763.39L103.117 751.51H105.577L98.3168 768.94C97.5168 770.86 96.0968 771.84 94.0568 771.88C93.4568 771.88 92.9068 771.81 92.4068 771.67ZM118.064 751.51V753.49H110.174V766H107.924V751.51H118.064ZM132.3 766H130.05V764.35C128.83 765.69 127.23 766.36 125.25 766.36C123.91 766.36 122.73 765.93 121.71 765.07C120.69 764.21 120.18 763.04 120.18 761.56C120.18 760.04 120.68 758.87 121.68 758.05C122.7 757.21 123.89 756.79 125.25 756.79C127.31 756.79 128.91 757.45 130.05 758.77V756.16C130.05 755.2 129.71 754.45 129.03 753.91C128.35 753.37 127.47 753.1 126.39 753.1C124.69 753.1 123.21 753.77 121.95 755.11L120.9 753.55C122.44 751.95 124.37 751.15 126.69 751.15C128.35 751.15 129.7 751.55 130.74 752.35C131.78 753.15 132.3 754.38 132.3 756.04V766ZM126.06 764.74C127.86 764.74 129.19 764.14 130.05 762.94V760.21C129.19 759.01 127.86 758.41 126.06 758.41C125.02 758.41 124.16 758.71 123.48 759.31C122.82 759.89 122.49 760.65 122.49 761.59C122.49 762.51 122.82 763.27 123.48 763.87C124.16 764.45 125.02 764.74 126.06 764.74ZM135.101 766.36V764.5C135.781 764.5 136.341 764.05 136.781 763.15C137.221 762.25 137.581 760.75 137.861 758.65L138.791 751.51H148.871V766H146.621V753.49H140.771L140.111 758.92C139.791 761.58 139.231 763.49 138.431 764.65C137.631 765.79 136.521 766.36 135.101 766.36ZM153.363 751.51H155.613V757.12H161.043C162.483 757.12 163.603 757.55 164.403 758.41C165.203 759.25 165.603 760.3 165.603 761.56C165.603 762.82 165.193 763.88 164.373 764.74C163.573 765.58 162.463 766 161.043 766H153.363V751.51ZM160.803 759.1H155.613V764.02H160.803C161.603 764.02 162.213 763.8 162.633 763.36C163.073 762.9 163.293 762.3 163.293 761.56C163.293 760.82 163.073 760.23 162.633 759.79C162.213 759.33 161.603 759.1 160.803 759.1ZM175.427 766.36C173.287 766.36 171.547 765.64 170.207 764.2C168.867 762.74 168.197 760.92 168.197 758.74C168.197 756.56 168.867 754.75 170.207 753.31C171.547 751.87 173.287 751.15 175.427 751.15C177.667 751.15 179.437 751.99 180.737 753.67L179.237 755.05C178.317 753.79 177.087 753.16 175.547 753.16C174.027 753.16 172.807 753.68 171.887 754.72C170.987 755.76 170.537 757.1 170.537 758.74C170.537 760.38 170.987 761.73 171.887 762.79C172.807 763.83 174.027 764.35 175.547 764.35C177.067 764.35 178.297 763.72 179.237 762.46L180.737 763.84C179.437 765.52 177.667 766.36 175.427 766.36ZM196.641 766H193.761L188.541 759.49L186.141 761.86V766H183.891V751.51H186.141V759.22L193.761 751.51H196.611L190.191 758.08L196.641 766ZM210.733 764.17C209.433 765.63 207.703 766.36 205.543 766.36C203.383 766.36 201.643 765.63 200.323 764.17C199.023 762.71 198.373 760.9 198.373 758.74C198.373 756.58 199.023 754.78 200.323 753.34C201.643 751.88 203.383 751.15 205.543 751.15C207.703 751.15 209.433 751.88 210.733 753.34C212.053 754.78 212.713 756.58 212.713 758.74C212.713 760.9 212.053 762.71 210.733 764.17ZM202.003 762.73C202.883 763.81 204.063 764.35 205.543 764.35C207.023 764.35 208.193 763.81 209.053 762.73C209.913 761.63 210.343 760.3 210.343 758.74C210.343 757.18 209.913 755.86 209.053 754.78C208.193 753.7 207.023 753.16 205.543 753.16C204.063 753.16 202.883 753.71 202.003 754.81C201.143 755.89 200.713 757.2 200.713 758.74C200.713 760.3 201.143 761.63 202.003 762.73ZM226.521 751.51V753.49H218.631V766H216.381V751.51H226.521ZM240.967 764.17C239.667 765.63 237.937 766.36 235.777 766.36C233.617 766.36 231.877 765.63 230.557 764.17C229.257 762.71 228.607 760.9 228.607 758.74C228.607 756.58 229.257 754.78 230.557 753.34C231.877 751.88 233.617 751.15 235.777 751.15C237.937 751.15 239.667 751.88 240.967 753.34C242.287 754.78 242.947 756.58 242.947 758.74C242.947 760.9 242.287 762.71 240.967 764.17ZM232.237 762.73C233.117 763.81 234.297 764.35 235.777 764.35C237.257 764.35 238.427 763.81 239.287 762.73C240.147 761.63 240.577 760.3 240.577 758.74C240.577 757.18 240.147 755.86 239.287 754.78C238.427 753.7 237.257 753.16 235.777 753.16C234.297 753.16 233.117 753.71 232.237 754.81C231.377 755.89 230.947 757.2 230.947 758.74C230.947 760.3 231.377 761.63 232.237 762.73Z" fill="black"/>
<line opacity="0.35" x1="30.5" y1="-2.18557e-08" x2="30.5" y2="269" stroke="black" stroke-dasharray="4 4"/>
<line opacity="0.35" x1="30.5" y1="313" x2="30.5" y2="739" stroke="black" stroke-dasharray="4 4"/>
<line opacity="0.35" x1="149.5" y1="502" x2="149.5" y2="739" stroke="black" stroke-dasharray="4 4"/>
<line opacity="0.35" x1="149.5" y1="-2.18557e-08" x2="149.5" y2="465" stroke="black" stroke-dasharray="4 4"/>
</svg>
